<svg version="1.1" xmlns="http://www.w3.org/2000/svg" xmlns:xlink="http://www.w3.org/1999/xlink" width="699" height="776"><defs></defs><g><g transform="translate(-248,-38) scale(1,1)"><path fill="#C0C0C0" stroke="none" d="M 435 65 L 720 65 L 720 810 L 435 810" opacity="0.2"></path></g><g transform="translate(-248,-38) scale(1,1)"><path fill="#C0C0C0" stroke="none" d="M 435 65 L 445 55 L 730 55 L 720 65" opacity="0.2"></path></g><g transform="translate(-248,-38) scale(1,1)"><path fill="#C0C0C0" stroke="none" d="M 730 55 L 720 65 L 720 810 L 730 800" opacity="0.2"></path></g><g transform="translate(-248,-38) scale(1,1)"><path fill="#ffffff" stroke="none" d="M 428 58 L 713 58 L 713 803 L 428 803"></path></g><g transform="translate(-248,-38) scale(1,1)"><path fill="#ffffff" stroke="none" d="M 428 58 L 438 48 L 723 48 L 713 58"></path></g><g transform="translate(-248,-38) scale(1,1)"><path fill="#ffffff" stroke="none" d="M 723 48 L 713 58 L 713 803 L 723 793"></path></g><g transform="translate(-248,-38) scale(1,1)"><path fill="none" stroke="#000000" d="M 428 58 L 713 58 L 713 803 L 428 803 L 428 58" stroke-miterlimit="10"></path></g><g transform="translate(-248,-38) scale(1,1)"><path fill="none" stroke="#000000" d="M 428 58 L 438 48 L 723 48 L 713 58 L 428 58" stroke-miterlimit="10"></path></g><g transform="translate(-248,-38) scale(1,1)"><path fill="none" stroke="#000000" d="M 723 48 L 713 58 L 713 803 L 723 793 L 723 48" stroke-miterlimit="10"></path></g><g transform="translate(-248,-38) scale(1,1)"><g><path fill="none" stroke="none"></path><text fill="#000000" stroke="none" font-family="Arial" font-size="13px" font-style="normal" font-weight="bold" text-decoration="none" x="462.5" y="77.5">veraPDF Conformance Checker Shell</text><path fill="none" stroke="#000000" d="M 685.5 77.5 L 456.5 77.5" stroke-miterlimit="10"></path></g></g><g transform="translate(-248,-38) scale(1,1)"><rect fill="#C0C0C0" stroke="none" x="493" y="703" width="170" height="79" opacity="0.2"></rect></g><g transform="translate(-248,-38) scale(1,1)"><rect fill="#ffffff" stroke="none" x="486" y="696" width="170" height="79"></rect></g><g transform="translate(-248,-38) scale(1,1)"><path fill="none" stroke="#000000" d="M 486 696 L 656 696 L 656 775 L 486 775 L 486 696 Z Z" stroke-miterlimit="10"></path></g><g transform="translate(-248,-38) scale(1,1)"><rect fill="#ffffff" stroke="none" x="476" y="703" width="20" height="10"></rect></g><g transform="translate(-248,-38) scale(1,1)"><path fill="none" stroke="#000000" d="M 476 703 L 496 703 L 496 713 L 476 713 L 476 703 Z Z" stroke-miterlimit="10"></path></g><g transform="translate(-248,-38) scale(1,1)"><rect fill="#ffffff" stroke="none" x="476" y="723" width="20" height="10"></rect></g><g transform="translate(-248,-38) scale(1,1)"><path fill="none" stroke="#000000" d="M 476 723 L 496 723 L 496 733 L 476 733 L 476 723 Z Z" stroke-miterlimit="10"></path></g><g transform="translate(-248,-38) scale(1,1)"><g><path fill="none" stroke="none"></path><text fill="#000000" stroke="none" font-family="Arial" font-size="13px" font-style="normal" font-weight="bold" text-decoration="none" x="551.5" y="715.5">Reporter</text><path fill="none" stroke="#000000" d="M 602.5 715.5 L 549.5 715.5" stroke-miterlimit="10"></path></g></g><g transform="translate(-248,-38) scale(1,1)"><rect fill="#C0C0C0" stroke="none" x="505" y="391" width="150" height="83" opacity="0.2"></rect></g><g transform="translate(-248,-38) scale(1,1)"><rect fill="#ffffff" stroke="none" x="498" y="384" width="150" height="83"></rect></g><g transform="translate(-248,-38) scale(1,1)"><path fill="none" stroke="#000000" d="M 498 384 L 648 384 L 648 467 L 498 467 L 498 384 Z Z" stroke-miterlimit="10"></path></g><g transform="translate(-248,-38) scale(1,1)"><rect fill="#ffffff" stroke="none" x="488" y="391" width="20" height="10"></rect></g><g transform="translate(-248,-38) scale(1,1)"><path fill="none" stroke="#000000" d="M 488 391 L 508 391 L 508 401 L 488 401 L 488 391 Z Z" stroke-miterlimit="10"></path></g><g transform="translate(-248,-38) scale(1,1)"><rect fill="#ffffff" stroke="none" x="488" y="411" width="20" height="10"></rect></g><g transform="translate(-248,-38) scale(1,1)"><path fill="none" stroke="#000000" d="M 488 411 L 508 411 L 508 421 L 488 421 L 488 411 Z Z" stroke-miterlimit="10"></path></g><g transform="translate(-248,-38) scale(1,1)"><g><path fill="none" stroke="none"></path><text fill="#000000" stroke="none" font-family="Arial" font-size="13px" font-style="normal" font-weight="bold" text-decoration="none" x="534" y="403.5">Policy Checker</text><path fill="none" stroke="#000000" d="M 624.5 403.5 L 531.5 403.5" stroke-miterlimit="10"></path></g></g><g transform="translate(-248,-38) scale(1,1)"><path fill="#C0C0C0" stroke="none" d="M 848.7 691 L 891.82 691 L 910.3000000000001 709.48 L 910.3000000000001 768 L 848.7 768" opacity="0.2"></path></g><g transform="translate(-248,-38) scale(1,1)"><path fill="#ffffff" stroke="none" d="M 841.7 684 L 884.8199999999999 684 L 903.3 702.48 L 903.3 761 L 841.7 761"></path></g><g transform="translate(-248,-38) scale(1,1)"><path fill="none" stroke="#000000" d="M 841.7 684 L 884.8199999999999 684 L 903.3 702.48 L 903.3 761 L 841.7 761 L 841.7 684" stroke-miterlimit="10"></path></g><g transform="translate(-248,-38) scale(1,1)"><path fill="none" stroke="#000000" d="M 884.8199999999999 684 L 884.8199999999999 702.48 L 903.3 702.48 L 884.8199999999999 684" stroke-miterlimit="10"></path></g><g transform="translate(-248,-38) scale(1,1)"><g><path fill="none" stroke="none"></path><text fill="#000000" stroke="none" font-family="Arial" font-size="13px" font-style="normal" font-weight="bold" text-decoration="none" x="816" y="780.5">Reformatted Report</text><path fill="none" stroke="#000000" d="M 932.5 780.5 L 812.5 780.5" stroke-miterlimit="10"></path></g></g><g transform="translate(-248,-38) scale(1,1)"><path fill="none" stroke="#000000" d="M 657 735 L 807 735" stroke-miterlimit="10"></path></g><g transform="translate(-248,-38) scale(1,1)"><path fill="none" stroke="#000000" d="M 796.8373251423759 739.209517756016 L 807 735 L 796.8373251423758 730.790482243984" stroke-miterlimit="10"></path></g><g transform="translate(-248,-38) scale(1,1)"><g><path fill="none" stroke="none"></path><text fill="#000000" stroke="none" font-family="Arial" font-size="13px" font-style="normal" font-weight="normal" text-decoration="none" x="738" y="727">+outputs</text></g></g><g transform="translate(-248,-38) scale(1,1)"><rect fill="#C0C0C0" stroke="none" x="459" y="239" width="234" height="112" opacity="0.2"></rect></g><g transform="translate(-248,-38) scale(1,1)"><rect fill="#ffffff" stroke="none" x="452" y="232" width="234" height="112"></rect></g><g transform="translate(-248,-38) scale(1,1)"><path fill="none" stroke="#000000" d="M 452 232 L 686 232 L 686 344 L 452 344 L 452 232 Z Z" stroke-miterlimit="10"></path></g><g transform="translate(-248,-38) scale(1,1)"><rect fill="#ffffff" stroke="none" x="452" y="232" width="234" height="112"></rect></g><g transform="translate(-248,-38) scale(1,1)"><path fill="none" stroke="#000000" d="M 452 232 L 686 232 L 686 344 L 452 344 L 452 232 Z Z" stroke-miterlimit="10"></path></g><g transform="translate(-248,-38) scale(1,1)"><path fill="none" stroke="#000000" d="M 452 257 L 686 257" stroke-miterlimit="10"></path></g><g transform="translate(-248,-38) scale(1,1)"><g><path fill="none" stroke="none"></path><text fill="#000000" stroke="none" font-family="Arial" font-size="13px" font-style="normal" font-weight="bold" text-decoration="none" x="494.5" y="251.5">Machine Readable Report</text><path fill="none" stroke="#000000" d="M 648 251.5 L 490 251.5" stroke-miterlimit="10"></path></g></g><g transform="translate(-248,-38) scale(1,1)"><g><path fill="none" stroke="none"></path><text fill="#000000" stroke="none" font-family="Arial" font-size="13px" font-style="normal" font-weight="normal" text-decoration="none" x="457" y="274.5">PDF Features Report</text></g></g><g transform="translate(-248,-38) scale(1,1)"><g><path fill="none" stroke="none"></path><text fill="#000000" stroke="none" font-family="Arial" font-size="13px" font-style="normal" font-weight="normal" text-decoration="none" x="457" y="289.5">Validation Report</text></g></g><g transform="translate(-248,-38) scale(1,1)"><rect fill="#C0C0C0" stroke="none" x="495" y="115" width="170" height="76" opacity="0.2"></rect></g><g transform="translate(-248,-38) scale(1,1)"><rect fill="#ffffff" stroke="none" x="488" y="108" width="170" height="76"></rect></g><g transform="translate(-248,-38) scale(1,1)"><path fill="none" stroke="#000000" d="M 488 108 L 658 108 L 658 184 L 488 184 L 488 108 Z Z" stroke-miterlimit="10"></path></g><g transform="translate(-248,-38) scale(1,1)"><rect fill="#ffffff" stroke="none" x="478" y="115" width="20" height="10"></rect></g><g transform="translate(-248,-38) scale(1,1)"><path fill="none" stroke="#000000" d="M 478 115 L 498 115 L 498 125 L 478 125 L 478 115 Z Z" stroke-miterlimit="10"></path></g><g transform="translate(-248,-38) scale(1,1)"><rect fill="#ffffff" stroke="none" x="478" y="135" width="20" height="10"></rect></g><g transform="translate(-248,-38) scale(1,1)"><path fill="none" stroke="#000000" d="M 478 135 L 498 135 L 498 145 L 478 145 L 478 135 Z Z" stroke-miterlimit="10"></path></g><g transform="translate(-248,-38) scale(1,1)"><g><path fill="none" stroke="none"></path><text fill="#000000" stroke="none" font-family="Arial" font-size="13px" font-style="normal" font-weight="bold" text-decoration="none" x="507.5" y="127.5">Implementation Checker</text><path fill="none" stroke="#000000" d="M 653.5 127.5 L 502.5 127.5" stroke-miterlimit="10"></path></g></g><g transform="translate(-248,-38) scale(1,1)"><path fill="none" stroke="#000000" d="M 568 185 L 569 231" stroke-miterlimit="10"></path></g><g transform="translate(-248,-38) scale(1,1)"><path fill="none" stroke="#000000" d="M 564.570601050423 220.9312153193404 L 569 231 L 572.9876478921751 220.74823604017186" stroke-miterlimit="10"></path></g><g transform="translate(-248,-38) scale(1,1)"><g><path fill="none" stroke="none"></path><text fill="#000000" stroke="none" font-family="Arial" font-size="13px" font-style="normal" font-weight="normal" text-decoration="none" x="571" y="208">+report</text></g></g><g transform="translate(-248,-38) scale(1,1)"><path fill="none" stroke="#000000" d="M 569 345 L 568 383" stroke-miterlimit="10"></path></g><g transform="translate(-248,-38) scale(1,1)"><path fill="none" stroke="#000000" d="M 564.0592853332588 372.7301038021151 L 568 383 L 572.4754071800323 372.9515806928197" stroke-miterlimit="10"></path></g><g transform="translate(-248,-38) scale(1,1)"><g><path fill="none" stroke="none"></path><text fill="#000000" stroke="none" font-family="Arial" font-size="13px" font-style="normal" font-weight="normal" text-decoration="none" x="572" y="369">+check</text></g></g><g transform="translate(-248,-38) scale(1,1)"><path fill="#C0C0C0" stroke="none" d="M 289.8 99 L 333.48 99 L 352.2 117.72 L 352.2 177 L 289.8 177" opacity="0.2"></path></g><g transform="translate(-248,-38) scale(1,1)"><path fill="#ffffff" stroke="none" d="M 282.8 92 L 326.48 92 L 345.2 110.72 L 345.2 170 L 282.8 170"></path></g><g transform="translate(-248,-38) scale(1,1)"><path fill="none" stroke="#000000" d="M 282.8 92 L 326.48 92 L 345.2 110.72 L 345.2 170 L 282.8 170 L 282.8 92" stroke-miterlimit="10"></path></g><g transform="translate(-248,-38) scale(1,1)"><path fill="none" stroke="#000000" d="M 326.48 92 L 326.48 110.72 L 345.2 110.72 L 326.48 92" stroke-miterlimit="10"></path></g><g transform="translate(-248,-38) scale(1,1)"><g><path fill="none" stroke="none"></path><text fill="#000000" stroke="none" font-family="Arial" font-size="13px" font-style="normal" font-weight="bold" text-decoration="none" x="269.5" y="189.5">PDF Document</text><path fill="none" stroke="#000000" d="M 360.5 189.5 L 267.5 189.5" stroke-miterlimit="10"></path></g></g><g transform="translate(-248,-38) scale(1,1)"><path fill="none" stroke="#000000" d="M 366 144 L 477 145" stroke-miterlimit="10"></path></g><g transform="translate(-248,-38) scale(1,1)"><path fill="none" stroke="#000000" d="M 466.7998154855184 149.11779502531763 L 477 145 L 466.8756595745177 140.6991011463944" stroke-miterlimit="10"></path></g><g transform="translate(-248,-38) scale(1,1)"><g><path fill="none" stroke="none"></path><text fill="#000000" stroke="none" font-family="Arial" font-size="13px" font-style="normal" font-weight="normal" text-decoration="none" x="375" y="132">+check</text></g></g><g transform="translate(-248,-38) scale(1,1)"><rect fill="#C0C0C0" stroke="none" x="483" y="527" width="183" height="111" opacity="0.2"></rect></g><g transform="translate(-248,-38) scale(1,1)"><rect fill="#ffffff" stroke="none" x="476" y="520" width="183" height="111"></rect></g><g transform="translate(-248,-38) scale(1,1)"><path fill="none" stroke="#000000" d="M 476 520 L 659 520 L 659 631 L 476 631 L 476 520 Z Z" stroke-miterlimit="10"></path></g><g transform="translate(-248,-38) scale(1,1)"><rect fill="#ffffff" stroke="none" x="476" y="520" width="183" height="111"></rect></g><g transform="translate(-248,-38) scale(1,1)"><path fill="none" stroke="#000000" d="M 476 520 L 659 520 L 659 631 L 476 631 L 476 520 Z Z" stroke-miterlimit="10"></path></g><g transform="translate(-248,-38) scale(1,1)"><path fill="none" stroke="#000000" d="M 476 545 L 659 545" stroke-miterlimit="10"></path></g><g transform="translate(-248,-38) scale(1,1)"><g><path fill="none" stroke="none"></path><text fill="#000000" stroke="none" font-family="Arial" font-size="13px" font-style="normal" font-weight="bold" text-decoration="none" x="493" y="539.5">Machine Readable Report</text><path fill="none" stroke="#000000" d="M 646.5 539.5 L 488.5 539.5" stroke-miterlimit="10"></path></g></g><g transform="translate(-248,-38) scale(1,1)"><g><path fill="none" stroke="none"></path><text fill="#000000" stroke="none" font-family="Arial" font-size="13px" font-style="normal" font-weight="normal" text-decoration="none" x="481" y="562.5">PDF Features Report</text></g></g><g transform="translate(-248,-38) scale(1,1)"><g><path fill="none" stroke="none"></path><text fill="#000000" stroke="none" font-family="Arial" font-size="13px" font-style="normal" font-weight="normal" text-decoration="none" x="481" y="577.5">Validation Report</text></g></g><g transform="translate(-248,-38) scale(1,1)"><g><path fill="none" stroke="none"></path><text fill="#000000" stroke="none" font-family="Arial" font-size="13px" font-style="normal" font-weight="normal" text-decoration="none" x="481" y="592.5">Policy Report</text></g></g><g transform="translate(-248,-38) scale(1,1)"><path fill="none" stroke="#000000" d="M 568 468 L 567 519" stroke-miterlimit="10"></path></g><g transform="translate(-248,-38) scale(1,1)"><path fill="none" stroke="#000000" d="M 562.9905210615756 508.75675448686644 L 567 519 L 571.407938617311 508.92180188992006" stroke-miterlimit="10"></path></g><g transform="translate(-248,-38) scale(1,1)"><g><path fill="none" stroke="none"></path><text fill="#000000" stroke="none" font-family="Arial" font-size="13px" font-style="normal" font-weight="normal" text-decoration="none" x="572" y="499">+report</text></g></g><g transform="translate(-248,-38) scale(1,1)"><path fill="none" stroke="#000000" d="M 567 632 L 566 695" stroke-miterlimit="10"></path></g><g transform="translate(-248,-38) scale(1,1)"><path fill="none" stroke="#000000" d="M 561.9523044249755 684.7717958305514 L 566 695 L 570.3702795382991 684.9054144831438" stroke-miterlimit="10"></path></g><g transform="translate(-248,-38) scale(1,1)"><g><path fill="none" stroke="none"></path><text fill="#000000" stroke="none" font-family="Arial" font-size="13px" font-style="normal" font-weight="normal" text-decoration="none" x="576" y="669">+format</text></g></g><g transform="translate(-248,-38) scale(1,1)"><path fill="#C0C0C0" stroke="none" d="M 289.8 383 L 333.48 383 L 352.2 401.71999999999997 L 352.2 461 L 289.8 461" opacity="0.2"></path></g><g transform="translate(-248,-38) scale(1,1)"><path fill="#ffffff" stroke="none" d="M 282.8 376 L 326.48 376 L 345.2 394.71999999999997 L 345.2 454 L 282.8 454"></path></g><g transform="translate(-248,-38) scale(1,1)"><path fill="none" stroke="#000000" d="M 282.8 376 L 326.48 376 L 345.2 394.71999999999997 L 345.2 454 L 282.8 454 L 282.8 376" stroke-miterlimit="10"></path></g><g transform="translate(-248,-38) scale(1,1)"><path fill="none" stroke="#000000" d="M 326.48 376 L 326.48 394.71999999999997 L 345.2 394.71999999999997 L 326.48 376" stroke-miterlimit="10"></path></g><g transform="translate(-248,-38) scale(1,1)"><g><path fill="none" stroke="none"></path><text fill="#000000" stroke="none" font-family="Arial" font-size="13px" font-style="normal" font-weight="bold" text-decoration="none" x="275.5" y="473.5">Policy Profile</text><path fill="none" stroke="#000000" d="M 356 473.5 L 272 473.5" stroke-miterlimit="10"></path></g></g><g transform="translate(-248,-38) scale(1,1)"><path fill="none" stroke="#000000" d="M 371 427 L 487 426" stroke-miterlimit="10"></path></g><g transform="translate(-248,-38) scale(1,1)"><path fill="none" stroke="#000000" d="M 476.8739903452937 430.2969673576599 L 487 426 L 476.80141514965817 421.87824466393533" stroke-miterlimit="10"></path></g><g transform="translate(-248,-38) scale(1,1)"><g><path fill="none" stroke="none"></path><text fill="#000000" stroke="none" font-family="Arial" font-size="13px" font-style="normal" font-weight="normal" text-decoration="none" x="375" y="403">+assert</text></g></g></g></svg>