<svg version="1.1" xmlns="http://www.w3.org/2000/svg" xmlns:xlink="http://www.w3.org/1999/xlink" width="793" height="149"><defs></defs><g><g transform="translate(-2,-2) scale(1,1)"><rect fill="#C0C0C0" stroke="none" x="19" y="19" width="541" height="57" opacity="0.2"></rect></g><g transform="translate(-2,-2) scale(1,1)"><rect fill="#ffffff" stroke="none" x="12" y="12" width="541" height="57"></rect></g><g transform="translate(-2,-2) scale(1,1)"><path fill="none" stroke="#000000" d="M 12 12 L 553 12 L 553 69 L 12 69 L 12 12 Z Z" stroke-miterlimit="10"></path></g><g transform="translate(-2,-2) scale(1,1)"><path fill="none" stroke="#000000" d="M 12 37 L 553 37" stroke-miterlimit="10"></path></g><g transform="translate(-2,-2) scale(1,1)"><path fill="none" stroke="#000000" d="M 12 47 L 553 47" stroke-miterlimit="10"></path></g><g transform="translate(-2,-2) scale(1,1)"><g><path fill="none" stroke="none"></path><text fill="#000000" stroke="none" font-family="Arial" font-size="13px" font-style="normal" font-weight="bold" text-decoration="none" x="245" y="31.5">FileWriterRef</text></g></g><g transform="translate(-2,-2) scale(1,1)"><g><path fill="none" stroke="none"></path><text fill="#000000" stroke="none" font-family="Arial" font-size="13px" font-style="normal" font-weight="normal" text-decoration="none" x="17" y="64.5">+writeByteSequence(sequenceStream: InputStream, location: ByteSequenceLocation): void</text></g></g><g transform="translate(-2,-2) scale(1,1)"><rect fill="#C0C0C0" stroke="none" x="19" y="91" width="541" height="57" opacity="0.2"></rect></g><g transform="translate(-2,-2) scale(1,1)"><rect fill="#ffffff" stroke="none" x="12" y="84" width="541" height="57"></rect></g><g transform="translate(-2,-2) scale(1,1)"><path fill="none" stroke="#000000" d="M 12 84 L 553 84 L 553 141 L 12 141 L 12 84 Z Z" stroke-miterlimit="10"></path></g><g transform="translate(-2,-2) scale(1,1)"><path fill="none" stroke="#000000" d="M 12 109 L 553 109" stroke-miterlimit="10"></path></g><g transform="translate(-2,-2) scale(1,1)"><path fill="none" stroke="#000000" d="M 12 119 L 553 119" stroke-miterlimit="10"></path></g><g transform="translate(-2,-2) scale(1,1)"><g><path fill="none" stroke="none"></path><text fill="#000000" stroke="none" font-family="Arial" font-size="13px" font-style="normal" font-weight="bold" text-decoration="none" x="237" y="103.5">CacheWriterRef</text></g></g><g transform="translate(-2,-2) scale(1,1)"><g><path fill="none" stroke="none"></path><text fill="#000000" stroke="none" font-family="Arial" font-size="13px" font-style="normal" font-weight="normal" text-decoration="none" x="17" y="136.5">+writeByteSequence(sequenceStream: InputStream, location: ByteSequenceLocation): void</text></g></g><g transform="translate(-2,-2) scale(1,1)"><path fill="#C0C0C0" stroke="none" d="M 713.5 89.5 C 713.5 83.1487248 718.6487248 78 725 78 C 731.3512752 78 736.5 83.1487248 736.5 89.5 C 736.5 95.8512752 731.3512752 101 725 101 C 718.6487248 101 713.5 95.8512752 713.5 89.5 Z" opacity="0.2"></path></g><g transform="translate(-2,-2) scale(1,1)"><path fill="#ffffff" stroke="none" d="M 706.5 82.5 C 706.5 76.1487248 711.6487248 71 718 71 C 724.3512752 71 729.5 76.1487248 729.5 82.5 C 729.5 88.8512752 724.3512752 94 718 94 C 711.6487248 94 706.5 88.8512752 706.5 82.5 Z"></path></g><g transform="translate(-2,-2) scale(1,1)"><path fill="none" stroke="#000000" d="M 706.5 82.5 C 706.5 76.1487248 711.6487248 71 718 71 C 724.3512752 71 729.5 76.1487248 729.5 82.5 C 729.5 88.8512752 724.3512752 94 718 94 C 711.6487248 94 706.5 88.8512752 706.5 82.5 Z" stroke-miterlimit="10"></path></g><g transform="translate(-2,-2) scale(1,1)"><g><path fill="none" stroke="none"></path><text fill="#000000" stroke="none" font-family="Arial" font-size="13px" font-style="normal" font-weight="bold" text-decoration="none" x="658.5" y="113.5">ByteSequenceWriter</text></g></g><g transform="translate(-2,-2) scale(1,1)"><g><path fill="none" stroke="none"></path><text fill="#000000" stroke="none" font-family="Arial" font-size="13px" font-style="normal" font-weight="normal" text-decoration="none" x="690.5" y="128.5">(from api)</text></g></g><g transform="translate(-2,-2) scale(1,1)"><path fill="none" stroke="#000000" d="M 554 106 L 706.5 85.72058823529412" stroke-miterlimit="10"></path></g><g transform="translate(-2,-2) scale(1,1)"><path fill="none" stroke="#000000" d="M 493 70 L 706.5 83.69117647058823" stroke-miterlimit="10"></path></g></g></svg>