<svg version="1.1" xmlns="http://www.w3.org/2000/svg" xmlns:xlink="http://www.w3.org/1999/xlink" width="752" height="229"><defs></defs><g><g transform="translate(-6,2) scale(1,1)"><rect fill="#C0C0C0" stroke="none" x="23" y="15" width="410" height="57" opacity="0.2"></rect></g><g transform="translate(-6,2) scale(1,1)"><rect fill="#ffffff" stroke="none" x="16" y="8" width="410" height="57"></rect></g><g transform="translate(-6,2) scale(1,1)"><path fill="none" stroke="#000000" d="M 16 8 L 426 8 L 426 65 L 16 65 L 16 8 Z Z" stroke-miterlimit="10"></path></g><g transform="translate(-6,2) scale(1,1)"><path fill="none" stroke="#000000" d="M 16 33 L 426 33" stroke-miterlimit="10"></path></g><g transform="translate(-6,2) scale(1,1)"><path fill="none" stroke="#000000" d="M 16 43 L 426 43" stroke-miterlimit="10"></path></g><g transform="translate(-6,2) scale(1,1)"><g><path fill="none" stroke="none"></path><text fill="#000000" stroke="none" font-family="Arial" font-size="13px" font-style="normal" font-weight="bold" text-decoration="none" x="180" y="27.5">FileReaderRef</text></g></g><g transform="translate(-6,2) scale(1,1)"><g><path fill="none" stroke="none"></path><text fill="#000000" stroke="none" font-family="Arial" font-size="13px" font-style="normal" font-weight="normal" text-decoration="none" x="21" y="60.5">+streamFromLocation(location: ByteSequenceLocation): InputStream</text></g></g><g transform="translate(-6,2) scale(1,1)"><rect fill="#C0C0C0" stroke="none" x="23" y="91" width="410" height="57" opacity="0.2"></rect></g><g transform="translate(-6,2) scale(1,1)"><rect fill="#ffffff" stroke="none" x="16" y="84" width="410" height="57"></rect></g><g transform="translate(-6,2) scale(1,1)"><path fill="none" stroke="#000000" d="M 16 84 L 426 84 L 426 141 L 16 141 L 16 84 Z Z" stroke-miterlimit="10"></path></g><g transform="translate(-6,2) scale(1,1)"><path fill="none" stroke="#000000" d="M 16 109 L 426 109" stroke-miterlimit="10"></path></g><g transform="translate(-6,2) scale(1,1)"><path fill="none" stroke="#000000" d="M 16 119 L 426 119" stroke-miterlimit="10"></path></g><g transform="translate(-6,2) scale(1,1)"><g><path fill="none" stroke="none"></path><text fill="#000000" stroke="none" font-family="Arial" font-size="13px" font-style="normal" font-weight="bold" text-decoration="none" x="182.5" y="103.5">UriReaderRef</text></g></g><g transform="translate(-6,2) scale(1,1)"><g><path fill="none" stroke="none"></path><text fill="#000000" stroke="none" font-family="Arial" font-size="13px" font-style="normal" font-weight="normal" text-decoration="none" x="21" y="136.5">+streamFromLocation(location: ByteSequenceLocation): InputStream</text></g></g><g transform="translate(-6,2) scale(1,1)"><rect fill="#C0C0C0" stroke="none" x="23" y="167" width="410" height="57" opacity="0.2"></rect></g><g transform="translate(-6,2) scale(1,1)"><rect fill="#ffffff" stroke="none" x="16" y="160" width="410" height="57"></rect></g><g transform="translate(-6,2) scale(1,1)"><path fill="none" stroke="#000000" d="M 16 160 L 426 160 L 426 217 L 16 217 L 16 160 Z Z" stroke-miterlimit="10"></path></g><g transform="translate(-6,2) scale(1,1)"><path fill="none" stroke="#000000" d="M 16 185 L 426 185" stroke-miterlimit="10"></path></g><g transform="translate(-6,2) scale(1,1)"><path fill="none" stroke="#000000" d="M 16 195 L 426 195" stroke-miterlimit="10"></path></g><g transform="translate(-6,2) scale(1,1)"><g><path fill="none" stroke="none"></path><text fill="#000000" stroke="none" font-family="Arial" font-size="13px" font-style="normal" font-weight="bold" text-decoration="none" x="172" y="179.5">CacheReaderRef</text></g></g><g transform="translate(-6,2) scale(1,1)"><g><path fill="none" stroke="none"></path><text fill="#000000" stroke="none" font-family="Arial" font-size="13px" font-style="normal" font-weight="normal" text-decoration="none" x="21" y="212.5">+streamFromLocation(location: ByteSequenceLocation): InputStream</text></g></g><g transform="translate(-6,2) scale(1,1)"><path fill="#C0C0C0" stroke="none" d="M 673.5 130.5 C 673.5 124.1487248 678.6487248 119 685 119 C 691.3512752 119 696.5 124.1487248 696.5 130.5 C 696.5 136.8512752 691.3512752 142 685 142 C 678.6487248 142 673.5 136.8512752 673.5 130.5 Z" opacity="0.2"></path></g><g transform="translate(-6,2) scale(1,1)"><path fill="#ffffff" stroke="none" d="M 666.5 123.5 C 666.5 117.1487248 671.6487248 112 678 112 C 684.3512752 112 689.5 117.1487248 689.5 123.5 C 689.5 129.8512752 684.3512752 135 678 135 C 671.6487248 135 666.5 129.8512752 666.5 123.5 Z"></path></g><g transform="translate(-6,2) scale(1,1)"><path fill="none" stroke="#000000" d="M 666.5 123.5 C 666.5 117.1487248 671.6487248 112 678 112 C 684.3512752 112 689.5 117.1487248 689.5 123.5 C 689.5 129.8512752 684.3512752 135 678 135 C 671.6487248 135 666.5 129.8512752 666.5 123.5 Z" stroke-miterlimit="10"></path></g><g transform="translate(-6,2) scale(1,1)"><g><path fill="none" stroke="none"></path><text fill="#000000" stroke="none" font-family="Arial" font-size="13px" font-style="normal" font-weight="bold" text-decoration="none" x="615" y="154.5">ByteSequenceReader</text></g></g><g transform="translate(-6,2) scale(1,1)"><g><path fill="none" stroke="none"></path><text fill="#000000" stroke="none" font-family="Arial" font-size="13px" font-style="normal" font-weight="normal" text-decoration="none" x="650.5" y="169.5">(from api)</text></g></g><g transform="translate(-6,2) scale(1,1)"><path fill="none" stroke="#000000" d="M 349 66 L 666.5 123.48591549295774" stroke-miterlimit="10"></path></g><g transform="translate(-6,2) scale(1,1)"><path fill="none" stroke="#000000" d="M 427 168 L 666.5 127.37323943661971" stroke-miterlimit="10"></path></g><g transform="translate(-6,2) scale(1,1)"><path fill="none" stroke="#000000" d="M 427 126 L 666.5 125.42957746478874" stroke-miterlimit="10"></path></g></g></svg>