<svg version="1.1" xmlns="http://www.w3.org/2000/svg" xmlns:xlink="http://www.w3.org/1999/xlink" width="523" height="222"><defs></defs><g><g transform="translate(-70,2) scale(1,1)"><rect fill="#C0C0C0" stroke="none" x="87" y="15" width="239" height="115" opacity="0.2"></rect></g><g transform="translate(-70,2) scale(1,1)"><rect fill="#ffffff" stroke="none" x="80" y="8" width="239" height="115"></rect></g><g transform="translate(-70,2) scale(1,1)"><path fill="none" stroke="#000000" d="M 80 8 L 319 8 L 319 123 L 80 123 L 80 8 Z Z" stroke-miterlimit="10"></path></g><g transform="translate(-70,2) scale(1,1)"><path fill="none" stroke="#000000" d="M 80 46 L 319 46" stroke-miterlimit="10"></path></g><g transform="translate(-70,2) scale(1,1)"><path fill="none" stroke="#000000" d="M 80 114 L 319 114" stroke-miterlimit="10"></path></g><g transform="translate(-70,2) scale(1,1)"><g><path fill="none" stroke="none"></path><text fill="#000000" stroke="none" font-family="Arial" font-size="13px" font-style="normal" font-weight="normal" text-decoration="none" x="175.5" y="25.5">«Entity»</text></g></g><g transform="translate(-70,2) scale(1,1)"><g><path fill="none" stroke="none"></path><text fill="#000000" stroke="none" font-family="Arial" font-size="13px" font-style="normal" font-weight="bold" text-decoration="none" x="157" y="40.5">ByteSequence</text></g></g><g transform="translate(-70,2) scale(1,1)"><g><path fill="none" stroke="none"></path><text fill="#000000" stroke="none" font-family="Arial" font-size="13px" font-style="normal" font-weight="normal" text-decoration="none" x="85" y="63.5">+id: HexSHA1 {id, readOnly}</text></g></g><g transform="translate(-70,2) scale(1,1)"><g><path fill="none" stroke="none"></path><text fill="#000000" stroke="none" font-family="Arial" font-size="13px" font-style="normal" font-weight="normal" text-decoration="none" x="85" y="78.5">+length: Integer {readOnly}</text></g></g><g transform="translate(-70,2) scale(1,1)"><g><path fill="none" stroke="none"></path><text fill="#000000" stroke="none" font-family="Arial" font-size="13px" font-style="normal" font-weight="normal" text-decoration="none" x="85" y="93.5">+mediaType: MediaType[0..*]</text></g></g><g transform="translate(-70,2) scale(1,1)"><g><path fill="none" stroke="none"></path><text fill="#000000" stroke="none" font-family="Arial" font-size="13px" font-style="normal" font-weight="normal" text-decoration="none" x="85" y="108.5">+locations: ByteSequenceLocation[0..*]</text></g></g><g transform="translate(-70,2) scale(1,1)"><rect fill="#C0C0C0" stroke="none" x="464" y="180" width="101" height="37" opacity="0.2"></rect></g><g transform="translate(-70,2) scale(1,1)"><rect fill="#ffffff" stroke="none" x="457" y="173" width="101" height="37"></rect></g><g transform="translate(-70,2) scale(1,1)"><path fill="none" stroke="#000000" d="M 457 173 L 558 173 L 558 210 L 457 210 L 457 173 Z Z" stroke-miterlimit="10"></path></g><g transform="translate(-70,2) scale(1,1)"><g><path fill="none" stroke="none"></path><text fill="#000000" stroke="none" font-family="Arial" font-size="13px" font-style="normal" font-weight="normal" text-decoration="none" x="461.5" y="190.5">«primitiveType»</text></g></g><g transform="translate(-70,2) scale(1,1)"><g><path fill="none" stroke="none"></path><text fill="#000000" stroke="none" font-family="Arial" font-size="13px" font-style="normal" font-weight="bold" text-decoration="none" x="496.5" y="205.5">URI</text></g></g><g transform="translate(-70,2) scale(1,1)"><rect fill="#C0C0C0" stroke="none" x="225" y="180" width="101" height="37" opacity="0.2"></rect></g><g transform="translate(-70,2) scale(1,1)"><rect fill="#ffffff" stroke="none" x="218" y="173" width="101" height="37"></rect></g><g transform="translate(-70,2) scale(1,1)"><path fill="none" stroke="#000000" d="M 218 173 L 319 173 L 319 210 L 218 210 L 218 173 Z Z" stroke-miterlimit="10"></path></g><g transform="translate(-70,2) scale(1,1)"><g><path fill="none" stroke="none"></path><text fill="#000000" stroke="none" font-family="Arial" font-size="13px" font-style="normal" font-weight="normal" text-decoration="none" x="222.5" y="190.5">«primitiveType»</text></g></g><g transform="translate(-70,2) scale(1,1)"><g><path fill="none" stroke="none"></path><text fill="#000000" stroke="none" font-family="Arial" font-size="13px" font-style="normal" font-weight="bold" text-decoration="none" x="236.5" y="205.5">MediaType</text></g></g><g transform="translate(-70,2) scale(1,1)"><rect fill="#C0C0C0" stroke="none" x="87" y="180" width="101" height="37" opacity="0.2"></rect></g><g transform="translate(-70,2) scale(1,1)"><rect fill="#ffffff" stroke="none" x="80" y="173" width="101" height="37"></rect></g><g transform="translate(-70,2) scale(1,1)"><path fill="none" stroke="#000000" d="M 80 173 L 181 173 L 181 210 L 80 210 L 80 173 Z Z" stroke-miterlimit="10"></path></g><g transform="translate(-70,2) scale(1,1)"><g><path fill="none" stroke="none"></path><text fill="#000000" stroke="none" font-family="Arial" font-size="13px" font-style="normal" font-weight="normal" text-decoration="none" x="84.5" y="190.5">«primitiveType»</text></g></g><g transform="translate(-70,2) scale(1,1)"><g><path fill="none" stroke="none"></path><text fill="#000000" stroke="none" font-family="Arial" font-size="13px" font-style="normal" font-weight="bold" text-decoration="none" x="102" y="205.5">HexSHA1</text></g></g><g transform="translate(-70,2) scale(1,1)"><path fill="none" stroke="#000000" d="M 231 124 L 258 172" stroke-miterlimit="10"></path></g><g transform="translate(-70,2) scale(1,1)"><path fill="none" stroke="#000000" d="M 140 172 L 167 124" stroke-miterlimit="10"></path></g><g transform="translate(-70,2) scale(1,1)"><path fill="none" stroke="#000000" d="M 507 172 L 507 109" stroke-miterlimit="10"></path></g><g transform="translate(-70,2) scale(1,1)"><rect fill="#C0C0C0" stroke="none" x="439" y="30" width="151" height="85" opacity="0.2"></rect></g><g transform="translate(-70,2) scale(1,1)"><rect fill="#ffffff" stroke="none" x="432" y="23" width="151" height="85"></rect></g><g transform="translate(-70,2) scale(1,1)"><path fill="none" stroke="#000000" d="M 432 23 L 583 23 L 583 108 L 432 108 L 432 23 Z Z" stroke-miterlimit="10"></path></g><g transform="translate(-70,2) scale(1,1)"><path fill="none" stroke="#000000" d="M 432 61 L 583 61" stroke-miterlimit="10"></path></g><g transform="translate(-70,2) scale(1,1)"><path fill="none" stroke="#000000" d="M 432 99 L 583 99" stroke-miterlimit="10"></path></g><g transform="translate(-70,2) scale(1,1)"><g><path fill="none" stroke="none"></path><text fill="#000000" stroke="none" font-family="Arial" font-size="13px" font-style="normal" font-weight="normal" text-decoration="none" x="483.5" y="40.5">«Entity»</text></g></g><g transform="translate(-70,2) scale(1,1)"><g><path fill="none" stroke="none"></path><text fill="#000000" stroke="none" font-family="Arial" font-size="13px" font-style="normal" font-weight="bold" text-decoration="none" x="440.5" y="55.5">ByteSequenceLocation</text></g></g><g transform="translate(-70,2) scale(1,1)"><g><path fill="none" stroke="none"></path><text fill="#000000" stroke="none" font-family="Arial" font-size="13px" font-style="normal" font-weight="normal" text-decoration="none" x="437" y="78.5">+method: String[0..1]</text></g></g><g transform="translate(-70,2) scale(1,1)"><g><path fill="none" stroke="none"></path><text fill="#000000" stroke="none" font-family="Arial" font-size="13px" font-style="normal" font-weight="normal" text-decoration="none" x="437" y="93.5">+location: URI</text></g></g><g transform="translate(-70,2) scale(1,1)"><path fill="none" stroke="#000000" d="M 431 65 L 320 65" stroke-miterlimit="10"></path></g><g transform="translate(-70,2) scale(1,1)"><path fill="#FFFFFF" stroke="none" d="M 330.16267485762415 60.790482243984016 L 320 65 L 330.16267485762415 69.20951775601598 L 342 65"></path></g><g transform="translate(-70,2) scale(1,1)"><path fill="none" stroke="#000000" d="M 330.16267485762415 60.790482243984016 L 320 65 L 330.16267485762415 69.20951775601598 L 342 65 L 330.16267485762415 60.790482243984016" stroke-miterlimit="10"></path></g><g transform="translate(-70,2) scale(1,1)"><g><path fill="none" stroke="none"></path><text fill="#000000" stroke="none" font-family="Arial" font-size="13px" font-style="normal" font-weight="normal" text-decoration="none" x="399" y="59">0..*</text></g></g><g transform="translate(-70,2) scale(1,1)"><g><path fill="none" stroke="none"></path><text fill="#000000" stroke="none" font-family="Arial" font-size="13px" font-style="normal" font-weight="normal" text-decoration="none" x="331" y="59">0..*</text></g></g></g></svg>