<svg version="1.1" xmlns="http://www.w3.org/2000/svg" xmlns:xlink="http://www.w3.org/1999/xlink" width="716" height="322"><defs></defs><g><g transform="translate(-222,-114) scale(1,1)"><rect fill="#C0C0C0" stroke="none" x="654" y="301" width="271" height="132" opacity="0.2"></rect></g><g transform="translate(-222,-114) scale(1,1)"><rect fill="#C0C0C0" stroke="none" x="824" y="283" width="110" height="22" opacity="0.2"></rect></g><g transform="translate(-222,-114) scale(1,1)"><rect fill="#ffffff" stroke="none" x="647" y="294" width="271" height="132"></rect></g><g transform="translate(-222,-114) scale(1,1)"><path fill="none" stroke="#000000" d="M 647 294 L 918 294 L 918 426 L 647 426 L 647 294 Z Z" stroke-miterlimit="10"></path></g><g transform="translate(-222,-114) scale(1,1)"><path fill="none" stroke="#000000" d="M 647 334 L 918 334" stroke-miterlimit="10"></path></g><g transform="translate(-222,-114) scale(1,1)"><path fill="none" stroke="#000000" d="M 647 344 L 918 344" stroke-miterlimit="10"></path></g><g transform="translate(-222,-114) scale(1,1)"><g><path fill="none" stroke="none"></path><text fill="#000000" stroke="none" font-family="Arial" font-size="13px" font-style="normal" font-weight="bold" text-decoration="none" x="711.5" y="313.5">ByteSequenceCacheRef</text></g></g><g transform="translate(-222,-114) scale(1,1)"><g><path fill="none" stroke="none"></path><text fill="#000000" stroke="none" font-family="Arial" font-size="13px" font-style="normal" font-weight="normal" text-decoration="none" x="739" y="328.5">(from services)</text></g></g><g transform="translate(-222,-114) scale(1,1)"><g><path fill="none" stroke="none"></path><text fill="#000000" stroke="none" font-family="Arial" font-size="13px" font-style="normal" font-weight="normal" text-decoration="none" x="652" y="361.5">+addItem(toAdd: Object): HexSHA1</text></g></g><g transform="translate(-222,-114) scale(1,1)"><g><path fill="none" stroke="none"></path><text fill="#000000" stroke="none" font-family="Arial" font-size="13px" font-style="normal" font-weight="normal" text-decoration="none" x="652" y="376.5">+retrieveItem(resourceId: HexSHA1): T</text></g></g><g transform="translate(-222,-114) scale(1,1)"><g><path fill="none" stroke="none"></path><text fill="#000000" stroke="none" font-family="Arial" font-size="13px" font-style="normal" font-weight="normal" text-decoration="none" x="652" y="391.5">+hasItem(resourceId: HexSHA1): boolean</text></g></g><g transform="translate(-222,-114) scale(1,1)"><g><path fill="none" stroke="none"></path><text fill="#000000" stroke="none" font-family="Arial" font-size="13px" font-style="normal" font-weight="normal" text-decoration="none" x="652" y="406.5">+listCachedIds(): Set</text></g></g><g transform="translate(-222,-114) scale(1,1)"><g><path fill="none" stroke="none"></path><text fill="#000000" stroke="none" font-family="Arial" font-size="13px" font-style="normal" font-weight="normal" text-decoration="none" x="652" y="421.5">+clear(): void</text></g></g><g transform="translate(-222,-114) scale(1,1)"><rect fill="#ffffff" stroke="none" x="817" y="276" width="110" height="22"></rect></g><g transform="translate(-222,-114) scale(1,1)"><path fill="none" stroke="#000000" d="M 817 276 L 927 276 L 927 298 L 817 298 L 817 276 Z Z" stroke-miterlimit="10" stroke-dasharray="3"></path></g><g transform="translate(-222,-114) scale(1,1)"><g><path fill="none" stroke="none"></path><text fill="#000000" stroke="none" font-family="Arial" font-size="13px" font-style="normal" font-weight="normal" text-decoration="none" x="822" y="293.5">T: ByteSequence</text></g></g><g transform="translate(-222,-114) scale(1,1)"><rect fill="#C0C0C0" stroke="none" x="239" y="297" width="271" height="132" opacity="0.2"></rect></g><g transform="translate(-222,-114) scale(1,1)"><rect fill="#C0C0C0" stroke="none" x="439" y="279" width="80" height="22" opacity="0.2"></rect></g><g transform="translate(-222,-114) scale(1,1)"><rect fill="#ffffff" stroke="none" x="232" y="290" width="271" height="132"></rect></g><g transform="translate(-222,-114) scale(1,1)"><path fill="none" stroke="#000000" d="M 232 290 L 503 290 L 503 422 L 232 422 L 232 290 Z Z" stroke-miterlimit="10"></path></g><g transform="translate(-222,-114) scale(1,1)"><path fill="none" stroke="#000000" d="M 232 330 L 503 330" stroke-miterlimit="10"></path></g><g transform="translate(-222,-114) scale(1,1)"><path fill="none" stroke="#000000" d="M 232 340 L 503 340" stroke-miterlimit="10"></path></g><g transform="translate(-222,-114) scale(1,1)"><g><path fill="none" stroke="none"></path><text fill="#000000" stroke="none" font-family="Arial" font-size="13px" font-style="normal" font-weight="bold" text-decoration="none" x="311.5" y="309.5">ResourceCacheRef</text></g></g><g transform="translate(-222,-114) scale(1,1)"><g><path fill="none" stroke="none"></path><text fill="#000000" stroke="none" font-family="Arial" font-size="13px" font-style="normal" font-weight="normal" text-decoration="none" x="324" y="324.5">(from services)</text></g></g><g transform="translate(-222,-114) scale(1,1)"><g><path fill="none" stroke="none"></path><text fill="#000000" stroke="none" font-family="Arial" font-size="13px" font-style="normal" font-weight="normal" text-decoration="none" x="237" y="357.5">+addItem(toAdd: Object): HexSHA1</text></g></g><g transform="translate(-222,-114) scale(1,1)"><g><path fill="none" stroke="none"></path><text fill="#000000" stroke="none" font-family="Arial" font-size="13px" font-style="normal" font-weight="normal" text-decoration="none" x="237" y="372.5">+retrieveItem(resourceId: HexSHA1): T</text></g></g><g transform="translate(-222,-114) scale(1,1)"><g><path fill="none" stroke="none"></path><text fill="#000000" stroke="none" font-family="Arial" font-size="13px" font-style="normal" font-weight="normal" text-decoration="none" x="237" y="387.5">+hasItem(resourceId: HexSHA1): boolean</text></g></g><g transform="translate(-222,-114) scale(1,1)"><g><path fill="none" stroke="none"></path><text fill="#000000" stroke="none" font-family="Arial" font-size="13px" font-style="normal" font-weight="normal" text-decoration="none" x="237" y="402.5">+listCachedIds(): Set</text></g></g><g transform="translate(-222,-114) scale(1,1)"><g><path fill="none" stroke="none"></path><text fill="#000000" stroke="none" font-family="Arial" font-size="13px" font-style="normal" font-weight="normal" text-decoration="none" x="237" y="417.5">+clear(): void</text></g></g><g transform="translate(-222,-114) scale(1,1)"><rect fill="#ffffff" stroke="none" x="432" y="272" width="80" height="22"></rect></g><g transform="translate(-222,-114) scale(1,1)"><path fill="none" stroke="#000000" d="M 432 272 L 512 272 L 512 294 L 432 294 L 432 272 Z Z" stroke-miterlimit="10" stroke-dasharray="3"></path></g><g transform="translate(-222,-114) scale(1,1)"><g><path fill="none" stroke="none"></path><text fill="#000000" stroke="none" font-family="Arial" font-size="13px" font-style="normal" font-weight="normal" text-decoration="none" x="437" y="289.5">T: Resource</text></g></g><g transform="translate(-222,-114) scale(1,1)"><path fill="#C0C0C0" stroke="none" d="M 579.5 142.5 C 579.5 136.1487248 584.6487248 131 591 131 C 597.3512752 131 602.5 136.1487248 602.5 142.5 C 602.5 148.8512752 597.3512752 154 591 154 C 584.6487248 154 579.5 148.8512752 579.5 142.5 Z" opacity="0.2"></path></g><g transform="translate(-222,-114) scale(1,1)"><path fill="#ffffff" stroke="none" d="M 572.5 135.5 C 572.5 129.1487248 577.6487248 124 584 124 C 590.3512752 124 595.5 129.1487248 595.5 135.5 C 595.5 141.8512752 590.3512752 147 584 147 C 577.6487248 147 572.5 141.8512752 572.5 135.5 Z"></path></g><g transform="translate(-222,-114) scale(1,1)"><path fill="none" stroke="#000000" d="M 572.5 135.5 C 572.5 129.1487248 577.6487248 124 584 124 C 590.3512752 124 595.5 129.1487248 595.5 135.5 C 595.5 141.8512752 590.3512752 147 584 147 C 577.6487248 147 572.5 141.8512752 572.5 135.5 Z" stroke-miterlimit="10"></path></g><g transform="translate(-222,-114) scale(1,1)"><g><path fill="none" stroke="none"></path><text fill="#000000" stroke="none" font-family="Arial" font-size="13px" font-style="normal" font-weight="bold" text-decoration="none" x="565.5" y="166.5">Cache</text></g></g><g transform="translate(-222,-114) scale(1,1)"><g><path fill="none" stroke="none"></path><text fill="#000000" stroke="none" font-family="Arial" font-size="13px" font-style="normal" font-weight="normal" text-decoration="none" x="540.5" y="181.5">(from services)</text></g></g><g transform="translate(-222,-114) scale(1,1)"><path fill="none" stroke="#000000" d="M 708 275 L 591.6981132075472 147" stroke-miterlimit="10"></path></g><g transform="translate(-222,-114) scale(1,1)"><path fill="none" stroke="#000000" d="M 456 271 L 575.8490566037735 147" stroke-miterlimit="10"></path></g></g></svg>