<svg version="1.1" xmlns="http://www.w3.org/2000/svg" xmlns:xlink="http://www.w3.org/1999/xlink" width="760" height="920"><defs></defs><g><g transform="translate(-134,10) scale(1,1)"><path fill="#C0C0C0" stroke="none" d="M 339 17 L 880 17 L 880 906 L 339 906" opacity="0.2"></path></g><g transform="translate(-134,10) scale(1,1)"><path fill="#C0C0C0" stroke="none" d="M 339 17 L 349 7 L 890 7 L 880 17" opacity="0.2"></path></g><g transform="translate(-134,10) scale(1,1)"><path fill="#C0C0C0" stroke="none" d="M 890 7 L 880 17 L 880 906 L 890 896" opacity="0.2"></path></g><g transform="translate(-134,10) scale(1,1)"><path fill="#ffffff" stroke="none" d="M 332 10 L 873 10 L 873 899 L 332 899"></path></g><g transform="translate(-134,10) scale(1,1)"><path fill="#ffffff" stroke="none" d="M 332 10 L 342 0 L 883 0 L 873 10"></path></g><g transform="translate(-134,10) scale(1,1)"><path fill="#ffffff" stroke="none" d="M 883 0 L 873 10 L 873 899 L 883 889"></path></g><g transform="translate(-134,10) scale(1,1)"><path fill="none" stroke="#000000" d="M 332 10 L 873 10 L 873 899 L 332 899 L 332 10" stroke-miterlimit="10"></path></g><g transform="translate(-134,10) scale(1,1)"><path fill="none" stroke="#000000" d="M 332 10 L 342 0 L 883 0 L 873 10 L 332 10" stroke-miterlimit="10"></path></g><g transform="translate(-134,10) scale(1,1)"><path fill="none" stroke="#000000" d="M 883 0 L 873 10 L 873 899 L 883 889 L 883 0" stroke-miterlimit="10"></path></g><g transform="translate(-134,10) scale(1,1)"><g><path fill="none" stroke="none"></path><text fill="#000000" stroke="none" font-family="Arial" font-size="13px" font-style="normal" font-weight="bold" text-decoration="none" x="494.5" y="29.5">veraPDF Conformance Checker Shell</text><path fill="none" stroke="#000000" d="M 717.5 29.5 L 488.5 29.5" stroke-miterlimit="10"></path></g></g><g transform="translate(-134,10) scale(1,1)"><rect fill="#C0C0C0" stroke="none" x="383" y="106" width="157" height="56" opacity="0.2"></rect></g><g transform="translate(-134,10) scale(1,1)"><rect fill="#ffffff" stroke="none" x="376" y="99" width="157" height="56"></rect></g><g transform="translate(-134,10) scale(1,1)"><path fill="none" stroke="#000000" d="M 376 99 L 533 99 L 533 155 L 376 155 L 376 99 Z Z" stroke-miterlimit="10"></path></g><g transform="translate(-134,10) scale(1,1)"><rect fill="#ffffff" stroke="none" x="366" y="106" width="20" height="10"></rect></g><g transform="translate(-134,10) scale(1,1)"><path fill="none" stroke="#000000" d="M 366 106 L 386 106 L 386 116 L 366 116 L 366 106 Z Z" stroke-miterlimit="10"></path></g><g transform="translate(-134,10) scale(1,1)"><rect fill="#ffffff" stroke="none" x="366" y="126" width="20" height="10"></rect></g><g transform="translate(-134,10) scale(1,1)"><path fill="none" stroke="#000000" d="M 366 126 L 386 126 L 386 136 L 366 136 L 366 126 Z Z" stroke-miterlimit="10"></path></g><g transform="translate(-134,10) scale(1,1)"><g><path fill="none" stroke="none"></path><text fill="#000000" stroke="none" font-family="Arial" font-size="13px" font-style="normal" font-weight="bold" text-decoration="none" x="425.5" y="118.5">PDF Parser</text><path fill="none" stroke="#000000" d="M 494.5 118.5 L 424.5 118.5" stroke-miterlimit="10"></path></g></g><g transform="translate(-134,10) scale(1,1)"><rect fill="#C0C0C0" stroke="none" x="640" y="106" width="192" height="56" opacity="0.2"></rect></g><g transform="translate(-134,10) scale(1,1)"><rect fill="#ffffff" stroke="none" x="633" y="99" width="192" height="56"></rect></g><g transform="translate(-134,10) scale(1,1)"><path fill="none" stroke="#000000" d="M 633 99 L 825 99 L 825 155 L 633 155 L 633 99 Z Z" stroke-miterlimit="10"></path></g><g transform="translate(-134,10) scale(1,1)"><rect fill="#ffffff" stroke="none" x="623" y="106" width="20" height="10"></rect></g><g transform="translate(-134,10) scale(1,1)"><path fill="none" stroke="#000000" d="M 623 106 L 643 106 L 643 116 L 623 116 L 623 106 Z Z" stroke-miterlimit="10"></path></g><g transform="translate(-134,10) scale(1,1)"><rect fill="#ffffff" stroke="none" x="623" y="126" width="20" height="10"></rect></g><g transform="translate(-134,10) scale(1,1)"><path fill="none" stroke="#000000" d="M 623 126 L 643 126 L 643 136 L 623 136 L 623 126 Z Z" stroke-miterlimit="10"></path></g><g transform="translate(-134,10) scale(1,1)"><g><path fill="none" stroke="none"></path><text fill="#000000" stroke="none" font-family="Arial" font-size="13px" font-style="normal" font-weight="bold" text-decoration="none" x="652.5" y="118.5">Embedded Resource Parser</text><path fill="none" stroke="#000000" d="M 820.5 118.5 L 647.5 118.5" stroke-miterlimit="10"></path></g></g><g transform="translate(-134,10) scale(1,1)"><rect fill="#C0C0C0" stroke="none" x="643" y="359" width="172" height="64" opacity="0.2"></rect></g><g transform="translate(-134,10) scale(1,1)"><rect fill="#ffffff" stroke="none" x="636" y="352" width="172" height="64"></rect></g><g transform="translate(-134,10) scale(1,1)"><path fill="none" stroke="#000000" d="M 636 352 L 808 352 L 808 416 L 636 416 L 636 352 Z Z" stroke-miterlimit="10"></path></g><g transform="translate(-134,10) scale(1,1)"><rect fill="#ffffff" stroke="none" x="636" y="352" width="172" height="64"></rect></g><g transform="translate(-134,10) scale(1,1)"><path fill="none" stroke="#000000" d="M 636 352 L 808 352 L 808 416 L 636 416 L 636 352 Z Z" stroke-miterlimit="10"></path></g><g transform="translate(-134,10) scale(1,1)"><path fill="none" stroke="#000000" d="M 636 377 L 808 377" stroke-miterlimit="10"></path></g><g transform="translate(-134,10) scale(1,1)"><g><path fill="none" stroke="none"></path><text fill="#000000" stroke="none" font-family="Arial" font-size="13px" font-style="normal" font-weight="bold" text-decoration="none" x="647.5" y="371.5">Machine Readable Report</text><path fill="none" stroke="#000000" d="M 801 371.5 L 643 371.5" stroke-miterlimit="10"></path></g></g><g transform="translate(-134,10) scale(1,1)"><g><path fill="none" stroke="none"></path><text fill="#000000" stroke="none" font-family="Arial" font-size="13px" font-style="normal" font-weight="normal" text-decoration="none" x="641" y="394.5">Embedded Resource Report</text></g></g><g transform="translate(-134,10) scale(1,1)"><rect fill="#C0C0C0" stroke="none" x="376" y="223" width="170" height="76" opacity="0.2"></rect></g><g transform="translate(-134,10) scale(1,1)"><rect fill="#ffffff" stroke="none" x="369" y="216" width="170" height="76"></rect></g><g transform="translate(-134,10) scale(1,1)"><path fill="none" stroke="#000000" d="M 369 216 L 539 216 L 539 292 L 369 292 L 369 216 Z Z" stroke-miterlimit="10"></path></g><g transform="translate(-134,10) scale(1,1)"><rect fill="#ffffff" stroke="none" x="359" y="223" width="20" height="10"></rect></g><g transform="translate(-134,10) scale(1,1)"><path fill="none" stroke="#000000" d="M 359 223 L 379 223 L 379 233 L 359 233 L 359 223 Z Z" stroke-miterlimit="10"></path></g><g transform="translate(-134,10) scale(1,1)"><rect fill="#ffffff" stroke="none" x="359" y="243" width="20" height="10"></rect></g><g transform="translate(-134,10) scale(1,1)"><path fill="none" stroke="#000000" d="M 359 243 L 379 243 L 379 253 L 359 253 L 359 243 Z Z" stroke-miterlimit="10"></path></g><g transform="translate(-134,10) scale(1,1)"><g><path fill="none" stroke="none"></path><text fill="#000000" stroke="none" font-family="Arial" font-size="13px" font-style="normal" font-weight="bold" text-decoration="none" x="388.5" y="235.5">Implementation Checker</text><path fill="none" stroke="#000000" d="M 534.5 235.5 L 383.5 235.5" stroke-miterlimit="10"></path></g></g><g transform="translate(-134,10) scale(1,1)"><rect fill="#C0C0C0" stroke="none" x="373" y="359" width="167" height="72" opacity="0.2"></rect></g><g transform="translate(-134,10) scale(1,1)"><rect fill="#ffffff" stroke="none" x="366" y="352" width="167" height="72"></rect></g><g transform="translate(-134,10) scale(1,1)"><path fill="none" stroke="#000000" d="M 366 352 L 533 352 L 533 424 L 366 424 L 366 352 Z Z" stroke-miterlimit="10"></path></g><g transform="translate(-134,10) scale(1,1)"><rect fill="#ffffff" stroke="none" x="366" y="352" width="167" height="72"></rect></g><g transform="translate(-134,10) scale(1,1)"><path fill="none" stroke="#000000" d="M 366 352 L 533 352 L 533 424 L 366 424 L 366 352 Z Z" stroke-miterlimit="10"></path></g><g transform="translate(-134,10) scale(1,1)"><path fill="none" stroke="#000000" d="M 366 377 L 533 377" stroke-miterlimit="10"></path></g><g transform="translate(-134,10) scale(1,1)"><g><path fill="none" stroke="none"></path><text fill="#000000" stroke="none" font-family="Arial" font-size="13px" font-style="normal" font-weight="bold" text-decoration="none" x="375" y="371.5">Machine Readable Report</text><path fill="none" stroke="#000000" d="M 528.5 371.5 L 370.5 371.5" stroke-miterlimit="10"></path></g></g><g transform="translate(-134,10) scale(1,1)"><g><path fill="none" stroke="none"></path><text fill="#000000" stroke="none" font-family="Arial" font-size="13px" font-style="normal" font-weight="normal" text-decoration="none" x="371" y="394.5">PDF Features Report</text></g></g><g transform="translate(-134,10) scale(1,1)"><g><path fill="none" stroke="none"></path><text fill="#000000" stroke="none" font-family="Arial" font-size="13px" font-style="normal" font-weight="normal" text-decoration="none" x="371" y="409.5">Validation Report</text></g></g><g transform="translate(-134,10) scale(1,1)"><rect fill="#C0C0C0" stroke="none" x="386" y="487" width="150" height="83" opacity="0.2"></rect></g><g transform="translate(-134,10) scale(1,1)"><rect fill="#ffffff" stroke="none" x="379" y="480" width="150" height="83"></rect></g><g transform="translate(-134,10) scale(1,1)"><path fill="none" stroke="#000000" d="M 379 480 L 529 480 L 529 563 L 379 563 L 379 480 Z Z" stroke-miterlimit="10"></path></g><g transform="translate(-134,10) scale(1,1)"><rect fill="#ffffff" stroke="none" x="369" y="487" width="20" height="10"></rect></g><g transform="translate(-134,10) scale(1,1)"><path fill="none" stroke="#000000" d="M 369 487 L 389 487 L 389 497 L 369 497 L 369 487 Z Z" stroke-miterlimit="10"></path></g><g transform="translate(-134,10) scale(1,1)"><rect fill="#ffffff" stroke="none" x="369" y="507" width="20" height="10"></rect></g><g transform="translate(-134,10) scale(1,1)"><path fill="none" stroke="#000000" d="M 369 507 L 389 507 L 389 517 L 369 517 L 369 507 Z Z" stroke-miterlimit="10"></path></g><g transform="translate(-134,10) scale(1,1)"><g><path fill="none" stroke="none"></path><text fill="#000000" stroke="none" font-family="Arial" font-size="13px" font-style="normal" font-weight="bold" text-decoration="none" x="415" y="499.5">Policy Checker</text><path fill="none" stroke="#000000" d="M 505.5 499.5 L 412.5 499.5" stroke-miterlimit="10"></path></g></g><g transform="translate(-134,10) scale(1,1)"><path fill="#C0C0C0" stroke="none" d="M 183.8 479 L 227.48000000000002 479 L 246.20000000000002 497.72 L 246.20000000000002 557 L 183.8 557" opacity="0.2"></path></g><g transform="translate(-134,10) scale(1,1)"><path fill="#ffffff" stroke="none" d="M 176.8 472 L 220.48 472 L 239.2 490.71999999999997 L 239.2 550 L 176.8 550"></path></g><g transform="translate(-134,10) scale(1,1)"><path fill="none" stroke="#000000" d="M 176.8 472 L 220.48 472 L 239.2 490.71999999999997 L 239.2 550 L 176.8 550 L 176.8 472" stroke-miterlimit="10"></path></g><g transform="translate(-134,10) scale(1,1)"><path fill="none" stroke="#000000" d="M 220.48 472 L 220.48 490.71999999999997 L 239.2 490.71999999999997 L 220.48 472" stroke-miterlimit="10"></path></g><g transform="translate(-134,10) scale(1,1)"><g><path fill="none" stroke="none"></path><text fill="#000000" stroke="none" font-family="Arial" font-size="13px" font-style="normal" font-weight="bold" text-decoration="none" x="169.5" y="569.5">Policy Profile</text><path fill="none" stroke="#000000" d="M 250 569.5 L 166 569.5" stroke-miterlimit="10"></path></g></g><g transform="translate(-134,10) scale(1,1)"><rect fill="#C0C0C0" stroke="none" x="370" y="623" width="172" height="115" opacity="0.2"></rect></g><g transform="translate(-134,10) scale(1,1)"><rect fill="#ffffff" stroke="none" x="363" y="616" width="172" height="115"></rect></g><g transform="translate(-134,10) scale(1,1)"><path fill="none" stroke="#000000" d="M 363 616 L 535 616 L 535 731 L 363 731 L 363 616 Z Z" stroke-miterlimit="10"></path></g><g transform="translate(-134,10) scale(1,1)"><rect fill="#ffffff" stroke="none" x="363" y="616" width="172" height="115"></rect></g><g transform="translate(-134,10) scale(1,1)"><path fill="none" stroke="#000000" d="M 363 616 L 535 616 L 535 731 L 363 731 L 363 616 Z Z" stroke-miterlimit="10"></path></g><g transform="translate(-134,10) scale(1,1)"><path fill="none" stroke="#000000" d="M 363 641 L 535 641" stroke-miterlimit="10"></path></g><g transform="translate(-134,10) scale(1,1)"><g><path fill="none" stroke="none"></path><text fill="#000000" stroke="none" font-family="Arial" font-size="13px" font-style="normal" font-weight="bold" text-decoration="none" x="374.5" y="635.5">Machine Readable Report</text><path fill="none" stroke="#000000" d="M 528 635.5 L 370 635.5" stroke-miterlimit="10"></path></g></g><g transform="translate(-134,10) scale(1,1)"><g><path fill="none" stroke="none"></path><text fill="#000000" stroke="none" font-family="Arial" font-size="13px" font-style="normal" font-weight="normal" text-decoration="none" x="368" y="658.5">PDF Features Report</text></g></g><g transform="translate(-134,10) scale(1,1)"><g><path fill="none" stroke="none"></path><text fill="#000000" stroke="none" font-family="Arial" font-size="13px" font-style="normal" font-weight="normal" text-decoration="none" x="368" y="673.5">Validation Report</text></g></g><g transform="translate(-134,10) scale(1,1)"><g><path fill="none" stroke="none"></path><text fill="#000000" stroke="none" font-family="Arial" font-size="13px" font-style="normal" font-weight="normal" text-decoration="none" x="368" y="688.5">Embedded Resource Report</text></g></g><g transform="translate(-134,10) scale(1,1)"><g><path fill="none" stroke="none"></path><text fill="#000000" stroke="none" font-family="Arial" font-size="13px" font-style="normal" font-weight="normal" text-decoration="none" x="368" y="703.5">Policy Report</text></g></g><g transform="translate(-134,10) scale(1,1)"><path fill="#C0C0C0" stroke="none" d="M 184.7 787 L 227.82 787 L 246.29999999999998 805.48 L 246.29999999999998 864 L 184.7 864" opacity="0.2"></path></g><g transform="translate(-134,10) scale(1,1)"><path fill="#ffffff" stroke="none" d="M 177.7 780 L 220.82 780 L 239.3 798.48 L 239.3 857 L 177.7 857"></path></g><g transform="translate(-134,10) scale(1,1)"><path fill="none" stroke="#000000" d="M 177.7 780 L 220.82 780 L 239.3 798.48 L 239.3 857 L 177.7 857 L 177.7 780" stroke-miterlimit="10"></path></g><g transform="translate(-134,10) scale(1,1)"><path fill="none" stroke="#000000" d="M 220.82 780 L 220.82 798.48 L 239.3 798.48 L 220.82 780" stroke-miterlimit="10"></path></g><g transform="translate(-134,10) scale(1,1)"><g><path fill="none" stroke="none"></path><text fill="#000000" stroke="none" font-family="Arial" font-size="13px" font-style="normal" font-weight="bold" text-decoration="none" x="152" y="876.5">Reformatted Report</text><path fill="none" stroke="#000000" d="M 268.5 876.5 L 148.5 876.5" stroke-miterlimit="10"></path></g></g><g transform="translate(-134,10) scale(1,1)"><path fill="none" stroke="#000000" d="M 534 127 L 622 127" stroke-miterlimit="10"></path></g><g transform="translate(-134,10) scale(1,1)"><path fill="none" stroke="#000000" d="M 611.8373251423759 131.209517756016 L 622 127 L 611.8373251423758 122.79048224398402" stroke-miterlimit="10"></path></g><g transform="translate(-134,10) scale(1,1)"><g><path fill="none" stroke="none"></path><text fill="#000000" stroke="none" font-family="Arial" font-size="13px" font-style="normal" font-weight="normal" text-decoration="none" x="516" y="92">+embedded resource</text></g></g><g transform="translate(-134,10) scale(1,1)"><path fill="none" stroke="#000000" d="M 449 293 L 449 351" stroke-miterlimit="10"></path></g><g transform="translate(-134,10) scale(1,1)"><path fill="none" stroke="#000000" d="M 444.790482243984 340.83732514237585 L 449 351 L 453.209517756016 340.83732514237585" stroke-miterlimit="10"></path></g><g transform="translate(-134,10) scale(1,1)"><g><path fill="none" stroke="none"></path><text fill="#000000" stroke="none" font-family="Arial" font-size="13px" font-style="normal" font-weight="normal" text-decoration="none" x="453" y="327">+reports</text></g></g><g transform="translate(-134,10) scale(1,1)"><path fill="none" stroke="#000000" d="M 449 425 L 449 479" stroke-miterlimit="10"></path></g><g transform="translate(-134,10) scale(1,1)"><path fill="none" stroke="#000000" d="M 444.790482243984 468.83732514237585 L 449 479 L 453.209517756016 468.83732514237585" stroke-miterlimit="10"></path></g><g transform="translate(-134,10) scale(1,1)"><g><path fill="none" stroke="none"></path><text fill="#000000" stroke="none" font-family="Arial" font-size="13px" font-style="normal" font-weight="normal" text-decoration="none" x="462" y="457">+check</text></g></g><g transform="translate(-134,10) scale(1,1)"><path fill="none" stroke="#000000" d="M 449 564 L 449 615" stroke-miterlimit="10"></path></g><g transform="translate(-134,10) scale(1,1)"><path fill="none" stroke="#000000" d="M 444.790482243984 604.8373251423759 L 449 615 L 453.209517756016 604.8373251423759" stroke-miterlimit="10"></path></g><g transform="translate(-134,10) scale(1,1)"><g><path fill="none" stroke="none"></path><text fill="#000000" stroke="none" font-family="Arial" font-size="13px" font-style="normal" font-weight="normal" text-decoration="none" x="465" y="595">+reports</text></g></g><g transform="translate(-134,10) scale(1,1)"><path fill="none" stroke="#000000" d="M 265 523 L 368 522" stroke-miterlimit="10"></path></g><g transform="translate(-134,10) scale(1,1)"><path fill="none" stroke="#000000" d="M 357.8786712517165 526.3079814727051 L 368 522 L 357.7969368948946 517.8893427200462" stroke-miterlimit="10"></path></g><g transform="translate(-134,10) scale(1,1)"><g><path fill="none" stroke="none"></path><text fill="#000000" stroke="none" font-family="Arial" font-size="13px" font-style="normal" font-weight="normal" text-decoration="none" x="269" y="513">+asserts</text></g></g><g transform="translate(-134,10) scale(1,1)"><path fill="none" stroke="#000000" d="M 724 156 L 722 351" stroke-miterlimit="10"></path></g><g transform="translate(-134,10) scale(1,1)"><path fill="none" stroke="#000000" d="M 717.8949307151777 340.7946873557539 L 722 351 L 726.3135234463367 340.88103189658636" stroke-miterlimit="10"></path></g><g transform="translate(-134,10) scale(1,1)"><g><path fill="none" stroke="none"></path><text fill="#000000" stroke="none" font-family="Arial" font-size="13px" font-style="normal" font-weight="normal" text-decoration="none" x="730" y="257">+reports</text></g></g><g transform="translate(-134,10) scale(1,1)"><path fill="none" stroke="#000000" d="M 722 417 L 724 520 L 530 521" stroke-miterlimit="10"></path></g><g transform="translate(-134,10) scale(1,1)"><path fill="none" stroke="#000000" d="M 540.1408415907578 516.7381539409363 L 530 521 L 540.1842381045005 525.1570776070263" stroke-miterlimit="10"></path></g><g transform="translate(-134,10) scale(1,1)"><g><path fill="none" stroke="none"></path><text fill="#000000" stroke="none" font-family="Arial" font-size="13px" font-style="normal" font-weight="normal" text-decoration="none" x="726" y="476">+checks</text></g></g><g transform="translate(-134,10) scale(1,1)"><path fill="none" stroke="#000000" d="M 449 156 L 449 215" stroke-miterlimit="10"></path></g><g transform="translate(-134,10) scale(1,1)"><path fill="none" stroke="#000000" d="M 444.790482243984 204.83732514237585 L 449 215 L 453.209517756016 204.83732514237585" stroke-miterlimit="10"></path></g><g transform="translate(-134,10) scale(1,1)"><g><path fill="none" stroke="none"></path><text fill="#000000" stroke="none" font-family="Arial" font-size="13px" font-style="normal" font-weight="normal" text-decoration="none" x="457" y="191">+reports</text></g></g></g></svg>