<svg version="1.1" xmlns="http://www.w3.org/2000/svg" xmlns:xlink="http://www.w3.org/1999/xlink" width="530" height="175"><defs></defs><g><g transform="translate(6,-42) scale(1,1)"><path fill="#C0C0C0" stroke="none" d="M 456.5 162.5 C 456.5 156.1487248 461.6487248 151 468 151 C 474.3512752 151 479.5 156.1487248 479.5 162.5 C 479.5 168.8512752 474.3512752 174 468 174 C 461.6487248 174 456.5 168.8512752 456.5 162.5 Z" opacity="0.2"></path></g><g transform="translate(6,-42) scale(1,1)"><path fill="#ffffff" stroke="none" d="M 449.5 155.5 C 449.5 149.1487248 454.6487248 144 461 144 C 467.3512752 144 472.5 149.1487248 472.5 155.5 C 472.5 161.8512752 467.3512752 167 461 167 C 454.6487248 167 449.5 161.8512752 449.5 155.5 Z"></path></g><g transform="translate(6,-42) scale(1,1)"><path fill="none" stroke="#000000" d="M 449.5 155.5 C 449.5 149.1487248 454.6487248 144 461 144 C 467.3512752 144 472.5 149.1487248 472.5 155.5 C 472.5 161.8512752 467.3512752 167 461 167 C 454.6487248 167 449.5 161.8512752 449.5 155.5 Z" stroke-miterlimit="10"></path></g><g transform="translate(6,-42) scale(1,1)"><g><path fill="none" stroke="none"></path><text fill="#000000" stroke="none" font-family="Arial" font-size="13px" font-style="normal" font-weight="bold" text-decoration="none" x="415.5" y="186.5">IdentiferService</text></g></g><g transform="translate(6,-42) scale(1,1)"><g><path fill="none" stroke="none"></path><text fill="#000000" stroke="none" font-family="Arial" font-size="13px" font-style="normal" font-weight="normal" text-decoration="none" x="417.5" y="201.5">(from services)</text></g></g><g transform="translate(6,-42) scale(1,1)"><rect fill="#C0C0C0" stroke="none" x="11" y="59" width="363" height="132" opacity="0.2"></rect></g><g transform="translate(6,-42) scale(1,1)"><rect fill="#ffffff" stroke="none" x="4" y="52" width="363" height="132"></rect></g><g transform="translate(6,-42) scale(1,1)"><path fill="none" stroke="#000000" d="M 4 52 L 367 52 L 367 184 L 4 184 L 4 52 Z Z" stroke-miterlimit="10"></path></g><g transform="translate(6,-42) scale(1,1)"><path fill="none" stroke="#000000" d="M 4 92 L 367 92" stroke-miterlimit="10"></path></g><g transform="translate(6,-42) scale(1,1)"><path fill="none" stroke="#000000" d="M 4 102 L 367 102" stroke-miterlimit="10"></path></g><g transform="translate(6,-42) scale(1,1)"><g><path fill="none" stroke="none"></path><text fill="#000000" stroke="none" font-family="Arial" font-size="13px" font-style="normal" font-weight="bold" text-decoration="none" x="130" y="71.5">IdentiferServiceRef</text></g></g><g transform="translate(6,-42) scale(1,1)"><g><path fill="none" stroke="none"></path><text fill="#000000" stroke="none" font-family="Arial" font-size="13px" font-style="normal" font-weight="normal" text-decoration="none" x="142" y="86.5">(from services)</text></g></g><g transform="translate(6,-42) scale(1,1)"><g><path fill="none" stroke="none"></path><text fill="#000000" stroke="none" font-family="Arial" font-size="13px" font-style="normal" font-weight="normal" text-decoration="none" x="9" y="119.5">+determineSha1Id(toIdentify: InputStream): HexSHA1</text></g></g><g transform="translate(6,-42) scale(1,1)"><g><path fill="none" stroke="none"></path><text fill="#000000" stroke="none" font-family="Arial" font-size="13px" font-style="normal" font-weight="normal" text-decoration="none" x="9" y="134.5">+determineSha1Id(toIdentify: File): HexSHA1</text></g></g><g transform="translate(6,-42) scale(1,1)"><g><path fill="none" stroke="none"></path><text fill="#000000" stroke="none" font-family="Arial" font-size="13px" font-style="normal" font-weight="normal" text-decoration="none" x="9" y="149.5">+determineSha1Id(toIdentify: URI): HexSHA1</text></g></g><g transform="translate(6,-42) scale(1,1)"><g><path fill="none" stroke="none"></path><text fill="#000000" stroke="none" font-family="Arial" font-size="13px" font-style="normal" font-weight="normal" text-decoration="none" x="9" y="164.5">+determineSha1Id(toIdentify: ByteSequence): ByteSequence</text></g></g><g transform="translate(6,-42) scale(1,1)"><g><path fill="none" stroke="none"></path><text fill="#000000" stroke="none" font-family="Arial" font-size="13px" font-style="normal" font-weight="normal" text-decoration="none" x="9" y="179.5">+getNullId(): HexSHA1</text></g></g><g transform="translate(6,-42) scale(1,1)"><path fill="none" stroke="#000000" d="M 368 156 L 449.5 156.91666666666666" stroke-miterlimit="10"></path></g></g></svg>