<svg version="1.1" xmlns="http://www.w3.org/2000/svg" xmlns:xlink="http://www.w3.org/1999/xlink" width="676" height="167"><defs></defs><g><g transform="translate(-14,-22) scale(1,1)"><rect fill="#C0C0C0" stroke="none" x="31" y="39" width="446" height="147" opacity="0.2"></rect></g><g transform="translate(-14,-22) scale(1,1)"><rect fill="#ffffff" stroke="none" x="24" y="32" width="446" height="147"></rect></g><g transform="translate(-14,-22) scale(1,1)"><path fill="none" stroke="#000000" d="M 24 32 L 470 32 L 470 179 L 24 179 L 24 32 Z Z" stroke-miterlimit="10"></path></g><g transform="translate(-14,-22) scale(1,1)"><path fill="none" stroke="#000000" d="M 24 57 L 470 57" stroke-miterlimit="10"></path></g><g transform="translate(-14,-22) scale(1,1)"><path fill="none" stroke="#000000" d="M 24 67 L 470 67" stroke-miterlimit="10"></path></g><g transform="translate(-14,-22) scale(1,1)"><g><path fill="none" stroke="none"></path><text fill="#000000" stroke="none" font-family="Arial" font-size="13px" font-style="italic" font-weight="bold" text-decoration="none" x="154" y="51.5">AbstractImplementationChecker</text></g></g><g transform="translate(-14,-22) scale(1,1)"><g><path fill="none" stroke="none"></path><text fill="#000000" stroke="none" font-family="Arial" font-size="13px" font-style="normal" font-weight="normal" text-decoration="none" x="29" y="84.5">+getComponentDetails(): ComponentDetails</text></g></g><g transform="translate(-14,-22) scale(1,1)"><g><path fill="none" stroke="none"></path><text fill="#000000" stroke="none" font-family="Arial" font-size="13px" font-style="normal" font-weight="normal" text-decoration="none" x="29" y="99.5">+getServiceId(): URI</text></g></g><g transform="translate(-14,-22) scale(1,1)"><g><path fill="none" stroke="none"></path><text fill="#000000" stroke="none" font-family="Arial" font-size="13px" font-style="normal" font-weight="normal" text-decoration="none" x="29" y="114.5">+getDescription(): Resource</text></g></g><g transform="translate(-14,-22) scale(1,1)"><g><path fill="none" stroke="none"></path><text fill="#000000" stroke="none" font-family="Arial" font-size="13px" font-style="normal" font-weight="normal" text-decoration="none" x="29" y="129.5">+checkResource(toCheck: Resource): ValidationReport</text></g></g><g transform="translate(-14,-22) scale(1,1)"><g><path fill="none" stroke="none"></path><text fill="#000000" stroke="none" font-family="Arial" font-size="13px" font-style="normal" font-weight="normal" text-decoration="none" x="29" y="144.5">+checkResource(toCheck: Resource, profileId: URI): ValidationReport</text></g></g><g transform="translate(-14,-22) scale(1,1)"><g><path fill="none" stroke="none"></path><text fill="#000000" stroke="none" font-family="Arial" font-size="13px" font-style="normal" font-weight="normal" text-decoration="none" x="29" y="159.5">+checkResources(toCheck: Resource[*]): ValidationReport[*]</text></g></g><g transform="translate(-14,-22) scale(1,1)"><g><path fill="none" stroke="none"></path><text fill="#000000" stroke="none" font-family="Arial" font-size="13px" font-style="normal" font-weight="normal" text-decoration="none" x="29" y="174.5">+checkResources(toCheck: Resource[*], profileId: URI): ValidationReport[*]</text></g></g><g transform="translate(-14,-22) scale(1,1)"><rect fill="#C0C0C0" stroke="none" x="555" y="127" width="113" height="59" opacity="0.2"></rect></g><g transform="translate(-14,-22) scale(1,1)"><rect fill="#ffffff" stroke="none" x="548" y="120" width="113" height="59"></rect></g><g transform="translate(-14,-22) scale(1,1)"><path fill="none" stroke="#000000" d="M 548 120 L 661 120 L 661 179 L 548 179 L 548 120 Z Z" stroke-miterlimit="10"></path></g><g transform="translate(-14,-22) scale(1,1)"><path fill="none" stroke="#000000" d="M 548 160 L 661 160" stroke-miterlimit="10"></path></g><g transform="translate(-14,-22) scale(1,1)"><path fill="none" stroke="#000000" d="M 548 170 L 661 170" stroke-miterlimit="10"></path></g><g transform="translate(-14,-22) scale(1,1)"><g><path fill="none" stroke="none"></path><text fill="#000000" stroke="none" font-family="Arial" font-size="13px" font-style="normal" font-weight="bold" text-decoration="none" x="557" y="139.5">ValidationReport</text></g></g><g transform="translate(-14,-22) scale(1,1)"><g><path fill="none" stroke="none"></path><text fill="#000000" stroke="none" font-family="Arial" font-size="13px" font-style="normal" font-weight="normal" text-decoration="none" x="557" y="154.5">(from document)</text></g></g><g transform="translate(-14,-22) scale(1,1)"><path fill="#C0C0C0" stroke="none" d="M 597.5 50.5 C 597.5 44.1487248 602.6487248 39 609 39 C 615.3512752 39 620.5 44.1487248 620.5 50.5 C 620.5 56.8512752 615.3512752 62 609 62 C 602.6487248 62 597.5 56.8512752 597.5 50.5 Z" opacity="0.2"></path></g><g transform="translate(-14,-22) scale(1,1)"><path fill="#ffffff" stroke="none" d="M 590.5 43.5 C 590.5 37.1487248 595.6487248 32 602 32 C 608.3512752 32 613.5 37.1487248 613.5 43.5 C 613.5 49.8512752 608.3512752 55 602 55 C 595.6487248 55 590.5 49.8512752 590.5 43.5 Z"></path></g><g transform="translate(-14,-22) scale(1,1)"><path fill="none" stroke="#000000" d="M 590.5 43.5 C 590.5 37.1487248 595.6487248 32 602 32 C 608.3512752 32 613.5 37.1487248 613.5 43.5 C 613.5 49.8512752 608.3512752 55 602 55 C 595.6487248 55 590.5 49.8512752 590.5 43.5 Z" stroke-miterlimit="10"></path></g><g transform="translate(-14,-22) scale(1,1)"><g><path fill="none" stroke="none"></path><text fill="#000000" stroke="none" font-family="Arial" font-size="13px" font-style="normal" font-weight="bold" text-decoration="none" x="533.5" y="74.5">ImplementationChecker</text></g></g><g transform="translate(-14,-22) scale(1,1)"><g><path fill="none" stroke="none"></path><text fill="#000000" stroke="none" font-family="Arial" font-size="13px" font-style="normal" font-weight="normal" text-decoration="none" x="574.5" y="89.5">(from api)</text></g></g><g transform="translate(-14,-22) scale(1,1)"><path fill="none" stroke="#000000" d="M 471 78 L 590.5 47.221518987341774" stroke-miterlimit="10"></path></g><g transform="translate(-14,-22) scale(1,1)"><g><path fill="none" stroke="none"></path><text fill="#000000" stroke="none" font-family="Arial" font-size="13px" font-style="normal" font-weight="normal" text-decoration="none" x="480" y="52">+implements</text></g></g><g transform="translate(-14,-22) scale(1,1)"><path fill="none" stroke="#000000" d="M 471 133 L 547 142" stroke-miterlimit="10"></path></g><g transform="translate(-14,-22) scale(1,1)"><g><path fill="none" stroke="none"></path><text fill="#000000" stroke="none" font-family="Arial" font-size="13px" font-style="normal" font-weight="normal" text-decoration="none" x="480" y="129">+produces</text></g></g></g></svg>