<svg version="1.1" xmlns="http://www.w3.org/2000/svg" xmlns:xlink="http://www.w3.org/1999/xlink" width="688" height="468"><defs></defs><g><g transform="translate(-22,6) scale(1,1)"><path fill="#C0C0C0" stroke="none" d="M 222 21 L 499 21 L 499 458 L 222 458" opacity="0.2"></path></g><g transform="translate(-22,6) scale(1,1)"><path fill="#C0C0C0" stroke="none" d="M 222 21 L 232 11 L 509 11 L 499 21" opacity="0.2"></path></g><g transform="translate(-22,6) scale(1,1)"><path fill="#C0C0C0" stroke="none" d="M 509 11 L 499 21 L 499 458 L 509 448" opacity="0.2"></path></g><g transform="translate(-22,6) scale(1,1)"><path fill="#ffffff" stroke="none" d="M 215 14 L 492 14 L 492 451 L 215 451"></path></g><g transform="translate(-22,6) scale(1,1)"><path fill="#ffffff" stroke="none" d="M 215 14 L 225 4 L 502 4 L 492 14"></path></g><g transform="translate(-22,6) scale(1,1)"><path fill="#ffffff" stroke="none" d="M 502 4 L 492 14 L 492 451 L 502 441"></path></g><g transform="translate(-22,6) scale(1,1)"><path fill="none" stroke="#000000" d="M 215 14 L 492 14 L 492 451 L 215 451 L 215 14" stroke-miterlimit="10"></path></g><g transform="translate(-22,6) scale(1,1)"><path fill="none" stroke="#000000" d="M 215 14 L 225 4 L 502 4 L 492 14 L 215 14" stroke-miterlimit="10"></path></g><g transform="translate(-22,6) scale(1,1)"><path fill="none" stroke="#000000" d="M 502 4 L 492 14 L 492 451 L 502 441 L 502 4" stroke-miterlimit="10"></path></g><g transform="translate(-22,6) scale(1,1)"><g><path fill="none" stroke="none"></path><text fill="#000000" stroke="none" font-family="Arial" font-size="13px" font-style="normal" font-weight="bold" text-decoration="none" x="245.5" y="33.5">veraPDF Conformance Checker Shell</text><path fill="none" stroke="#000000" d="M 468.5 33.5 L 239.5 33.5" stroke-miterlimit="10"></path></g></g><g transform="translate(-22,6) scale(1,1)"><rect fill="#C0C0C0" stroke="none" x="286" y="67" width="170" height="76" opacity="0.2"></rect></g><g transform="translate(-22,6) scale(1,1)"><rect fill="#ffffff" stroke="none" x="279" y="60" width="170" height="76"></rect></g><g transform="translate(-22,6) scale(1,1)"><path fill="none" stroke="#000000" d="M 279 60 L 449 60 L 449 136 L 279 136 L 279 60 Z Z" stroke-miterlimit="10"></path></g><g transform="translate(-22,6) scale(1,1)"><rect fill="#ffffff" stroke="none" x="269" y="67" width="20" height="10"></rect></g><g transform="translate(-22,6) scale(1,1)"><path fill="none" stroke="#000000" d="M 269 67 L 289 67 L 289 77 L 269 77 L 269 67 Z Z" stroke-miterlimit="10"></path></g><g transform="translate(-22,6) scale(1,1)"><rect fill="#ffffff" stroke="none" x="269" y="87" width="20" height="10"></rect></g><g transform="translate(-22,6) scale(1,1)"><path fill="none" stroke="#000000" d="M 269 87 L 289 87 L 289 97 L 269 97 L 269 87 Z Z" stroke-miterlimit="10"></path></g><g transform="translate(-22,6) scale(1,1)"><g><path fill="none" stroke="none"></path><text fill="#000000" stroke="none" font-family="Arial" font-size="13px" font-style="normal" font-weight="bold" text-decoration="none" x="298.5" y="79.5">Implementation Checker</text><path fill="none" stroke="#000000" d="M 444.5 79.5 L 293.5 79.5" stroke-miterlimit="10"></path></g></g><g transform="translate(-22,6) scale(1,1)"><rect fill="#C0C0C0" stroke="none" x="286" y="351" width="170" height="79" opacity="0.2"></rect></g><g transform="translate(-22,6) scale(1,1)"><rect fill="#ffffff" stroke="none" x="279" y="344" width="170" height="79"></rect></g><g transform="translate(-22,6) scale(1,1)"><path fill="none" stroke="#000000" d="M 279 344 L 449 344 L 449 423 L 279 423 L 279 344 Z Z" stroke-miterlimit="10"></path></g><g transform="translate(-22,6) scale(1,1)"><rect fill="#ffffff" stroke="none" x="269" y="351" width="20" height="10"></rect></g><g transform="translate(-22,6) scale(1,1)"><path fill="none" stroke="#000000" d="M 269 351 L 289 351 L 289 361 L 269 361 L 269 351 Z Z" stroke-miterlimit="10"></path></g><g transform="translate(-22,6) scale(1,1)"><rect fill="#ffffff" stroke="none" x="269" y="371" width="20" height="10"></rect></g><g transform="translate(-22,6) scale(1,1)"><path fill="none" stroke="#000000" d="M 269 371 L 289 371 L 289 381 L 269 381 L 269 371 Z Z" stroke-miterlimit="10"></path></g><g transform="translate(-22,6) scale(1,1)"><g><path fill="none" stroke="none"></path><text fill="#000000" stroke="none" font-family="Arial" font-size="13px" font-style="normal" font-weight="bold" text-decoration="none" x="344.5" y="363.5">Reporter</text><path fill="none" stroke="#000000" d="M 395.5 363.5 L 342.5 363.5" stroke-miterlimit="10"></path></g></g><g transform="translate(-22,6) scale(1,1)"><path fill="#C0C0C0" stroke="none" d="M 58.8 55 L 102.47999999999999 55 L 121.19999999999999 73.72 L 121.19999999999999 133 L 58.8 133" opacity="0.2"></path></g><g transform="translate(-22,6) scale(1,1)"><path fill="#ffffff" stroke="none" d="M 51.800000000000004 48 L 95.47999999999999 48 L 114.19999999999999 66.72 L 114.19999999999999 126 L 51.800000000000004 126"></path></g><g transform="translate(-22,6) scale(1,1)"><path fill="none" stroke="#000000" d="M 51.800000000000004 48 L 95.47999999999999 48 L 114.19999999999999 66.72 L 114.19999999999999 126 L 51.800000000000004 126 L 51.800000000000004 48" stroke-miterlimit="10"></path></g><g transform="translate(-22,6) scale(1,1)"><path fill="none" stroke="#000000" d="M 95.47999999999999 48 L 95.47999999999999 66.72 L 114.19999999999999 66.72 L 95.47999999999999 48" stroke-miterlimit="10"></path></g><g transform="translate(-22,6) scale(1,1)"><g><path fill="none" stroke="none"></path><text fill="#000000" stroke="none" font-family="Arial" font-size="13px" font-style="normal" font-weight="bold" text-decoration="none" x="38.5" y="145.5">PDF Document</text><path fill="none" stroke="#000000" d="M 129.5 145.5 L 36.5 145.5" stroke-miterlimit="10"></path></g></g><g transform="translate(-22,6) scale(1,1)"><path fill="none" stroke="#000000" d="M 135 99 L 268 98" stroke-miterlimit="10"></path></g><g transform="translate(-22,6) scale(1,1)"><path fill="none" stroke="#000000" d="M 257.869262004774 102.28580770358211 L 268 98 L 257.80596277508704 93.86701015521592" stroke-miterlimit="10"></path></g><g transform="translate(-22,6) scale(1,1)"><g><path fill="none" stroke="none"></path><text fill="#000000" stroke="none" font-family="Arial" font-size="13px" font-style="normal" font-weight="normal" text-decoration="none" x="149" y="89">+validate</text></g></g><g transform="translate(-22,6) scale(1,1)"><rect fill="#C0C0C0" stroke="none" x="249" y="187" width="234" height="112" opacity="0.2"></rect></g><g transform="translate(-22,6) scale(1,1)"><rect fill="#ffffff" stroke="none" x="242" y="180" width="234" height="112"></rect></g><g transform="translate(-22,6) scale(1,1)"><path fill="none" stroke="#000000" d="M 242 180 L 476 180 L 476 292 L 242 292 L 242 180 Z Z" stroke-miterlimit="10"></path></g><g transform="translate(-22,6) scale(1,1)"><rect fill="#ffffff" stroke="none" x="242" y="180" width="234" height="112"></rect></g><g transform="translate(-22,6) scale(1,1)"><path fill="none" stroke="#000000" d="M 242 180 L 476 180 L 476 292 L 242 292 L 242 180 Z Z" stroke-miterlimit="10"></path></g><g transform="translate(-22,6) scale(1,1)"><path fill="none" stroke="#000000" d="M 242 205 L 476 205" stroke-miterlimit="10"></path></g><g transform="translate(-22,6) scale(1,1)"><g><path fill="none" stroke="none"></path><text fill="#000000" stroke="none" font-family="Arial" font-size="13px" font-style="normal" font-weight="bold" text-decoration="none" x="284.5" y="199.5">Machine Readable Report</text><path fill="none" stroke="#000000" d="M 438 199.5 L 280 199.5" stroke-miterlimit="10"></path></g></g><g transform="translate(-22,6) scale(1,1)"><g><path fill="none" stroke="none"></path><text fill="#000000" stroke="none" font-family="Arial" font-size="13px" font-style="normal" font-weight="normal" text-decoration="none" x="247" y="222.5">PDF Features Report</text></g></g><g transform="translate(-22,6) scale(1,1)"><g><path fill="none" stroke="none"></path><text fill="#000000" stroke="none" font-family="Arial" font-size="13px" font-style="normal" font-weight="normal" text-decoration="none" x="247" y="237.5">Validation Report</text></g></g><g transform="translate(-22,6) scale(1,1)"><path fill="none" stroke="#000000" d="M 359 137 L 359 179" stroke-miterlimit="10"></path></g><g transform="translate(-22,6) scale(1,1)"><path fill="none" stroke="#000000" d="M 354.790482243984 168.83732514237585 L 359 179 L 363.209517756016 168.83732514237585" stroke-miterlimit="10"></path></g><g transform="translate(-22,6) scale(1,1)"><g><path fill="none" stroke="none"></path><text fill="#000000" stroke="none" font-family="Arial" font-size="13px" font-style="normal" font-weight="normal" text-decoration="none" x="368" y="161">+reports</text></g></g><g transform="translate(-22,6) scale(1,1)"><path fill="none" stroke="#000000" d="M 359 293 L 359 343" stroke-miterlimit="10"></path></g><g transform="translate(-22,6) scale(1,1)"><path fill="none" stroke="#000000" d="M 354.790482243984 332.83732514237585 L 359 343 L 363.209517756016 332.83732514237585" stroke-miterlimit="10"></path></g><g transform="translate(-22,6) scale(1,1)"><g><path fill="none" stroke="none"></path><text fill="#000000" stroke="none" font-family="Arial" font-size="13px" font-style="normal" font-weight="normal" text-decoration="none" x="371" y="325">+format</text></g></g><g transform="translate(-22,6) scale(1,1)"><path fill="#C0C0C0" stroke="none" d="M 608.2 339 L 651.32 339 L 669.8000000000001 357.48 L 669.8000000000001 416 L 608.2 416" opacity="0.2"></path></g><g transform="translate(-22,6) scale(1,1)"><path fill="#ffffff" stroke="none" d="M 601.2 332 L 644.3199999999999 332 L 662.8 350.47999999999996 L 662.8 409 L 601.2 409"></path></g><g transform="translate(-22,6) scale(1,1)"><path fill="none" stroke="#000000" d="M 601.2 332 L 644.3199999999999 332 L 662.8 350.47999999999996 L 662.8 409 L 601.2 409 L 601.2 332" stroke-miterlimit="10"></path></g><g transform="translate(-22,6) scale(1,1)"><path fill="none" stroke="#000000" d="M 644.3199999999999 332 L 644.3199999999999 350.47999999999996 L 662.8 350.47999999999996 L 644.3199999999999 332" stroke-miterlimit="10"></path></g><g transform="translate(-22,6) scale(1,1)"><g><path fill="none" stroke="none"></path><text fill="#000000" stroke="none" font-family="Arial" font-size="13px" font-style="normal" font-weight="bold" text-decoration="none" x="575.5" y="428.5">Reformatted Report</text><path fill="none" stroke="#000000" d="M 692 428.5 L 572 428.5" stroke-miterlimit="10"></path></g></g><g transform="translate(-22,6) scale(1,1)"><path fill="none" stroke="#000000" d="M 450 383 L 563 383" stroke-miterlimit="10"></path></g><g transform="translate(-22,6) scale(1,1)"><path fill="none" stroke="#000000" d="M 552.8373251423759 387.209517756016 L 563 383 L 552.8373251423758 378.790482243984" stroke-miterlimit="10"></path></g><g transform="translate(-22,6) scale(1,1)"><g><path fill="none" stroke="none"></path><text fill="#000000" stroke="none" font-family="Arial" font-size="13px" font-style="normal" font-weight="normal" text-decoration="none" x="512" y="375">+outputs</text></g></g></g></svg>