<svg version="1.1" xmlns="http://www.w3.org/2000/svg" xmlns:xlink="http://www.w3.org/1999/xlink" width="492" height="147"><defs></defs><g><g transform="translate(-26,-26) scale(1,1)"><rect fill="#C0C0C0" stroke="none" x="43" y="43" width="287" height="117" opacity="0.2"></rect></g><g transform="translate(-26,-26) scale(1,1)"><rect fill="#ffffff" stroke="none" x="36" y="36" width="287" height="117"></rect></g><g transform="translate(-26,-26) scale(1,1)"><path fill="none" stroke="#000000" d="M 36 36 L 323 36 L 323 153 L 36 153 L 36 36 Z Z" stroke-miterlimit="10"></path></g><g transform="translate(-26,-26) scale(1,1)"><path fill="none" stroke="#000000" d="M 36 61 L 323 61" stroke-miterlimit="10"></path></g><g transform="translate(-26,-26) scale(1,1)"><path fill="none" stroke="#000000" d="M 36 71 L 323 71" stroke-miterlimit="10"></path></g><g transform="translate(-26,-26) scale(1,1)"><g><path fill="none" stroke="none"></path><text fill="#000000" stroke="none" font-family="Arial" font-size="13px" font-style="italic" font-weight="bold" text-decoration="none" x="113.5" y="55.5">AbstractMetadataFixer</text></g></g><g transform="translate(-26,-26) scale(1,1)"><g><path fill="none" stroke="none"></path><text fill="#000000" stroke="none" font-family="Arial" font-size="13px" font-style="normal" font-weight="normal" text-decoration="none" x="41" y="88.5">+getComponentDetails(): ComponentDetails</text></g></g><g transform="translate(-26,-26) scale(1,1)"><g><path fill="none" stroke="none"></path><text fill="#000000" stroke="none" font-family="Arial" font-size="13px" font-style="normal" font-weight="normal" text-decoration="none" x="41" y="103.5">+getServiceId(): URI</text></g></g><g transform="translate(-26,-26) scale(1,1)"><g><path fill="none" stroke="none"></path><text fill="#000000" stroke="none" font-family="Arial" font-size="13px" font-style="normal" font-weight="normal" text-decoration="none" x="41" y="118.5">+getDescription(): Resource</text></g></g><g transform="translate(-26,-26) scale(1,1)"><g><path fill="none" stroke="none"></path><text fill="#000000" stroke="none" font-family="Arial" font-size="13px" font-style="normal" font-weight="normal" text-decoration="none" x="41" y="133.5">+fixResource(toFix: Resource): FixerReport</text></g></g><g transform="translate(-26,-26) scale(1,1)"><g><path fill="none" stroke="none"></path><text fill="#000000" stroke="none" font-family="Arial" font-size="13px" font-style="normal" font-weight="normal" text-decoration="none" x="41" y="148.5">+fixResource(toFix: Resource[*]): FixerReport[*]</text></g></g><g transform="translate(-26,-26) scale(1,1)"><rect fill="#C0C0C0" stroke="none" x="411" y="111" width="104" height="59" opacity="0.2"></rect></g><g transform="translate(-26,-26) scale(1,1)"><rect fill="#ffffff" stroke="none" x="404" y="104" width="104" height="59"></rect></g><g transform="translate(-26,-26) scale(1,1)"><path fill="none" stroke="#000000" d="M 404 104 L 508 104 L 508 163 L 404 163 L 404 104 Z Z" stroke-miterlimit="10"></path></g><g transform="translate(-26,-26) scale(1,1)"><path fill="none" stroke="#000000" d="M 404 144 L 508 144" stroke-miterlimit="10"></path></g><g transform="translate(-26,-26) scale(1,1)"><path fill="none" stroke="#000000" d="M 404 154 L 508 154" stroke-miterlimit="10"></path></g><g transform="translate(-26,-26) scale(1,1)"><g><path fill="none" stroke="none"></path><text fill="#000000" stroke="none" font-family="Arial" font-size="13px" font-style="normal" font-weight="bold" text-decoration="none" x="422.5" y="123.5">FixerReport</text></g></g><g transform="translate(-26,-26) scale(1,1)"><g><path fill="none" stroke="none"></path><text fill="#000000" stroke="none" font-family="Arial" font-size="13px" font-style="normal" font-weight="normal" text-decoration="none" x="408.5" y="138.5">(from document)</text></g></g><g transform="translate(-26,-26) scale(1,1)"><path fill="#C0C0C0" stroke="none" d="M 455 54.5 C 455 48.1487248 460.1487248 43 466.5 43 C 472.8512752 43 478 48.1487248 478 54.5 C 478 60.8512752 472.8512752 66 466.5 66 C 460.1487248 66 455 60.8512752 455 54.5 Z" opacity="0.2"></path></g><g transform="translate(-26,-26) scale(1,1)"><path fill="#ffffff" stroke="none" d="M 448 47.5 C 448 41.1487248 453.1487248 36 459.5 36 C 465.8512752 36 471 41.1487248 471 47.5 C 471 53.8512752 465.8512752 59 459.5 59 C 453.1487248 59 448 53.8512752 448 47.5 Z"></path></g><g transform="translate(-26,-26) scale(1,1)"><path fill="none" stroke="#000000" d="M 448 47.5 C 448 41.1487248 453.1487248 36 459.5 36 C 465.8512752 36 471 41.1487248 471 47.5 C 471 53.8512752 465.8512752 59 459.5 59 C 453.1487248 59 448 53.8512752 448 47.5 Z" stroke-miterlimit="10"></path></g><g transform="translate(-26,-26) scale(1,1)"><g><path fill="none" stroke="none"></path><text fill="#000000" stroke="none" font-family="Arial" font-size="13px" font-style="normal" font-weight="bold" text-decoration="none" x="418" y="78.5">MetadataFixer</text></g></g><g transform="translate(-26,-26) scale(1,1)"><g><path fill="none" stroke="none"></path><text fill="#000000" stroke="none" font-family="Arial" font-size="13px" font-style="normal" font-weight="normal" text-decoration="none" x="432" y="93.5">(from api)</text></g></g><g transform="translate(-26,-26) scale(1,1)"><path fill="none" stroke="#000000" d="M 324 80 L 448 52.729166666666664" stroke-miterlimit="10"></path></g><g transform="translate(-26,-26) scale(1,1)"><g><path fill="none" stroke="none"></path><text fill="#000000" stroke="none" font-family="Arial" font-size="13px" font-style="normal" font-weight="normal" text-decoration="none" x="345" y="58">+implements</text></g></g><g transform="translate(-26,-26) scale(1,1)"><path fill="none" stroke="#000000" d="M 324 114 L 403 126" stroke-miterlimit="10"></path></g><g transform="translate(-26,-26) scale(1,1)"><g><path fill="none" stroke="none"></path><text fill="#000000" stroke="none" font-family="Arial" font-size="13px" font-style="normal" font-weight="normal" text-decoration="none" x="335" y="112">+produces</text></g></g></g></svg>