<svg version="1.1" xmlns="http://www.w3.org/2000/svg" xmlns:xlink="http://www.w3.org/1999/xlink" width="521" height="460"><defs></defs><g><g transform="translate(-209,-322) scale(1,1)"><path fill="#C0C0C0" stroke="none" d="M 419 349 L 716 349 L 716 778 L 419 778" opacity="0.2"></path></g><g transform="translate(-209,-322) scale(1,1)"><path fill="#C0C0C0" stroke="none" d="M 419 349 L 429 339 L 726 339 L 716 349" opacity="0.2"></path></g><g transform="translate(-209,-322) scale(1,1)"><path fill="#C0C0C0" stroke="none" d="M 726 339 L 716 349 L 716 778 L 726 768" opacity="0.2"></path></g><g transform="translate(-209,-322) scale(1,1)"><path fill="#ffffff" stroke="none" d="M 412 342 L 709 342 L 709 771 L 412 771"></path></g><g transform="translate(-209,-322) scale(1,1)"><path fill="#ffffff" stroke="none" d="M 412 342 L 422 332 L 719 332 L 709 342"></path></g><g transform="translate(-209,-322) scale(1,1)"><path fill="#ffffff" stroke="none" d="M 719 332 L 709 342 L 709 771 L 719 761"></path></g><g transform="translate(-209,-322) scale(1,1)"><path fill="none" stroke="#000000" d="M 412 342 L 709 342 L 709 771 L 412 771 L 412 342" stroke-miterlimit="10"></path></g><g transform="translate(-209,-322) scale(1,1)"><path fill="none" stroke="#000000" d="M 412 342 L 422 332 L 719 332 L 709 342 L 412 342" stroke-miterlimit="10"></path></g><g transform="translate(-209,-322) scale(1,1)"><path fill="none" stroke="#000000" d="M 719 332 L 709 342 L 709 771 L 719 761 L 719 332" stroke-miterlimit="10"></path></g><g transform="translate(-209,-322) scale(1,1)"><g><path fill="none" stroke="none"></path><text fill="#000000" stroke="none" font-family="Arial" font-size="13px" font-style="normal" font-weight="bold" text-decoration="none" x="452.5" y="361.5">veraPDF Conformance Checker Shell</text><path fill="none" stroke="#000000" d="M 675.5 361.5 L 446.5 361.5" stroke-miterlimit="10"></path></g></g><g transform="translate(-209,-322) scale(1,1)"><rect fill="#C0C0C0" stroke="none" x="462" y="397" width="170" height="76" opacity="0.2"></rect></g><g transform="translate(-209,-322) scale(1,1)"><rect fill="#ffffff" stroke="none" x="455" y="390" width="170" height="76"></rect></g><g transform="translate(-209,-322) scale(1,1)"><path fill="none" stroke="#000000" d="M 455 390 L 625 390 L 625 466 L 455 466 L 455 390 Z Z" stroke-miterlimit="10"></path></g><g transform="translate(-209,-322) scale(1,1)"><rect fill="#ffffff" stroke="none" x="445" y="397" width="20" height="10"></rect></g><g transform="translate(-209,-322) scale(1,1)"><path fill="none" stroke="#000000" d="M 445 397 L 465 397 L 465 407 L 445 407 L 445 397 Z Z" stroke-miterlimit="10"></path></g><g transform="translate(-209,-322) scale(1,1)"><rect fill="#ffffff" stroke="none" x="445" y="417" width="20" height="10"></rect></g><g transform="translate(-209,-322) scale(1,1)"><path fill="none" stroke="#000000" d="M 445 417 L 465 417 L 465 427 L 445 427 L 445 417 Z Z" stroke-miterlimit="10"></path></g><g transform="translate(-209,-322) scale(1,1)"><g><path fill="none" stroke="none"></path><text fill="#000000" stroke="none" font-family="Arial" font-size="13px" font-style="normal" font-weight="bold" text-decoration="none" x="474.5" y="409.5">Implementation Checker</text><path fill="none" stroke="#000000" d="M 620.5 409.5 L 469.5 409.5" stroke-miterlimit="10"></path></g></g><g transform="translate(-209,-322) scale(1,1)"><rect fill="#C0C0C0" stroke="none" x="462" y="679" width="170" height="79" opacity="0.2"></rect></g><g transform="translate(-209,-322) scale(1,1)"><rect fill="#ffffff" stroke="none" x="455" y="672" width="170" height="79"></rect></g><g transform="translate(-209,-322) scale(1,1)"><path fill="none" stroke="#000000" d="M 455 672 L 625 672 L 625 751 L 455 751 L 455 672 Z Z" stroke-miterlimit="10"></path></g><g transform="translate(-209,-322) scale(1,1)"><rect fill="#ffffff" stroke="none" x="445" y="679" width="20" height="10"></rect></g><g transform="translate(-209,-322) scale(1,1)"><path fill="none" stroke="#000000" d="M 445 679 L 465 679 L 465 689 L 445 689 L 445 679 Z Z" stroke-miterlimit="10"></path></g><g transform="translate(-209,-322) scale(1,1)"><rect fill="#ffffff" stroke="none" x="445" y="699" width="20" height="10"></rect></g><g transform="translate(-209,-322) scale(1,1)"><path fill="none" stroke="#000000" d="M 445 699 L 465 699 L 465 709 L 445 709 L 445 699 Z Z" stroke-miterlimit="10"></path></g><g transform="translate(-209,-322) scale(1,1)"><g><path fill="none" stroke="none"></path><text fill="#000000" stroke="none" font-family="Arial" font-size="13px" font-style="normal" font-weight="bold" text-decoration="none" x="520.5" y="691.5">Reporter</text><path fill="none" stroke="#000000" d="M 571.5 691.5 L 518.5 691.5" stroke-miterlimit="10"></path></g></g><g transform="translate(-209,-322) scale(1,1)"><path fill="#C0C0C0" stroke="none" d="M 262.8 383 L 306.48 383 L 325.2 401.71999999999997 L 325.2 461 L 262.8 461" opacity="0.2"></path></g><g transform="translate(-209,-322) scale(1,1)"><path fill="#ffffff" stroke="none" d="M 255.8 376 L 299.48 376 L 318.2 394.71999999999997 L 318.2 454 L 255.8 454"></path></g><g transform="translate(-209,-322) scale(1,1)"><path fill="none" stroke="#000000" d="M 255.8 376 L 299.48 376 L 318.2 394.71999999999997 L 318.2 454 L 255.8 454 L 255.8 376" stroke-miterlimit="10"></path></g><g transform="translate(-209,-322) scale(1,1)"><path fill="none" stroke="#000000" d="M 299.48 376 L 299.48 394.71999999999997 L 318.2 394.71999999999997 L 299.48 376" stroke-miterlimit="10"></path></g><g transform="translate(-209,-322) scale(1,1)"><g><path fill="none" stroke="none"></path><text fill="#000000" stroke="none" font-family="Arial" font-size="13px" font-style="normal" font-weight="bold" text-decoration="none" x="242.5" y="473.5">PDF Document</text><path fill="none" stroke="#000000" d="M 333.5 473.5 L 240.5 473.5" stroke-miterlimit="10"></path></g></g><g transform="translate(-209,-322) scale(1,1)"><path fill="none" stroke="#000000" d="M 339 427 L 444 428" stroke-miterlimit="10"></path></g><g transform="translate(-209,-322) scale(1,1)"><path fill="none" stroke="#000000" d="M 433.79769717605956 432.1125438707225 L 444 428 L 433.877874830558 423.6938901483881" stroke-miterlimit="10"></path></g><g transform="translate(-209,-322) scale(1,1)"><g><path fill="none" stroke="none"></path><text fill="#000000" stroke="none" font-family="Arial" font-size="13px" font-style="normal" font-weight="normal" text-decoration="none" x="341" y="420">+validate</text></g></g><g transform="translate(-209,-322) scale(1,1)"><path fill="#C0C0C0" stroke="none" d="M 263.2 667 L 306.32 667 L 324.8 685.48 L 324.8 744 L 263.2 744" opacity="0.2"></path></g><g transform="translate(-209,-322) scale(1,1)"><path fill="#ffffff" stroke="none" d="M 256.2 660 L 299.32 660 L 317.8 678.48 L 317.8 737 L 256.2 737"></path></g><g transform="translate(-209,-322) scale(1,1)"><path fill="none" stroke="#000000" d="M 256.2 660 L 299.32 660 L 317.8 678.48 L 317.8 737 L 256.2 737 L 256.2 660" stroke-miterlimit="10"></path></g><g transform="translate(-209,-322) scale(1,1)"><path fill="none" stroke="#000000" d="M 299.32 660 L 299.32 678.48 L 317.8 678.48 L 299.32 660" stroke-miterlimit="10"></path></g><g transform="translate(-209,-322) scale(1,1)"><g><path fill="none" stroke="none"></path><text fill="#000000" stroke="none" font-family="Arial" font-size="13px" font-style="normal" font-weight="bold" text-decoration="none" x="230.5" y="756.5">Reformatted Report</text><path fill="none" stroke="#000000" d="M 347 756.5 L 227 756.5" stroke-miterlimit="10"></path></g></g><g transform="translate(-209,-322) scale(1,1)"><path fill="none" stroke="#000000" d="M 444 711 L 356 711" stroke-miterlimit="10"></path></g><g transform="translate(-209,-322) scale(1,1)"><path fill="none" stroke="#000000" d="M 366.16267485762415 706.790482243984 L 356 711 L 366.16267485762415 715.209517756016" stroke-miterlimit="10"></path></g><g transform="translate(-209,-322) scale(1,1)"><g><path fill="none" stroke="none"></path><text fill="#000000" stroke="none" font-family="Arial" font-size="13px" font-style="normal" font-weight="normal" text-decoration="none" x="356" y="732">+outputs</text></g></g><g transform="translate(-209,-322) scale(1,1)"><rect fill="#C0C0C0" stroke="none" x="456" y="540" width="182" height="72" opacity="0.2"></rect></g><g transform="translate(-209,-322) scale(1,1)"><rect fill="#ffffff" stroke="none" x="449" y="533" width="182" height="72"></rect></g><g transform="translate(-209,-322) scale(1,1)"><path fill="none" stroke="#000000" d="M 449 533 L 631 533 L 631 605 L 449 605 L 449 533 Z Z" stroke-miterlimit="10"></path></g><g transform="translate(-209,-322) scale(1,1)"><rect fill="#ffffff" stroke="none" x="439" y="540" width="20" height="10"></rect></g><g transform="translate(-209,-322) scale(1,1)"><path fill="none" stroke="#000000" d="M 439 540 L 459 540 L 459 550 L 439 550 L 439 540 Z Z" stroke-miterlimit="10"></path></g><g transform="translate(-209,-322) scale(1,1)"><rect fill="#ffffff" stroke="none" x="439" y="560" width="20" height="10"></rect></g><g transform="translate(-209,-322) scale(1,1)"><path fill="none" stroke="#000000" d="M 439 560 L 459 560 L 459 570 L 439 570 L 439 560 Z Z" stroke-miterlimit="10"></path></g><g transform="translate(-209,-322) scale(1,1)"><g><path fill="none" stroke="none"></path><text fill="#000000" stroke="none" font-family="Arial" font-size="13px" font-style="normal" font-weight="bold" text-decoration="none" x="501.5" y="552.5">Metadata Fixer</text><path fill="none" stroke="#000000" d="M 590 552.5 L 500 552.5" stroke-miterlimit="10"></path></g></g><g transform="translate(-209,-322) scale(1,1)"><path fill="none" stroke="#000000" d="M 535 467 L 535 532" stroke-miterlimit="10"></path></g><g transform="translate(-209,-322) scale(1,1)"><path fill="none" stroke="#000000" d="M 530.790482243984 521.8373251423759 L 535 532 L 539.209517756016 521.8373251423759" stroke-miterlimit="10"></path></g><g transform="translate(-209,-322) scale(1,1)"><g><path fill="none" stroke="none"></path><text fill="#000000" stroke="none" font-family="Arial" font-size="13px" font-style="normal" font-weight="normal" text-decoration="none" x="539" y="501">+repair</text></g></g><g transform="translate(-209,-322) scale(1,1)"><path fill="none" stroke="#000000" d="M 632 571 L 676 572 L 676 428 L 626 428" stroke-miterlimit="10"></path></g><g transform="translate(-209,-322) scale(1,1)"><path fill="none" stroke="#000000" d="M 636.1626748576241 423.790482243984 L 626 428 L 636.1626748576241 432.209517756016" stroke-miterlimit="10"></path></g><g transform="translate(-209,-322) scale(1,1)"><g><path fill="none" stroke="none"></path><text fill="#000000" stroke="none" font-family="Arial" font-size="13px" font-style="normal" font-weight="normal" text-decoration="none" x="639" y="596">+validate</text></g></g><g transform="translate(-209,-322) scale(1,1)"><path fill="#C0C0C0" stroke="none" d="M 262.4 523 L 306.64000000000004 523 L 325.6 541.96 L 325.6 602 L 262.4 602" opacity="0.2"></path></g><g transform="translate(-209,-322) scale(1,1)"><path fill="#ffffff" stroke="none" d="M 255.39999999999998 516 L 299.64 516 L 318.6 534.96 L 318.6 595 L 255.39999999999998 595"></path></g><g transform="translate(-209,-322) scale(1,1)"><path fill="none" stroke="#000000" d="M 255.39999999999998 516 L 299.64 516 L 318.6 534.96 L 318.6 595 L 255.39999999999998 595 L 255.39999999999998 516" stroke-miterlimit="10"></path></g><g transform="translate(-209,-322) scale(1,1)"><path fill="none" stroke="#000000" d="M 299.64 516 L 299.64 534.96 L 318.6 534.96 L 299.64 516" stroke-miterlimit="10"></path></g><g transform="translate(-209,-322) scale(1,1)"><g><path fill="none" stroke="none"></path><text fill="#000000" stroke="none" font-family="Arial" font-size="13px" font-style="normal" font-weight="bold" text-decoration="none" x="246.5" y="614.5">Repaired PDF</text><path fill="none" stroke="#000000" d="M 329.5 614.5 L 244.5 614.5" stroke-miterlimit="10"></path></g></g><g transform="translate(-209,-322) scale(1,1)"><path fill="none" stroke="#000000" d="M 438 569 L 335 568" stroke-miterlimit="10"></path></g><g transform="translate(-209,-322) scale(1,1)"><path fill="none" stroke="#000000" d="M 345.2030631051054 563.8893427200462 L 335 568 L 345.1213287482835 572.3079814727051" stroke-miterlimit="10"></path></g><g transform="translate(-209,-322) scale(1,1)"><g><path fill="none" stroke="none"></path><text fill="#000000" stroke="none" font-family="Arial" font-size="13px" font-style="normal" font-weight="normal" text-decoration="none" x="343" y="590">+writes</text></g></g><g transform="translate(-209,-322) scale(1,1)"><path fill="none" stroke="#000000" d="M 535 606 L 535 671" stroke-miterlimit="10"></path></g><g transform="translate(-209,-322) scale(1,1)"><path fill="none" stroke="#000000" d="M 530.790482243984 660.8373251423759 L 535 671 L 539.209517756016 660.8373251423759" stroke-miterlimit="10"></path></g><g transform="translate(-209,-322) scale(1,1)"><g><path fill="none" stroke="none"></path><text fill="#000000" stroke="none" font-family="Arial" font-size="13px" font-style="normal" font-weight="normal" text-decoration="none" x="546" y="645">+reports</text></g></g></g></svg>