<svg version="1.1" xmlns="http://www.w3.org/2000/svg" xmlns:xlink="http://www.w3.org/1999/xlink" width="1040" height="141"><defs></defs><g><g transform="translate(-10,-10) scale(1,1)"><path fill="#C0C0C0" stroke="none" d="M 208.5 38.5 C 208.5 32.1487248 213.6487248 27 220 27 C 226.3512752 27 231.5 32.1487248 231.5 38.5 C 231.5 44.8512752 226.3512752 50 220 50 C 213.6487248 50 208.5 44.8512752 208.5 38.5 Z" opacity="0.2"></path></g><g transform="translate(-10,-10) scale(1,1)"><path fill="#ffffff" stroke="none" d="M 201.5 31.5 C 201.5 25.1487248 206.6487248 20 213 20 C 219.3512752 20 224.5 25.1487248 224.5 31.5 C 224.5 37.8512752 219.3512752 43 213 43 C 206.6487248 43 201.5 37.8512752 201.5 31.5 Z"></path></g><g transform="translate(-10,-10) scale(1,1)"><path fill="none" stroke="#000000" d="M 201.5 31.5 C 201.5 25.1487248 206.6487248 20 213 20 C 219.3512752 20 224.5 25.1487248 224.5 31.5 C 224.5 37.8512752 219.3512752 43 213 43 C 206.6487248 43 201.5 37.8512752 201.5 31.5 Z" stroke-miterlimit="10"></path></g><g transform="translate(-10,-10) scale(1,1)"><g><path fill="none" stroke="none"></path><text fill="#000000" stroke="none" font-family="Arial" font-size="13px" font-style="normal" font-weight="bold" text-decoration="none" x="194.5" y="62.5">Cache</text></g></g><g transform="translate(-10,-10) scale(1,1)"><rect fill="#C0C0C0" stroke="none" x="598" y="115" width="126" height="24" opacity="0.2"></rect></g><g transform="translate(-10,-10) scale(1,1)"><rect fill="#ffffff" stroke="none" x="591" y="108" width="126" height="24"></rect></g><g transform="translate(-10,-10) scale(1,1)"><path fill="none" stroke="#000000" d="M 591 108 L 717 108 L 717 132 L 591 132 L 591 108 Z Z" stroke-miterlimit="10"></path></g><g transform="translate(-10,-10) scale(1,1)"><g><path fill="none" stroke="none"></path><text fill="#000000" stroke="none" font-family="Arial" font-size="13px" font-style="normal" font-weight="bold" text-decoration="none" x="598.5" y="127.5">IdentiferServiceRef</text></g></g><g transform="translate(-10,-10) scale(1,1)"><rect fill="#C0C0C0" stroke="none" x="429" y="115" width="138" height="24" opacity="0.2"></rect></g><g transform="translate(-10,-10) scale(1,1)"><rect fill="#ffffff" stroke="none" x="422" y="108" width="138" height="24"></rect></g><g transform="translate(-10,-10) scale(1,1)"><path fill="none" stroke="#000000" d="M 422 108 L 560 108 L 560 132 L 422 132 L 422 108 Z Z" stroke-miterlimit="10"></path></g><g transform="translate(-10,-10) scale(1,1)"><g><path fill="none" stroke="none"></path><text fill="#000000" stroke="none" font-family="Arial" font-size="13px" font-style="normal" font-weight="bold" text-decoration="none" x="430" y="127.5">SchedulerServiceRef</text></g></g><g transform="translate(-10,-10) scale(1,1)"><path fill="#C0C0C0" stroke="none" d="M 486.5 38.5 C 486.5 32.1487248 491.6487248 27 498 27 C 504.3512752 27 509.5 32.1487248 509.5 38.5 C 509.5 44.8512752 504.3512752 50 498 50 C 491.6487248 50 486.5 44.8512752 486.5 38.5 Z" opacity="0.2"></path></g><g transform="translate(-10,-10) scale(1,1)"><path fill="#ffffff" stroke="none" d="M 479.5 31.5 C 479.5 25.1487248 484.6487248 20 491 20 C 497.3512752 20 502.5 25.1487248 502.5 31.5 C 502.5 37.8512752 497.3512752 43 491 43 C 484.6487248 43 479.5 37.8512752 479.5 31.5 Z"></path></g><g transform="translate(-10,-10) scale(1,1)"><path fill="none" stroke="#000000" d="M 479.5 31.5 C 479.5 25.1487248 484.6487248 20 491 20 C 497.3512752 20 502.5 25.1487248 502.5 31.5 C 502.5 37.8512752 497.3512752 43 491 43 C 484.6487248 43 479.5 37.8512752 479.5 31.5 Z" stroke-miterlimit="10"></path></g><g transform="translate(-10,-10) scale(1,1)"><g><path fill="none" stroke="none"></path><text fill="#000000" stroke="none" font-family="Arial" font-size="13px" font-style="normal" font-weight="bold" text-decoration="none" x="440" y="62.5">SchedulerService</text></g></g><g transform="translate(-10,-10) scale(1,1)"><path fill="none" stroke="#000000" d="M 491 107 L 492 84 L 491.3157894736842 43" stroke-miterlimit="10"></path></g><g transform="translate(-10,-10) scale(1,1)"><rect fill="#C0C0C0" stroke="none" x="27" y="124" width="175" height="24" opacity="0.2"></rect></g><g transform="translate(-10,-10) scale(1,1)"><rect fill="#C0C0C0" stroke="none" x="101" y="106" width="110" height="22" opacity="0.2"></rect></g><g transform="translate(-10,-10) scale(1,1)"><rect fill="#ffffff" stroke="none" x="20" y="117" width="175" height="24"></rect></g><g transform="translate(-10,-10) scale(1,1)"><path fill="none" stroke="#000000" d="M 20 117 L 195 117 L 195 141 L 20 141 L 20 117 Z Z" stroke-miterlimit="10"></path></g><g transform="translate(-10,-10) scale(1,1)"><g><path fill="none" stroke="none"></path><text fill="#000000" stroke="none" font-family="Arial" font-size="13px" font-style="normal" font-weight="bold" text-decoration="none" x="36.5" y="136.5">ByteSequenceCacheRef</text></g></g><g transform="translate(-10,-10) scale(1,1)"><rect fill="#ffffff" stroke="none" x="94" y="99" width="110" height="22"></rect></g><g transform="translate(-10,-10) scale(1,1)"><path fill="none" stroke="#000000" d="M 94 99 L 204 99 L 204 121 L 94 121 L 94 99 Z Z" stroke-miterlimit="10" stroke-dasharray="3"></path></g><g transform="translate(-10,-10) scale(1,1)"><g><path fill="none" stroke="none"></path><text fill="#000000" stroke="none" font-family="Arial" font-size="13px" font-style="normal" font-weight="normal" text-decoration="none" x="99" y="116.5">T: ByteSequence</text></g></g><g transform="translate(-10,-10) scale(1,1)"><path fill="none" stroke="#000000" d="M 113 98 L 113 84 L 201.5 42.020833333333336" stroke-miterlimit="10"></path></g><g transform="translate(-10,-10) scale(1,1)"><path fill="#C0C0C0" stroke="none" d="M 649.5 38.5 C 649.5 32.1487248 654.6487248 27 661 27 C 667.3512752 27 672.5 32.1487248 672.5 38.5 C 672.5 44.8512752 667.3512752 50 661 50 C 654.6487248 50 649.5 44.8512752 649.5 38.5 Z" opacity="0.2"></path></g><g transform="translate(-10,-10) scale(1,1)"><path fill="#ffffff" stroke="none" d="M 642.5 31.5 C 642.5 25.1487248 647.6487248 20 654 20 C 660.3512752 20 665.5 25.1487248 665.5 31.5 C 665.5 37.8512752 660.3512752 43 654 43 C 647.6487248 43 642.5 37.8512752 642.5 31.5 Z"></path></g><g transform="translate(-10,-10) scale(1,1)"><path fill="none" stroke="#000000" d="M 642.5 31.5 C 642.5 25.1487248 647.6487248 20 654 20 C 660.3512752 20 665.5 25.1487248 665.5 31.5 C 665.5 37.8512752 660.3512752 43 654 43 C 647.6487248 43 642.5 37.8512752 642.5 31.5 Z" stroke-miterlimit="10"></path></g><g transform="translate(-10,-10) scale(1,1)"><g><path fill="none" stroke="none"></path><text fill="#000000" stroke="none" font-family="Arial" font-size="13px" font-style="normal" font-weight="bold" text-decoration="none" x="608.5" y="62.5">IdentiferService</text></g></g><g transform="translate(-10,-10) scale(1,1)"><path fill="none" stroke="#000000" d="M 654 107 L 655 84 L 654.3157894736842 43" stroke-miterlimit="10"></path></g><g transform="translate(-10,-10) scale(1,1)"><rect fill="#C0C0C0" stroke="none" x="243" y="124" width="145" height="24" opacity="0.2"></rect></g><g transform="translate(-10,-10) scale(1,1)"><rect fill="#C0C0C0" stroke="none" x="317" y="106" width="80" height="22" opacity="0.2"></rect></g><g transform="translate(-10,-10) scale(1,1)"><rect fill="#ffffff" stroke="none" x="236" y="117" width="145" height="24"></rect></g><g transform="translate(-10,-10) scale(1,1)"><path fill="none" stroke="#000000" d="M 236 117 L 381 117 L 381 141 L 236 141 L 236 117 Z Z" stroke-miterlimit="10"></path></g><g transform="translate(-10,-10) scale(1,1)"><g><path fill="none" stroke="none"></path><text fill="#000000" stroke="none" font-family="Arial" font-size="13px" font-style="normal" font-weight="bold" text-decoration="none" x="252.5" y="136.5">ResourceCacheRef</text></g></g><g transform="translate(-10,-10) scale(1,1)"><rect fill="#ffffff" stroke="none" x="310" y="99" width="80" height="22"></rect></g><g transform="translate(-10,-10) scale(1,1)"><path fill="none" stroke="#000000" d="M 310 99 L 390 99 L 390 121 L 310 121 L 310 99 Z Z" stroke-miterlimit="10" stroke-dasharray="3"></path></g><g transform="translate(-10,-10) scale(1,1)"><g><path fill="none" stroke="none"></path><text fill="#000000" stroke="none" font-family="Arial" font-size="13px" font-style="normal" font-weight="normal" text-decoration="none" x="315" y="116.5">T: Resource</text></g></g><g transform="translate(-10,-10) scale(1,1)"><path fill="none" stroke="#000000" d="M 314 98 L 314 84 L 224.5 41.58" stroke-miterlimit="10"></path></g><g transform="translate(-10,-10) scale(1,1)"><rect fill="#C0C0C0" stroke="none" x="745" y="39" width="136" height="24" opacity="0.2"></rect></g><g transform="translate(-10,-10) scale(1,1)"><rect fill="#ffffff" stroke="none" x="738" y="32" width="136" height="24"></rect></g><g transform="translate(-10,-10) scale(1,1)"><path fill="none" stroke="#000000" d="M 738 32 L 874 32 L 874 56 L 738 56 L 738 32 Z Z" stroke-miterlimit="10"></path></g><g transform="translate(-10,-10) scale(1,1)"><g><path fill="none" stroke="none"></path><text fill="#000000" stroke="none" font-family="Arial" font-size="13px" font-style="italic" font-weight="bold" text-decoration="none" x="744.5" y="51.5">AbstractBaseService</text></g></g><g transform="translate(-10,-10) scale(1,1)"><path fill="#C0C0C0" stroke="none" d="M 968 38.5 C 968 32.1487248 973.1487248 27 979.5 27 C 985.8512752 27 991 32.1487248 991 38.5 C 991 44.8512752 985.8512752 50 979.5 50 C 973.1487248 50 968 44.8512752 968 38.5 Z" opacity="0.2"></path></g><g transform="translate(-10,-10) scale(1,1)"><path fill="#ffffff" stroke="none" d="M 961 31.5 C 961 25.1487248 966.1487248 20 972.5 20 C 978.8512752 20 984 25.1487248 984 31.5 C 984 37.8512752 978.8512752 43 972.5 43 C 966.1487248 43 961 37.8512752 961 31.5 Z"></path></g><g transform="translate(-10,-10) scale(1,1)"><path fill="none" stroke="#000000" d="M 961 31.5 C 961 25.1487248 966.1487248 20 972.5 20 C 978.8512752 20 984 25.1487248 984 31.5 C 984 37.8512752 978.8512752 43 972.5 43 C 966.1487248 43 961 37.8512752 961 31.5 Z" stroke-miterlimit="10"></path></g><g transform="translate(-10,-10) scale(1,1)"><g><path fill="none" stroke="none"></path><text fill="#000000" stroke="none" font-family="Arial" font-size="13px" font-style="normal" font-weight="bold" text-decoration="none" x="911.5" y="62.5">ByteSequenceCache</text></g></g></g></svg>