<svg version="1.1" xmlns="http://www.w3.org/2000/svg" xmlns:xlink="http://www.w3.org/1999/xlink" width="728" height="114"><defs></defs><g><g transform="translate(-10,-10) scale(1,1)"><rect fill="#C0C0C0" stroke="none" x="207.5" y="82" width="106" height="39" opacity="0.2"></rect></g><g transform="translate(-10,-10) scale(1,1)"><rect fill="#ffffff" stroke="none" x="200.5" y="75" width="106" height="39"></rect></g><g transform="translate(-10,-10) scale(1,1)"><path fill="none" stroke="#000000" d="M 200.5 75 L 306.5 75 L 306.5 114 L 200.5 114 L 200.5 75 Z Z" stroke-miterlimit="10"></path></g><g transform="translate(-10,-10) scale(1,1)"><g><path fill="none" stroke="none"></path><text fill="#000000" stroke="none" font-family="Arial" font-size="13px" font-style="normal" font-weight="bold" text-decoration="none" x="207.5" y="94.5">XsltReporterRef</text></g></g><g transform="translate(-10,-10) scale(1,1)"><g><path fill="none" stroke="none"></path><text fill="#000000" stroke="none" font-family="Arial" font-size="13px" font-style="normal" font-weight="normal" text-decoration="none" x="272.5" y="109.5">{leaf}</text></g></g><g transform="translate(-10,-10) scale(1,1)"><rect fill="#C0C0C0" stroke="none" x="27" y="27" width="146" height="24" opacity="0.2"></rect></g><g transform="translate(-10,-10) scale(1,1)"><rect fill="#ffffff" stroke="none" x="20" y="20" width="146" height="24"></rect></g><g transform="translate(-10,-10) scale(1,1)"><path fill="none" stroke="#000000" d="M 20 20 L 166 20 L 166 44 L 20 44 L 20 20 Z Z" stroke-miterlimit="10"></path></g><g transform="translate(-10,-10) scale(1,1)"><g><path fill="none" stroke="none"></path><text fill="#000000" stroke="none" font-family="Arial" font-size="13px" font-style="italic" font-weight="bold" text-decoration="none" x="27" y="39.5">AbstractMetadataFixer</text></g></g><g transform="translate(-10,-10) scale(1,1)"><rect fill="#C0C0C0" stroke="none" x="204" y="27" width="113" height="24" opacity="0.2"></rect></g><g transform="translate(-10,-10) scale(1,1)"><rect fill="#ffffff" stroke="none" x="197" y="20" width="113" height="24"></rect></g><g transform="translate(-10,-10) scale(1,1)"><path fill="none" stroke="#000000" d="M 197 20 L 310 20 L 310 44 L 197 44 L 197 20 Z Z" stroke-miterlimit="10"></path></g><g transform="translate(-10,-10) scale(1,1)"><g><path fill="none" stroke="none"></path><text fill="#000000" stroke="none" font-family="Arial" font-size="13px" font-style="italic" font-weight="bold" text-decoration="none" x="204.5" y="39.5">AbstractReporter</text></g></g><g transform="translate(-10,-10) scale(1,1)"><path fill="none" stroke="#000000" d="M 254 74 L 254 60 L 253 45" stroke-miterlimit="10"></path></g><g transform="translate(-10,-10) scale(1,1)"><path fill="#FFFFFF" stroke="none" d="M 262.7524108289812 64.72030636229493 L 253 45 L 245.95163347423477 65.8403581859447"></path></g><g transform="translate(-10,-10) scale(1,1)"><path fill="none" stroke="#000000" d="M 262.7524108289812 64.72030636229493 L 253 45 L 245.95163347423477 65.8403581859447 L 262.7524108289812 64.72030636229493" stroke-miterlimit="10"></path></g><g transform="translate(-10,-10) scale(1,1)"><rect fill="#C0C0C0" stroke="none" x="348" y="27" width="207" height="24" opacity="0.2"></rect></g><g transform="translate(-10,-10) scale(1,1)"><rect fill="#ffffff" stroke="none" x="341" y="20" width="207" height="24"></rect></g><g transform="translate(-10,-10) scale(1,1)"><path fill="none" stroke="#000000" d="M 341 20 L 548 20 L 548 44 L 341 44 L 341 20 Z Z" stroke-miterlimit="10"></path></g><g transform="translate(-10,-10) scale(1,1)"><g><path fill="none" stroke="none"></path><text fill="#000000" stroke="none" font-family="Arial" font-size="13px" font-style="italic" font-weight="bold" text-decoration="none" x="351.5" y="39.5">AbstractImplementationChecker</text></g></g><g transform="translate(-10,-10) scale(1,1)"><rect fill="#C0C0C0" stroke="none" x="586" y="27" width="149" height="24" opacity="0.2"></rect></g><g transform="translate(-10,-10) scale(1,1)"><rect fill="#ffffff" stroke="none" x="579" y="20" width="149" height="24"></rect></g><g transform="translate(-10,-10) scale(1,1)"><path fill="none" stroke="#000000" d="M 579 20 L 728 20 L 728 44 L 579 44 L 579 20 Z Z" stroke-miterlimit="10"></path></g><g transform="translate(-10,-10) scale(1,1)"><g><path fill="none" stroke="none"></path><text fill="#000000" stroke="none" font-family="Arial" font-size="13px" font-style="italic" font-weight="bold" text-decoration="none" x="587" y="39.5">AbstractPolicyChecker</text></g></g><g transform="translate(-10,-10) scale(1,1)"><rect fill="#C0C0C0" stroke="none" x="593.5" y="89.5" width="134" height="24" opacity="0.2"></rect></g><g transform="translate(-10,-10) scale(1,1)"><rect fill="#ffffff" stroke="none" x="586.5" y="82.5" width="134" height="24"></rect></g><g transform="translate(-10,-10) scale(1,1)"><path fill="none" stroke="#000000" d="M 586.5 82.5 L 720.5 82.5 L 720.5 106.5 L 586.5 106.5 L 586.5 82.5 Z Z" stroke-miterlimit="10"></path></g><g transform="translate(-10,-10) scale(1,1)"><g><path fill="none" stroke="none"></path><text fill="#000000" stroke="none" font-family="Arial" font-size="13px" font-style="normal" font-weight="bold" text-decoration="none" x="594.5" y="102">SchematronChecker</text></g></g><g transform="translate(-10,-10) scale(1,1)"><path fill="none" stroke="#000000" d="M 653 82 L 654 60 L 653 45" stroke-miterlimit="10"></path></g><g transform="translate(-10,-10) scale(1,1)"><path fill="#FFFFFF" stroke="none" d="M 662.7524108289812 64.72030636229493 L 653 45 L 645.9516334742348 65.8403581859447"></path></g><g transform="translate(-10,-10) scale(1,1)"><path fill="none" stroke="#000000" d="M 662.7524108289812 64.72030636229493 L 653 45 L 645.9516334742348 65.8403581859447 L 662.7524108289812 64.72030636229493" stroke-miterlimit="10"></path></g></g></svg>