<svg version="1.1" xmlns="http://www.w3.org/2000/svg" xmlns:xlink="http://www.w3.org/1999/xlink" width="786" height="64"><defs></defs><g><g transform="translate(-10,-10) scale(1,1)"><rect fill="#C0C0C0" stroke="none" x="27" y="29.5" width="19.6" height="15" opacity="0.2"></rect></g><g transform="translate(-10,-10) scale(1,1)"><rect fill="#C0C0C0" stroke="none" x="27" y="43.5" width="49" height="25" opacity="0.2"></rect></g><g transform="translate(-10,-10) scale(1,1)"><rect fill="#ffffff" stroke="none" x="20" y="37.5" width="49" height="24"></rect></g><g transform="translate(-10,-10) scale(1,1)"><path fill="none" stroke="#000000" d="M 20 37.5 L 69 37.5 L 69 61.5 L 20 61.5 L 20 37.5 Z Z" stroke-miterlimit="10"></path></g><g transform="translate(-10,-10) scale(1,1)"><rect fill="#ffffff" stroke="none" x="20" y="22.5" width="19.6" height="15"></rect></g><g transform="translate(-10,-10) scale(1,1)"><path fill="none" stroke="#000000" d="M 20 22.5 L 39.6 22.5 L 39.6 37.5 L 20 37.5 L 20 22.5 Z Z" stroke-miterlimit="10"></path></g><g transform="translate(-10,-10) scale(1,1)"><rect fill="#ffffff" stroke="none" x="20" y="36.5" width="49" height="25"></rect></g><g transform="translate(-10,-10) scale(1,1)"><path fill="none" stroke="#000000" d="M 20 36.5 L 69 36.5 L 69 61.5 L 20 61.5 L 20 36.5 Z Z" stroke-miterlimit="10"></path></g><g transform="translate(-10,-10) scale(1,1)"><g><path fill="none" stroke="none"></path><text fill="#000000" stroke="none" font-family="Arial" font-size="13px" font-style="normal" font-weight="bold" text-decoration="none" x="35.5" y="57">org</text></g></g><g transform="translate(-10,-10) scale(1,1)"><rect fill="#C0C0C0" stroke="none" x="107" y="27" width="85" height="44" opacity="0.2"></rect></g><g transform="translate(-10,-10) scale(1,1)"><rect fill="#ffffff" stroke="none" x="100" y="20" width="85" height="44"></rect></g><g transform="translate(-10,-10) scale(1,1)"><path fill="none" stroke="#000000" d="M 100 20 L 185 20 L 185 64 L 100 64 L 100 20 Z Z" stroke-miterlimit="10"></path></g><g transform="translate(-10,-10) scale(1,1)"><path fill="none" stroke="#000000" d="M 100 45 L 185 45" stroke-miterlimit="10"></path></g><g transform="translate(-10,-10) scale(1,1)"><path fill="none" stroke="#000000" d="M 100 55 L 185 55" stroke-miterlimit="10"></path></g><g transform="translate(-10,-10) scale(1,1)"><g><path fill="none" stroke="none"></path><text fill="#000000" stroke="none" font-family="Arial" font-size="13px" font-style="normal" font-weight="bold" text-decoration="none" x="107" y="39.5">InputStream</text></g></g><g transform="translate(-10,-10) scale(1,1)"><rect fill="#C0C0C0" stroke="none" x="223" y="27" width="32" height="44" opacity="0.2"></rect></g><g transform="translate(-10,-10) scale(1,1)"><rect fill="#ffffff" stroke="none" x="216" y="20" width="32" height="44"></rect></g><g transform="translate(-10,-10) scale(1,1)"><path fill="none" stroke="#000000" d="M 216 20 L 248 20 L 248 64 L 216 64 L 216 20 Z Z" stroke-miterlimit="10"></path></g><g transform="translate(-10,-10) scale(1,1)"><path fill="none" stroke="#000000" d="M 216 45 L 248 45" stroke-miterlimit="10"></path></g><g transform="translate(-10,-10) scale(1,1)"><path fill="none" stroke="#000000" d="M 216 55 L 248 55" stroke-miterlimit="10"></path></g><g transform="translate(-10,-10) scale(1,1)"><g><path fill="none" stroke="none"></path><text fill="#000000" stroke="none" font-family="Arial" font-size="13px" font-style="normal" font-weight="bold" text-decoration="none" x="221.5" y="39.5">File</text></g></g><g transform="translate(-10,-10) scale(1,1)"><rect fill="#C0C0C0" stroke="none" x="286" y="27" width="49" height="44" opacity="0.2"></rect></g><g transform="translate(-10,-10) scale(1,1)"><rect fill="#ffffff" stroke="none" x="279" y="20" width="49" height="44"></rect></g><g transform="translate(-10,-10) scale(1,1)"><path fill="none" stroke="#000000" d="M 279 20 L 328 20 L 328 64 L 279 64 L 279 20 Z Z" stroke-miterlimit="10"></path></g><g transform="translate(-10,-10) scale(1,1)"><path fill="none" stroke="#000000" d="M 279 45 L 328 45" stroke-miterlimit="10"></path></g><g transform="translate(-10,-10) scale(1,1)"><path fill="none" stroke="#000000" d="M 279 55 L 328 55" stroke-miterlimit="10"></path></g><g transform="translate(-10,-10) scale(1,1)"><g><path fill="none" stroke="none"></path><text fill="#000000" stroke="none" font-family="Arial" font-size="13px" font-style="normal" font-weight="bold" text-decoration="none" x="284.5" y="39.5">Object</text></g></g><g transform="translate(-10,-10) scale(1,1)"><rect fill="#C0C0C0" stroke="none" x="366" y="27" width="29" height="44" opacity="0.2"></rect></g><g transform="translate(-10,-10) scale(1,1)"><rect fill="#ffffff" stroke="none" x="359" y="20" width="29" height="44"></rect></g><g transform="translate(-10,-10) scale(1,1)"><path fill="none" stroke="#000000" d="M 359 20 L 388 20 L 388 64 L 359 64 L 359 20 Z Z" stroke-miterlimit="10"></path></g><g transform="translate(-10,-10) scale(1,1)"><path fill="none" stroke="#000000" d="M 359 45 L 388 45" stroke-miterlimit="10"></path></g><g transform="translate(-10,-10) scale(1,1)"><path fill="none" stroke="#000000" d="M 359 55 L 388 55" stroke-miterlimit="10"></path></g><g transform="translate(-10,-10) scale(1,1)"><g><path fill="none" stroke="none"></path><text fill="#000000" stroke="none" font-family="Arial" font-size="13px" font-style="normal" font-weight="bold" text-decoration="none" x="363.5" y="39.5">Set</text></g></g><g transform="translate(-10,-10) scale(1,1)"><rect fill="#C0C0C0" stroke="none" x="426" y="27" width="76" height="44" opacity="0.2"></rect></g><g transform="translate(-10,-10) scale(1,1)"><rect fill="#ffffff" stroke="none" x="419" y="20" width="76" height="44"></rect></g><g transform="translate(-10,-10) scale(1,1)"><path fill="none" stroke="#000000" d="M 419 20 L 495 20 L 495 64 L 419 64 L 419 20 Z Z" stroke-miterlimit="10"></path></g><g transform="translate(-10,-10) scale(1,1)"><path fill="none" stroke="#000000" d="M 419 45 L 495 45" stroke-miterlimit="10"></path></g><g transform="translate(-10,-10) scale(1,1)"><path fill="none" stroke="#000000" d="M 419 55 L 495 55" stroke-miterlimit="10"></path></g><g transform="translate(-10,-10) scale(1,1)"><g><path fill="none" stroke="none"></path><text fill="#000000" stroke="none" font-family="Arial" font-size="13px" font-style="normal" font-weight="bold" text-decoration="none" x="425" y="39.5">MediaType</text></g></g><g transform="translate(-10,-10) scale(1,1)"><rect fill="#C0C0C0" stroke="none" x="533" y="27" width="35" height="44" opacity="0.2"></rect></g><g transform="translate(-10,-10) scale(1,1)"><rect fill="#ffffff" stroke="none" x="526" y="20" width="35" height="44"></rect></g><g transform="translate(-10,-10) scale(1,1)"><path fill="none" stroke="#000000" d="M 526 20 L 561 20 L 561 64 L 526 64 L 526 20 Z Z" stroke-miterlimit="10"></path></g><g transform="translate(-10,-10) scale(1,1)"><path fill="none" stroke="#000000" d="M 526 45 L 561 45" stroke-miterlimit="10"></path></g><g transform="translate(-10,-10) scale(1,1)"><path fill="none" stroke="#000000" d="M 526 55 L 561 55" stroke-miterlimit="10"></path></g><g transform="translate(-10,-10) scale(1,1)"><g><path fill="none" stroke="none"></path><text fill="#000000" stroke="none" font-family="Arial" font-size="13px" font-style="normal" font-weight="bold" text-decoration="none" x="531" y="39.5">Map</text></g></g><g transform="translate(-10,-10) scale(1,1)"><rect fill="#C0C0C0" stroke="none" x="599" y="27" width="31" height="44" opacity="0.2"></rect></g><g transform="translate(-10,-10) scale(1,1)"><rect fill="#ffffff" stroke="none" x="592" y="20" width="31" height="44"></rect></g><g transform="translate(-10,-10) scale(1,1)"><path fill="none" stroke="#000000" d="M 592 20 L 623 20 L 623 64 L 592 64 L 592 20 Z Z" stroke-miterlimit="10"></path></g><g transform="translate(-10,-10) scale(1,1)"><path fill="none" stroke="#000000" d="M 592 45 L 623 45" stroke-miterlimit="10"></path></g><g transform="translate(-10,-10) scale(1,1)"><path fill="none" stroke="#000000" d="M 592 55 L 623 55" stroke-miterlimit="10"></path></g><g transform="translate(-10,-10) scale(1,1)"><g><path fill="none" stroke="none"></path><text fill="#000000" stroke="none" font-family="Arial" font-size="13px" font-style="normal" font-weight="bold" text-decoration="none" x="596.5" y="39.5">URI</text></g></g><g transform="translate(-10,-10) scale(1,1)"><rect fill="#C0C0C0" stroke="none" x="661" y="27" width="132" height="44" opacity="0.2"></rect></g><g transform="translate(-10,-10) scale(1,1)"><rect fill="#ffffff" stroke="none" x="654" y="20" width="132" height="44"></rect></g><g transform="translate(-10,-10) scale(1,1)"><path fill="none" stroke="#000000" d="M 654 20 L 786 20 L 786 64 L 654 64 L 654 20 Z Z" stroke-miterlimit="10"></path></g><g transform="translate(-10,-10) scale(1,1)"><path fill="none" stroke="#000000" d="M 654 45 L 786 45" stroke-miterlimit="10"></path></g><g transform="translate(-10,-10) scale(1,1)"><path fill="none" stroke="#000000" d="M 654 55 L 786 55" stroke-miterlimit="10"></path></g><g transform="translate(-10,-10) scale(1,1)"><g><path fill="none" stroke="none"></path><text fill="#000000" stroke="none" font-family="Arial" font-size="13px" font-style="normal" font-weight="bold" text-decoration="none" x="663" y="39.5">NotFoundException</text></g></g></g></svg>