<svg version="1.1" xmlns="http://www.w3.org/2000/svg" xmlns:xlink="http://www.w3.org/1999/xlink" width="266" height="231"><defs></defs><g><g transform="translate(-9,-9) scale(1,1)"><rect fill="#C0C0C0" stroke="none" x="149.5" y="27" width="19.599999999999994" height="15" opacity="0.2"></rect></g><g transform="translate(-9,-9) scale(1,1)"><rect fill="#C0C0C0" stroke="none" x="149.5" y="41" width="49" height="25" opacity="0.2"></rect></g><g transform="translate(-9,-9) scale(1,1)"><rect fill="#ffffff" stroke="none" x="142.5" y="35" width="49" height="24"></rect></g><g transform="translate(-9,-9) scale(1,1)"><path fill="none" stroke="#000000" d="M 142.5 35 L 191.5 35 L 191.5 59 L 142.5 59 L 142.5 35 Z Z" stroke-miterlimit="10"></path></g><g transform="translate(-9,-9) scale(1,1)"><rect fill="#ffffff" stroke="none" x="142.5" y="20" width="19.599999999999994" height="15"></rect></g><g transform="translate(-9,-9) scale(1,1)"><path fill="none" stroke="#000000" d="M 142.5 20 L 162.1 20 L 162.1 35 L 142.5 35 L 142.5 20 Z Z" stroke-miterlimit="10"></path></g><g transform="translate(-9,-9) scale(1,1)"><rect fill="#ffffff" stroke="none" x="142.5" y="34" width="49" height="25"></rect></g><g transform="translate(-9,-9) scale(1,1)"><path fill="none" stroke="#000000" d="M 142.5 34 L 191.5 34 L 191.5 59 L 142.5 59 L 142.5 34 Z Z" stroke-miterlimit="10"></path></g><g transform="translate(-9,-9) scale(1,1)"><g><path fill="none" stroke="none"></path><text fill="#000000" stroke="none" font-family="Arial" font-size="13px" font-style="normal" font-weight="bold" text-decoration="none" x="158" y="54.5">org</text></g></g><g transform="translate(-9,-9) scale(1,1)"><rect fill="#C0C0C0" stroke="none" x="115.5" y="97" width="46.80000000000001" height="15" opacity="0.2"></rect></g><g transform="translate(-9,-9) scale(1,1)"><rect fill="#C0C0C0" stroke="none" x="115.5" y="111" width="117" height="25" opacity="0.2"></rect></g><g transform="translate(-9,-9) scale(1,1)"><rect fill="#ffffff" stroke="none" x="108.5" y="105" width="117" height="24"></rect></g><g transform="translate(-9,-9) scale(1,1)"><path fill="none" stroke="#000000" d="M 108.5 105 L 225.5 105 L 225.5 129 L 108.5 129 L 108.5 105 Z Z" stroke-miterlimit="10"></path></g><g transform="translate(-9,-9) scale(1,1)"><rect fill="#ffffff" stroke="none" x="108.5" y="90" width="46.80000000000001" height="15"></rect></g><g transform="translate(-9,-9) scale(1,1)"><path fill="none" stroke="#000000" d="M 108.5 90 L 155.3 90 L 155.3 105 L 108.5 105 L 108.5 90 Z Z" stroke-miterlimit="10"></path></g><g transform="translate(-9,-9) scale(1,1)"><rect fill="#ffffff" stroke="none" x="108.5" y="104" width="117" height="25"></rect></g><g transform="translate(-9,-9) scale(1,1)"><path fill="none" stroke="#000000" d="M 108.5 104 L 225.5 104 L 225.5 129 L 108.5 129 L 108.5 104 Z Z" stroke-miterlimit="10"></path></g><g transform="translate(-9,-9) scale(1,1)"><g><path fill="none" stroke="none"></path><text fill="#000000" stroke="none" font-family="Arial" font-size="13px" font-style="normal" font-weight="bold" text-decoration="none" x="117.5" y="124.5">openpreservation</text></g></g><g transform="translate(-9,-9) scale(1,1)"><rect fill="#C0C0C0" stroke="none" x="146.5" y="167" width="22" height="15" opacity="0.2"></rect></g><g transform="translate(-9,-9) scale(1,1)"><rect fill="#C0C0C0" stroke="none" x="146.5" y="181" width="55" height="25" opacity="0.2"></rect></g><g transform="translate(-9,-9) scale(1,1)"><rect fill="#ffffff" stroke="none" x="139.5" y="175" width="55" height="24"></rect></g><g transform="translate(-9,-9) scale(1,1)"><path fill="none" stroke="#000000" d="M 139.5 175 L 194.5 175 L 194.5 199 L 139.5 199 L 139.5 175 Z Z" stroke-miterlimit="10"></path></g><g transform="translate(-9,-9) scale(1,1)"><rect fill="#ffffff" stroke="none" x="139.5" y="160" width="22" height="15"></rect></g><g transform="translate(-9,-9) scale(1,1)"><path fill="none" stroke="#000000" d="M 139.5 160 L 161.5 160 L 161.5 175 L 139.5 175 L 139.5 160 Z Z" stroke-miterlimit="10"></path></g><g transform="translate(-9,-9) scale(1,1)"><rect fill="#ffffff" stroke="none" x="139.5" y="174" width="55" height="25"></rect></g><g transform="translate(-9,-9) scale(1,1)"><path fill="none" stroke="#000000" d="M 139.5 174 L 194.5 174 L 194.5 199 L 139.5 199 L 139.5 174 Z Z" stroke-miterlimit="10"></path></g><g transform="translate(-9,-9) scale(1,1)"><g><path fill="none" stroke="none"></path><text fill="#000000" stroke="none" font-family="Arial" font-size="13px" font-style="normal" font-weight="bold" text-decoration="none" x="145.5" y="194.5">verapdf</text></g></g><g transform="translate(-9,-9) scale(1,1)"><rect fill="#C0C0C0" stroke="none" x="27" y="237" width="34.4" height="15" opacity="0.2"></rect></g><g transform="translate(-9,-9) scale(1,1)"><rect fill="#C0C0C0" stroke="none" x="27" y="251" width="86" height="25" opacity="0.2"></rect></g><g transform="translate(-9,-9) scale(1,1)"><rect fill="#ffffff" stroke="none" x="20" y="245" width="86" height="24"></rect></g><g transform="translate(-9,-9) scale(1,1)"><path fill="none" stroke="#000000" d="M 20 245 L 106 245 L 106 269 L 20 269 L 20 245 Z Z" stroke-miterlimit="10"></path></g><g transform="translate(-9,-9) scale(1,1)"><rect fill="#ffffff" stroke="none" x="20" y="230" width="34.4" height="15"></rect></g><g transform="translate(-9,-9) scale(1,1)"><path fill="none" stroke="#000000" d="M 20 230 L 54.4 230 L 54.4 245 L 20 245 L 20 230 Z Z" stroke-miterlimit="10"></path></g><g transform="translate(-9,-9) scale(1,1)"><rect fill="#ffffff" stroke="none" x="20" y="244" width="86" height="25"></rect></g><g transform="translate(-9,-9) scale(1,1)"><path fill="none" stroke="#000000" d="M 20 244 L 106 244 L 106 269 L 20 269 L 20 244 Z Z" stroke-miterlimit="10"></path></g><g transform="translate(-9,-9) scale(1,1)"><g><path fill="none" stroke="none"></path><text fill="#000000" stroke="none" font-family="Arial" font-size="13px" font-style="normal" font-weight="bold" text-decoration="none" x="27.5" y="264.5">components</text></g></g><g transform="translate(-9,-9) scale(1,1)"><rect fill="#C0C0C0" stroke="none" x="144" y="237" width="24" height="15" opacity="0.2"></rect></g><g transform="translate(-9,-9) scale(1,1)"><rect fill="#C0C0C0" stroke="none" x="144" y="251" width="60" height="25" opacity="0.2"></rect></g><g transform="translate(-9,-9) scale(1,1)"><rect fill="#ffffff" stroke="none" x="137" y="245" width="60" height="24"></rect></g><g transform="translate(-9,-9) scale(1,1)"><path fill="none" stroke="#000000" d="M 137 245 L 197 245 L 197 269 L 137 269 L 137 245 Z Z" stroke-miterlimit="10"></path></g><g transform="translate(-9,-9) scale(1,1)"><rect fill="#ffffff" stroke="none" x="137" y="230" width="24" height="15"></rect></g><g transform="translate(-9,-9) scale(1,1)"><path fill="none" stroke="#000000" d="M 137 230 L 161 230 L 161 245 L 137 245 L 137 230 Z Z" stroke-miterlimit="10"></path></g><g transform="translate(-9,-9) scale(1,1)"><rect fill="#ffffff" stroke="none" x="137" y="244" width="60" height="25"></rect></g><g transform="translate(-9,-9) scale(1,1)"><path fill="none" stroke="#000000" d="M 137 244 L 197 244 L 197 269 L 137 269 L 137 244 Z Z" stroke-miterlimit="10"></path></g><g transform="translate(-9,-9) scale(1,1)"><g><path fill="none" stroke="none"></path><text fill="#000000" stroke="none" font-family="Arial" font-size="13px" font-style="normal" font-weight="bold" text-decoration="none" x="142.5" y="264.5">services</text></g></g><g transform="translate(-9,-9) scale(1,1)"><rect fill="#C0C0C0" stroke="none" x="235" y="237" width="28" height="15" opacity="0.2"></rect></g><g transform="translate(-9,-9) scale(1,1)"><rect fill="#C0C0C0" stroke="none" x="235" y="251" width="70" height="25" opacity="0.2"></rect></g><g transform="translate(-9,-9) scale(1,1)"><rect fill="#ffffff" stroke="none" x="228" y="245" width="70" height="24"></rect></g><g transform="translate(-9,-9) scale(1,1)"><path fill="none" stroke="#000000" d="M 228 245 L 298 245 L 298 269 L 228 269 L 228 245 Z Z" stroke-miterlimit="10"></path></g><g transform="translate(-9,-9) scale(1,1)"><rect fill="#ffffff" stroke="none" x="228" y="230" width="28" height="15"></rect></g><g transform="translate(-9,-9) scale(1,1)"><path fill="none" stroke="#000000" d="M 228 230 L 256 230 L 256 245 L 228 245 L 228 230 Z Z" stroke-miterlimit="10"></path></g><g transform="translate(-9,-9) scale(1,1)"><rect fill="#ffffff" stroke="none" x="228" y="244" width="70" height="25"></rect></g><g transform="translate(-9,-9) scale(1,1)"><path fill="none" stroke="#000000" d="M 228 244 L 298 244 L 298 269 L 228 269 L 228 244 Z Z" stroke-miterlimit="10"></path></g><g transform="translate(-9,-9) scale(1,1)"><g><path fill="none" stroke="none"></path><text fill="#000000" stroke="none" font-family="Arial" font-size="13px" font-style="normal" font-weight="bold" text-decoration="none" x="234.5" y="264.5">resources</text></g></g><g transform="translate(-9,-9) scale(1,1)"><path fill="none" stroke="#000000" d="M 168 89 L 168 75 L 168 60" stroke-miterlimit="10"></path></g><g transform="translate(-9,-9) scale(1,1)"><path fill="#FFFFFF" stroke="none" d="M 161 67 C 161 63.1340064 164.1340064 60 168 60 C 171.8659936 60 175 63.1340064 175 67 C 175 70.8659936 171.8659936 74 168 74 C 164.1340064 74 161 70.8659936 161 67 Z"></path></g><g transform="translate(-9,-9) scale(1,1)"><path fill="none" stroke="#000000" d="M 161 67 C 161 63.1340064 164.1340064 60 168 60 C 171.8659936 60 175 63.1340064 175 67 C 175 70.8659936 171.8659936 74 168 74 C 164.1340064 74 161 70.8659936 161 67 Z" stroke-miterlimit="10"></path></g><g transform="translate(-9,-9) scale(1,1)"><path fill="none" stroke="#000000" d="M 168 74 L 168 60" stroke-miterlimit="10"></path></g><g transform="translate(-9,-9) scale(1,1)"><path fill="none" stroke="#000000" d="M 175 67 L 161 67" stroke-miterlimit="10"></path></g><g transform="translate(-9,-9) scale(1,1)"><path fill="none" stroke="#000000" d="M 168 159 L 168 145 L 168 130" stroke-miterlimit="10"></path></g><g transform="translate(-9,-9) scale(1,1)"><path fill="#FFFFFF" stroke="none" d="M 161 137 C 161 133.1340064 164.1340064 130 168 130 C 171.8659936 130 175 133.1340064 175 137 C 175 140.8659936 171.8659936 144 168 144 C 164.1340064 144 161 140.8659936 161 137 Z"></path></g><g transform="translate(-9,-9) scale(1,1)"><path fill="none" stroke="#000000" d="M 161 137 C 161 133.1340064 164.1340064 130 168 130 C 171.8659936 130 175 133.1340064 175 137 C 175 140.8659936 171.8659936 144 168 144 C 164.1340064 144 161 140.8659936 161 137 Z" stroke-miterlimit="10"></path></g><g transform="translate(-9,-9) scale(1,1)"><path fill="none" stroke="#000000" d="M 168 144 L 168 130" stroke-miterlimit="10"></path></g><g transform="translate(-9,-9) scale(1,1)"><path fill="none" stroke="#000000" d="M 175 137 L 161 137" stroke-miterlimit="10"></path></g><g transform="translate(-9,-9) scale(1,1)"><path fill="none" stroke="#000000" d="M 64 229 L 64 215 L 139 189" stroke-miterlimit="10"></path></g><g transform="translate(-9,-9) scale(1,1)"><path fill="#FFFFFF" stroke="none" d="M 125.38614661050963 191.29280250835666 C 125.38614661050963 187.42680890835666 128.52015301050963 184.29280250835666 132.38614661050963 184.29280250835666 C 136.25214021050962 184.29280250835666 139.38614661050963 187.42680890835666 139.38614661050963 191.29280250835666 C 139.38614661050963 195.15879610835665 136.25214021050962 198.29280250835666 132.38614661050963 198.29280250835666 C 128.52015301050963 198.29280250835666 125.38614661050963 195.15879610835665 125.38614661050963 191.29280250835666 Z"></path></g><g transform="translate(-9,-9) scale(1,1)"><path fill="none" stroke="#000000" d="M 125.38614661050963 191.29280250835666 C 125.38614661050963 187.42680890835666 128.52015301050963 184.29280250835666 132.38614661050963 184.29280250835666 C 136.25214021050962 184.29280250835666 139.38614661050963 187.42680890835666 139.38614661050963 191.29280250835666 C 139.38614661050963 195.15879610835665 136.25214021050962 198.29280250835666 132.38614661050963 198.29280250835666 C 128.52015301050963 198.29280250835666 125.38614661050963 195.15879610835665 125.38614661050963 191.29280250835666 Z" stroke-miterlimit="10"></path></g><g transform="translate(-9,-9) scale(1,1)"><path fill="none" stroke="#000000" d="M 125.77229322101924 193.58560501671334 L 139 189" stroke-miterlimit="10"></path></g><g transform="translate(-9,-9) scale(1,1)"><path fill="none" stroke="#000000" d="M 134.67894911886629 197.90665589784703 L 130.09334410215297 184.67894911886629" stroke-miterlimit="10"></path></g><g transform="translate(-9,-9) scale(1,1)"><path fill="none" stroke="#000000" d="M 168 229 L 168 215 L 168 200" stroke-miterlimit="10"></path></g><g transform="translate(-9,-9) scale(1,1)"><path fill="#FFFFFF" stroke="none" d="M 161 207 C 161 203.1340064 164.1340064 200 168 200 C 171.8659936 200 175 203.1340064 175 207 C 175 210.8659936 171.8659936 214 168 214 C 164.1340064 214 161 210.8659936 161 207 Z"></path></g><g transform="translate(-9,-9) scale(1,1)"><path fill="none" stroke="#000000" d="M 161 207 C 161 203.1340064 164.1340064 200 168 200 C 171.8659936 200 175 203.1340064 175 207 C 175 210.8659936 171.8659936 214 168 214 C 164.1340064 214 161 210.8659936 161 207 Z" stroke-miterlimit="10"></path></g><g transform="translate(-9,-9) scale(1,1)"><path fill="none" stroke="#000000" d="M 168 214 L 168 200" stroke-miterlimit="10"></path></g><g transform="translate(-9,-9) scale(1,1)"><path fill="none" stroke="#000000" d="M 175 207 L 161 207" stroke-miterlimit="10"></path></g><g transform="translate(-9,-9) scale(1,1)"><path fill="none" stroke="#000000" d="M 264 229 L 264 215 L 196 190" stroke-miterlimit="10"></path></g><g transform="translate(-9,-9) scale(1,1)"><path fill="#FFFFFF" stroke="none" d="M 195.5700498737738 192.41545951241685 C 195.5700498737738 188.54946591241685 198.7040562737738 185.41545951241685 202.5700498737738 185.41545951241685 C 206.4360434737738 185.41545951241685 209.5700498737738 188.54946591241685 209.5700498737738 192.41545951241685 C 209.5700498737738 196.28145311241684 206.4360434737738 199.41545951241685 202.5700498737738 199.41545951241685 C 198.7040562737738 199.41545951241685 195.5700498737738 196.28145311241684 195.5700498737738 192.41545951241685 Z"></path></g><g transform="translate(-9,-9) scale(1,1)"><path fill="none" stroke="#000000" d="M 195.5700498737738 192.41545951241685 C 195.5700498737738 188.54946591241685 198.7040562737738 185.41545951241685 202.5700498737738 185.41545951241685 C 206.4360434737738 185.41545951241685 209.5700498737738 188.54946591241685 209.5700498737738 192.41545951241685 C 209.5700498737738 196.28145311241684 206.4360434737738 199.41545951241685 202.5700498737738 199.41545951241685 C 198.7040562737738 199.41545951241685 195.5700498737738 196.28145311241684 195.5700498737738 192.41545951241685 Z" stroke-miterlimit="10"></path></g><g transform="translate(-9,-9) scale(1,1)"><path fill="none" stroke="#000000" d="M 209.1400997475476 194.83091902483366 L 196 190" stroke-miterlimit="10"></path></g><g transform="translate(-9,-9) scale(1,1)"><path fill="none" stroke="#000000" d="M 204.98550938619064 185.84540963864305 L 200.15459036135695 198.98550938619064" stroke-miterlimit="10"></path></g></g></svg>