<svg version="1.1" xmlns="http://www.w3.org/2000/svg" xmlns:xlink="http://www.w3.org/1999/xlink" width="688" height="420"><defs></defs><g><g transform="translate(6,-42) scale(1,1)"><path fill="#C0C0C0" stroke="none" d="M 43 115 L 82.2 115 L 99 131.8 L 99 185 L 43 185" opacity="0.2"></path></g><g transform="translate(6,-42) scale(1,1)"><path fill="#ffffff" stroke="none" d="M 36 108 L 75.2 108 L 92 124.8 L 92 178 L 36 178"></path></g><g transform="translate(6,-42) scale(1,1)"><path fill="none" stroke="#000000" d="M 36 108 L 75.2 108 L 92 124.8 L 92 178 L 36 178 L 36 108" stroke-miterlimit="10"></path></g><g transform="translate(6,-42) scale(1,1)"><path fill="none" stroke="#000000" d="M 75.2 108 L 75.2 124.8 L 92 124.8 L 75.2 108" stroke-miterlimit="10"></path></g><g transform="translate(6,-42) scale(1,1)"><g><path fill="none" stroke="none"></path><text fill="#000000" stroke="none" font-family="Arial" font-size="13px" font-style="normal" font-weight="bold" text-decoration="none" x="51" y="197.5">PDF</text><path fill="none" stroke="#000000" d="M 77 197.5 L 51 197.5" stroke-miterlimit="10"></path></g></g><g transform="translate(6,-42) scale(1,1)"><path fill="#C0C0C0" stroke="none" d="M 207 69 L 484 69 L 484 458 L 207 458" opacity="0.2"></path></g><g transform="translate(6,-42) scale(1,1)"><path fill="#C0C0C0" stroke="none" d="M 207 69 L 217 59 L 494 59 L 484 69" opacity="0.2"></path></g><g transform="translate(6,-42) scale(1,1)"><path fill="#C0C0C0" stroke="none" d="M 494 59 L 484 69 L 484 458 L 494 448" opacity="0.2"></path></g><g transform="translate(6,-42) scale(1,1)"><path fill="#ffffff" stroke="none" d="M 200 62 L 477 62 L 477 451 L 200 451"></path></g><g transform="translate(6,-42) scale(1,1)"><path fill="#ffffff" stroke="none" d="M 200 62 L 210 52 L 487 52 L 477 62"></path></g><g transform="translate(6,-42) scale(1,1)"><path fill="#ffffff" stroke="none" d="M 487 52 L 477 62 L 477 451 L 487 441"></path></g><g transform="translate(6,-42) scale(1,1)"><path fill="none" stroke="#000000" d="M 200 62 L 477 62 L 477 451 L 200 451 L 200 62" stroke-miterlimit="10"></path></g><g transform="translate(6,-42) scale(1,1)"><path fill="none" stroke="#000000" d="M 200 62 L 210 52 L 487 52 L 477 62 L 200 62" stroke-miterlimit="10"></path></g><g transform="translate(6,-42) scale(1,1)"><path fill="none" stroke="#000000" d="M 487 52 L 477 62 L 477 451 L 487 441 L 487 52" stroke-miterlimit="10"></path></g><g transform="translate(6,-42) scale(1,1)"><g><path fill="none" stroke="none"></path><text fill="#000000" stroke="none" font-family="Arial" font-size="13px" font-style="normal" font-weight="bold" text-decoration="none" x="230.5" y="81.5">veraPDF Conformance Checker Shell</text><path fill="none" stroke="#000000" d="M 453.5 81.5 L 224.5 81.5" stroke-miterlimit="10"></path></g></g><g transform="translate(6,-42) scale(1,1)"><path fill="#C0C0C0" stroke="none" d="M 59.4 308 L 100.84 308 L 118.6 325.76 L 118.6 382 L 59.4 382" opacity="0.2"></path></g><g transform="translate(6,-42) scale(1,1)"><path fill="#ffffff" stroke="none" d="M 52.400000000000006 301 L 93.84 301 L 111.6 318.76 L 111.6 375 L 52.400000000000006 375"></path></g><g transform="translate(6,-42) scale(1,1)"><path fill="none" stroke="#000000" d="M 52.400000000000006 301 L 93.84 301 L 111.6 318.76 L 111.6 375 L 52.400000000000006 375 L 52.400000000000006 301" stroke-miterlimit="10"></path></g><g transform="translate(6,-42) scale(1,1)"><path fill="none" stroke="#000000" d="M 93.84 301 L 93.84 318.76 L 111.6 318.76 L 93.84 301" stroke-miterlimit="10"></path></g><g transform="translate(6,-42) scale(1,1)"><g><path fill="none" stroke="none"></path><text fill="#000000" stroke="none" font-family="Arial" font-size="13px" font-style="normal" font-weight="bold" text-decoration="none" x="34" y="394.5">Report Template</text><path fill="none" stroke="#000000" d="M 133 394.5 L 31 394.5" stroke-miterlimit="10"></path></g></g><g transform="translate(6,-42) scale(1,1)"><path fill="#C0C0C0" stroke="none" d="M 59.9 131 L 101.34 131 L 119.1 148.76 L 119.1 205 L 59.9 205" opacity="0.2"></path></g><g transform="translate(6,-42) scale(1,1)"><path fill="#ffffff" stroke="none" d="M 52.900000000000006 124 L 94.34 124 L 112.1 141.76 L 112.1 198 L 52.900000000000006 198"></path></g><g transform="translate(6,-42) scale(1,1)"><path fill="none" stroke="#000000" d="M 52.900000000000006 124 L 94.34 124 L 112.1 141.76 L 112.1 198 L 52.900000000000006 198 L 52.900000000000006 124" stroke-miterlimit="10"></path></g><g transform="translate(6,-42) scale(1,1)"><path fill="none" stroke="#000000" d="M 94.34 124 L 94.34 141.76 L 112.1 141.76 L 94.34 124" stroke-miterlimit="10"></path></g><g transform="translate(6,-42) scale(1,1)"><g><path fill="none" stroke="none"></path><text fill="#000000" stroke="none" font-family="Arial" font-size="13px" font-style="normal" font-weight="bold" text-decoration="none" x="19" y="217.5">PDF Document Batch</text><path fill="none" stroke="#000000" d="M 148.5 217.5 L 16.5 217.5" stroke-miterlimit="10"></path></g></g><g transform="translate(6,-42) scale(1,1)"><path fill="#C0C0C0" stroke="none" d="M 580.2 306 L 623.32 306 L 641.8000000000001 324.48 L 641.8000000000001 383 L 580.2 383" opacity="0.2"></path></g><g transform="translate(6,-42) scale(1,1)"><path fill="#ffffff" stroke="none" d="M 573.2 299 L 616.3199999999999 299 L 634.8 317.47999999999996 L 634.8 376 L 573.2 376"></path></g><g transform="translate(6,-42) scale(1,1)"><path fill="none" stroke="#000000" d="M 573.2 299 L 616.3199999999999 299 L 634.8 317.47999999999996 L 634.8 376 L 573.2 376 L 573.2 299" stroke-miterlimit="10"></path></g><g transform="translate(6,-42) scale(1,1)"><path fill="none" stroke="#000000" d="M 616.3199999999999 299 L 616.3199999999999 317.47999999999996 L 634.8 317.47999999999996 L 616.3199999999999 299" stroke-miterlimit="10"></path></g><g transform="translate(6,-42) scale(1,1)"><g><path fill="none" stroke="none"></path><text fill="#000000" stroke="none" font-family="Arial" font-size="13px" font-style="normal" font-weight="bold" text-decoration="none" x="547.5" y="395.5">Reformatted Report</text><path fill="none" stroke="#000000" d="M 664 395.5 L 544 395.5" stroke-miterlimit="10"></path></g></g><g transform="translate(6,-42) scale(1,1)"><rect fill="#C0C0C0" stroke="none" x="265" y="315" width="170" height="79" opacity="0.2"></rect></g><g transform="translate(6,-42) scale(1,1)"><rect fill="#ffffff" stroke="none" x="258" y="308" width="170" height="79"></rect></g><g transform="translate(6,-42) scale(1,1)"><path fill="none" stroke="#000000" d="M 258 308 L 428 308 L 428 387 L 258 387 L 258 308 Z Z" stroke-miterlimit="10"></path></g><g transform="translate(6,-42) scale(1,1)"><rect fill="#ffffff" stroke="none" x="248" y="315" width="20" height="10"></rect></g><g transform="translate(6,-42) scale(1,1)"><path fill="none" stroke="#000000" d="M 248 315 L 268 315 L 268 325 L 248 325 L 248 315 Z Z" stroke-miterlimit="10"></path></g><g transform="translate(6,-42) scale(1,1)"><rect fill="#ffffff" stroke="none" x="248" y="335" width="20" height="10"></rect></g><g transform="translate(6,-42) scale(1,1)"><path fill="none" stroke="#000000" d="M 248 335 L 268 335 L 268 345 L 248 345 L 248 335 Z Z" stroke-miterlimit="10"></path></g><g transform="translate(6,-42) scale(1,1)"><g><path fill="none" stroke="none"></path><text fill="#000000" stroke="none" font-family="Arial" font-size="13px" font-style="normal" font-weight="bold" text-decoration="none" x="323.5" y="327.5">Reporter</text><path fill="none" stroke="#000000" d="M 374.5 327.5 L 321.5 327.5" stroke-miterlimit="10"></path></g></g><g transform="translate(6,-42) scale(1,1)"><rect fill="#C0C0C0" stroke="none" x="265" y="139" width="170" height="76" opacity="0.2"></rect></g><g transform="translate(6,-42) scale(1,1)"><rect fill="#ffffff" stroke="none" x="258" y="132" width="170" height="76"></rect></g><g transform="translate(6,-42) scale(1,1)"><path fill="none" stroke="#000000" d="M 258 132 L 428 132 L 428 208 L 258 208 L 258 132 Z Z" stroke-miterlimit="10"></path></g><g transform="translate(6,-42) scale(1,1)"><rect fill="#ffffff" stroke="none" x="248" y="139" width="20" height="10"></rect></g><g transform="translate(6,-42) scale(1,1)"><path fill="none" stroke="#000000" d="M 248 139 L 268 139 L 268 149 L 248 149 L 248 139 Z Z" stroke-miterlimit="10"></path></g><g transform="translate(6,-42) scale(1,1)"><rect fill="#ffffff" stroke="none" x="248" y="159" width="20" height="10"></rect></g><g transform="translate(6,-42) scale(1,1)"><path fill="none" stroke="#000000" d="M 248 159 L 268 159 L 268 169 L 248 169 L 248 159 Z Z" stroke-miterlimit="10"></path></g><g transform="translate(6,-42) scale(1,1)"><g><path fill="none" stroke="none"></path><text fill="#000000" stroke="none" font-family="Arial" font-size="13px" font-style="normal" font-weight="bold" text-decoration="none" x="277.5" y="151.5">Implementation Checker</text><path fill="none" stroke="#000000" d="M 423.5 151.5 L 272.5 151.5" stroke-miterlimit="10"></path></g></g><g transform="translate(6,-42) scale(1,1)"><path fill="none" stroke="#000000" d="M 154 172 L 247 171" stroke-miterlimit="10"></path></g><g transform="translate(6,-42) scale(1,1)"><path fill="none" stroke="#000000" d="M 236.88317361252243 175.31854418127656 L 247 171 L 236.79265158189324 166.899995332762" stroke-miterlimit="10"></path></g><g transform="translate(6,-42) scale(1,1)"><g><path fill="none" stroke="none"></path><text fill="#000000" stroke="none" font-family="Arial" font-size="13px" font-style="normal" font-weight="normal" text-decoration="none" x="140" y="164">+validate</text></g></g><g transform="translate(6,-42) scale(1,1)"><path fill="none" stroke="#000000" d="M 139 349 L 247 348" stroke-miterlimit="10"></path></g><g transform="translate(6,-42) scale(1,1)"><path fill="none" stroke="#000000" d="M 236.8767361026909 352.3034321262729 L 247 348 L 236.79878541160815 343.8847574893354" stroke-miterlimit="10"></path></g><g transform="translate(6,-42) scale(1,1)"><g><path fill="none" stroke="none"></path><text fill="#000000" stroke="none" font-family="Arial" font-size="13px" font-style="normal" font-weight="normal" text-decoration="none" x="127" y="340">+formatting</text></g></g><g transform="translate(6,-42) scale(1,1)"><path fill="none" stroke="#000000" d="M 338 209 L 338 307" stroke-miterlimit="10"></path></g><g transform="translate(6,-42) scale(1,1)"><path fill="none" stroke="#000000" d="M 333.790482243984 296.83732514237585 L 338 307 L 342.209517756016 296.83732514237585" stroke-miterlimit="10"></path></g><g transform="translate(6,-42) scale(1,1)"><g><path fill="none" stroke="none"></path><text fill="#000000" stroke="none" font-family="Arial" font-size="13px" font-style="normal" font-weight="normal" text-decoration="none" x="347" y="261">+reports</text></g></g><g transform="translate(6,-42) scale(1,1)"><path fill="none" stroke="#000000" d="M 429 348 L 535 349" stroke-miterlimit="10"></path></g><g transform="translate(6,-42) scale(1,1)"><path fill="none" stroke="#000000" d="M 524.7980666848313 353.11346042072245 L 535 349 L 524.877488013996 344.6947995292665" stroke-miterlimit="10"></path></g><g transform="translate(6,-42) scale(1,1)"><g><path fill="none" stroke="none"></path><text fill="#000000" stroke="none" font-family="Arial" font-size="13px" font-style="normal" font-weight="normal" text-decoration="none" x="496" y="340">+outputs</text></g></g></g></svg>