<svg version="1.1" xmlns="http://www.w3.org/2000/svg" xmlns:xlink="http://www.w3.org/1999/xlink" width="549" height="233"><defs></defs><g><g transform="translate(-40,19) scale(1,1)"><rect fill="#C0C0C0" stroke="none" x="82" y="15" width="239" height="115" opacity="0.2"></rect></g><g transform="translate(-40,19) scale(1,1)"><rect fill="#ffffff" stroke="none" x="75" y="8" width="239" height="115"></rect></g><g transform="translate(-40,19) scale(1,1)"><path fill="none" stroke="#000000" d="M 75 8 L 314 8 L 314 123 L 75 123 L 75 8 Z Z" stroke-miterlimit="10"></path></g><g transform="translate(-40,19) scale(1,1)"><path fill="none" stroke="#000000" d="M 75 46 L 314 46" stroke-miterlimit="10"></path></g><g transform="translate(-40,19) scale(1,1)"><path fill="none" stroke="#000000" d="M 75 114 L 314 114" stroke-miterlimit="10"></path></g><g transform="translate(-40,19) scale(1,1)"><g><path fill="none" stroke="none"></path><text fill="#000000" stroke="none" font-family="Arial" font-size="13px" font-style="normal" font-weight="normal" text-decoration="none" x="170.5" y="25.5">«Entity»</text></g></g><g transform="translate(-40,19) scale(1,1)"><g><path fill="none" stroke="none"></path><text fill="#000000" stroke="none" font-family="Arial" font-size="13px" font-style="normal" font-weight="bold" text-decoration="none" x="152" y="40.5">ByteSequence</text></g></g><g transform="translate(-40,19) scale(1,1)"><g><path fill="none" stroke="none"></path><text fill="#000000" stroke="none" font-family="Arial" font-size="13px" font-style="normal" font-weight="normal" text-decoration="none" x="80" y="63.5">+id: HexSHA1 {id, readOnly}</text></g></g><g transform="translate(-40,19) scale(1,1)"><g><path fill="none" stroke="none"></path><text fill="#000000" stroke="none" font-family="Arial" font-size="13px" font-style="normal" font-weight="normal" text-decoration="none" x="80" y="78.5">+length: Integer {readOnly}</text></g></g><g transform="translate(-40,19) scale(1,1)"><g><path fill="none" stroke="none"></path><text fill="#000000" stroke="none" font-family="Arial" font-size="13px" font-style="normal" font-weight="normal" text-decoration="none" x="80" y="93.5">+mediaType: MediaType[0..*]</text></g></g><g transform="translate(-40,19) scale(1,1)"><g><path fill="none" stroke="none"></path><text fill="#000000" stroke="none" font-family="Arial" font-size="13px" font-style="normal" font-weight="normal" text-decoration="none" x="80" y="108.5">+locations: ByteSequenceLocation[0..*]</text></g></g><g transform="translate(-40,19) scale(1,1)"><rect fill="#C0C0C0" stroke="none" x="58" y="211" width="286" height="115" opacity="0.2"></rect></g><g transform="translate(-40,19) scale(1,1)"><rect fill="#ffffff" stroke="none" x="51" y="204" width="286" height="115"></rect></g><g transform="translate(-40,19) scale(1,1)"><path fill="none" stroke="#000000" d="M 51 204 L 337 204 L 337 319 L 51 319 L 51 204 Z Z" stroke-miterlimit="10"></path></g><g transform="translate(-40,19) scale(1,1)"><path fill="none" stroke="#000000" d="M 51 242 L 337 242" stroke-miterlimit="10"></path></g><g transform="translate(-40,19) scale(1,1)"><path fill="none" stroke="#000000" d="M 51 310 L 337 310" stroke-miterlimit="10"></path></g><g transform="translate(-40,19) scale(1,1)"><g><path fill="none" stroke="none"></path><text fill="#000000" stroke="none" font-family="Arial" font-size="13px" font-style="normal" font-weight="normal" text-decoration="none" x="170" y="221.5">«Entity»</text></g></g><g transform="translate(-40,19) scale(1,1)"><g><path fill="none" stroke="none"></path><text fill="#000000" stroke="none" font-family="Arial" font-size="13px" font-style="normal" font-weight="bold" text-decoration="none" x="166.5" y="236.5">Resource</text></g></g><g transform="translate(-40,19) scale(1,1)"><g><path fill="none" stroke="none"></path><text fill="#000000" stroke="none" font-family="Arial" font-size="13px" font-style="normal" font-weight="normal" text-decoration="none" x="56" y="259.5">+id: HexSHA1 {id, readOnly}</text></g></g><g transform="translate(-40,19) scale(1,1)"><g><path fill="none" stroke="none"></path><text fill="#000000" stroke="none" font-family="Arial" font-size="13px" font-style="normal" font-weight="normal" text-decoration="none" x="56" y="274.5">+representations: ByteSequence[1..*]</text></g></g><g transform="translate(-40,19) scale(1,1)"><g><path fill="none" stroke="none"></path><text fill="#000000" stroke="none" font-family="Arial" font-size="13px" font-style="normal" font-weight="normal" text-decoration="none" x="56" y="289.5">+rootMetadataId: HexSHA1 {id, readOnly}</text></g></g><g transform="translate(-40,19) scale(1,1)"><g><path fill="none" stroke="none"></path><text fill="#000000" stroke="none" font-family="Arial" font-size="13px" font-style="normal" font-weight="normal" text-decoration="none" x="56" y="304.5">+metadataRepresentations: ByteSequence[0..*]</text></g></g><g transform="translate(-40,19) scale(1,1)"><path fill="none" stroke="#000000" d="M 194 124 L 194 203" stroke-miterlimit="10"></path></g><g transform="translate(-40,19) scale(1,1)"><path fill="#000000" stroke="none" d="M 189.790482243984 192.83732514237585 L 194 203 L 198.209517756016 192.83732514237585 L 194 181"></path></g><g transform="translate(-40,19) scale(1,1)"><path fill="none" stroke="#000000" d="M 189.790482243984 192.83732514237585 L 194 203 L 198.209517756016 192.83732514237585 L 194 181 L 189.790482243984 192.83732514237585" stroke-miterlimit="10"></path></g><g transform="translate(-40,19) scale(1,1)"><rect fill="#C0C0C0" stroke="none" x="435" y="30" width="151" height="85" opacity="0.2"></rect></g><g transform="translate(-40,19) scale(1,1)"><rect fill="#ffffff" stroke="none" x="428" y="23" width="151" height="85"></rect></g><g transform="translate(-40,19) scale(1,1)"><path fill="none" stroke="#000000" d="M 428 23 L 579 23 L 579 108 L 428 108 L 428 23 Z Z" stroke-miterlimit="10"></path></g><g transform="translate(-40,19) scale(1,1)"><path fill="none" stroke="#000000" d="M 428 61 L 579 61" stroke-miterlimit="10"></path></g><g transform="translate(-40,19) scale(1,1)"><path fill="none" stroke="#000000" d="M 428 99 L 579 99" stroke-miterlimit="10"></path></g><g transform="translate(-40,19) scale(1,1)"><g><path fill="none" stroke="none"></path><text fill="#000000" stroke="none" font-family="Arial" font-size="13px" font-style="normal" font-weight="normal" text-decoration="none" x="479.5" y="40.5">«Entity»</text></g></g><g transform="translate(-40,19) scale(1,1)"><g><path fill="none" stroke="none"></path><text fill="#000000" stroke="none" font-family="Arial" font-size="13px" font-style="normal" font-weight="bold" text-decoration="none" x="436.5" y="55.5">ByteSequenceLocation</text></g></g><g transform="translate(-40,19) scale(1,1)"><g><path fill="none" stroke="none"></path><text fill="#000000" stroke="none" font-family="Arial" font-size="13px" font-style="normal" font-weight="normal" text-decoration="none" x="433" y="78.5">+method: String[0..1]</text></g></g><g transform="translate(-40,19) scale(1,1)"><g><path fill="none" stroke="none"></path><text fill="#000000" stroke="none" font-family="Arial" font-size="13px" font-style="normal" font-weight="normal" text-decoration="none" x="433" y="93.5">+location: URI</text></g></g><g transform="translate(-40,19) scale(1,1)"><path fill="none" stroke="#000000" d="M 427 65 L 315 65" stroke-miterlimit="10"></path></g><g transform="translate(-40,19) scale(1,1)"><path fill="#FFFFFF" stroke="none" d="M 325.16267485762415 60.790482243984016 L 315 65 L 325.16267485762415 69.20951775601598 L 337 65"></path></g><g transform="translate(-40,19) scale(1,1)"><path fill="none" stroke="#000000" d="M 325.16267485762415 60.790482243984016 L 315 65 L 325.16267485762415 69.20951775601598 L 337 65 L 325.16267485762415 60.790482243984016" stroke-miterlimit="10"></path></g><g transform="translate(-40,19) scale(1,1)"><g><path fill="none" stroke="none"></path><text fill="#000000" stroke="none" font-family="Arial" font-size="13px" font-style="normal" font-weight="normal" text-decoration="none" x="395" y="59">0..*</text></g></g><g transform="translate(-40,19) scale(1,1)"><g><path fill="none" stroke="none"></path><text fill="#000000" stroke="none" font-family="Arial" font-size="13px" font-style="normal" font-weight="normal" text-decoration="none" x="326" y="59">0..*</text></g></g></g></svg>