<svg version="1.1" xmlns="http://www.w3.org/2000/svg" xmlns:xlink="http://www.w3.org/1999/xlink" width="658" height="387"><defs></defs><g><g transform="translate(-154,-30) scale(1,1)"><rect fill="#C0C0C0" stroke="none" x="171" y="47" width="479" height="117" opacity="0.2"></rect></g><g transform="translate(-154,-30) scale(1,1)"><rect fill="#ffffff" stroke="none" x="164" y="40" width="479" height="117"></rect></g><g transform="translate(-154,-30) scale(1,1)"><path fill="none" stroke="#000000" d="M 164 40 L 643 40 L 643 157 L 164 157 L 164 40 Z Z" stroke-miterlimit="10"></path></g><g transform="translate(-154,-30) scale(1,1)"><path fill="none" stroke="#000000" d="M 164 65 L 643 65" stroke-miterlimit="10"></path></g><g transform="translate(-154,-30) scale(1,1)"><path fill="none" stroke="#000000" d="M 164 75 L 643 75" stroke-miterlimit="10"></path></g><g transform="translate(-154,-30) scale(1,1)"><g><path fill="none" stroke="none"></path><text fill="#000000" stroke="none" font-family="Arial" font-size="13px" font-style="italic" font-weight="bold" text-decoration="none" x="337" y="59.5">AbstractPolicyChecker</text></g></g><g transform="translate(-154,-30) scale(1,1)"><g><path fill="none" stroke="none"></path><text fill="#000000" stroke="none" font-family="Arial" font-size="13px" font-style="normal" font-weight="normal" text-decoration="none" x="169" y="92.5">+getComponentDetails(): ComponentDetails</text></g></g><g transform="translate(-154,-30) scale(1,1)"><g><path fill="none" stroke="none"></path><text fill="#000000" stroke="none" font-family="Arial" font-size="13px" font-style="normal" font-weight="normal" text-decoration="none" x="169" y="107.5">+getServiceId(): URI</text></g></g><g transform="translate(-154,-30) scale(1,1)"><g><path fill="none" stroke="none"></path><text fill="#000000" stroke="none" font-family="Arial" font-size="13px" font-style="normal" font-weight="normal" text-decoration="none" x="169" y="122.5">+getDescription(): Resource</text></g></g><g transform="translate(-154,-30) scale(1,1)"><g><path fill="none" stroke="none"></path><text fill="#000000" stroke="none" font-family="Arial" font-size="13px" font-style="italic" font-weight="normal" text-decoration="none" x="169" y="137.5">+checkResource(toCheck: Resource, toAssert: PolicyProfile): PolicyReport</text></g></g><g transform="translate(-154,-30) scale(1,1)"><g><path fill="none" stroke="none"></path><text fill="#000000" stroke="none" font-family="Arial" font-size="13px" font-style="italic" font-weight="normal" text-decoration="none" x="169" y="152.5">+checkResources(toCheck: Resource[*], toAssert: PolicyProfile): PolicyReport[*]</text></g></g><g transform="translate(-154,-30) scale(1,1)"><rect fill="#C0C0C0" stroke="none" x="171" y="227" width="479" height="72" opacity="0.2"></rect></g><g transform="translate(-154,-30) scale(1,1)"><rect fill="#ffffff" stroke="none" x="164" y="220" width="479" height="72"></rect></g><g transform="translate(-154,-30) scale(1,1)"><path fill="none" stroke="#000000" d="M 164 220 L 643 220 L 643 292 L 164 292 L 164 220 Z Z" stroke-miterlimit="10"></path></g><g transform="translate(-154,-30) scale(1,1)"><path fill="none" stroke="#000000" d="M 164 245 L 643 245" stroke-miterlimit="10"></path></g><g transform="translate(-154,-30) scale(1,1)"><path fill="none" stroke="#000000" d="M 164 255 L 643 255" stroke-miterlimit="10"></path></g><g transform="translate(-154,-30) scale(1,1)"><g><path fill="none" stroke="none"></path><text fill="#000000" stroke="none" font-family="Arial" font-size="13px" font-style="normal" font-weight="bold" text-decoration="none" x="344.5" y="239.5">SchematronChecker</text></g></g><g transform="translate(-154,-30) scale(1,1)"><g><path fill="none" stroke="none"></path><text fill="#000000" stroke="none" font-family="Arial" font-size="13px" font-style="normal" font-weight="normal" text-decoration="none" x="169" y="272.5">+checkResource(toCheck: Resource, toAssert: PolicyProfile): PolicyReport</text></g></g><g transform="translate(-154,-30) scale(1,1)"><g><path fill="none" stroke="none"></path><text fill="#000000" stroke="none" font-family="Arial" font-size="13px" font-style="normal" font-weight="normal" text-decoration="none" x="169" y="287.5">+checkResources(toCheck: Resource[*], toAssert: PolicyProfile): PolicyReport[*]</text></g></g><g transform="translate(-154,-30) scale(1,1)"><path fill="none" stroke="#000000" d="M 403 219 L 403 158" stroke-miterlimit="10"></path></g><g transform="translate(-154,-30) scale(1,1)"><path fill="#FFFFFF" stroke="none" d="M 411.419035512032 178.3253497152483 L 403 158 L 394.580964487968 178.3253497152483"></path></g><g transform="translate(-154,-30) scale(1,1)"><path fill="none" stroke="#000000" d="M 411.419035512032 178.3253497152483 L 403 158 L 394.580964487968 178.3253497152483 L 411.419035512032 178.3253497152483" stroke-miterlimit="10"></path></g><g transform="translate(-154,-30) scale(1,1)"><rect fill="#C0C0C0" stroke="none" x="233" y="355" width="104" height="59" opacity="0.2"></rect></g><g transform="translate(-154,-30) scale(1,1)"><rect fill="#ffffff" stroke="none" x="226" y="348" width="104" height="59"></rect></g><g transform="translate(-154,-30) scale(1,1)"><path fill="none" stroke="#000000" d="M 226 348 L 330 348 L 330 407 L 226 407 L 226 348 Z Z" stroke-miterlimit="10"></path></g><g transform="translate(-154,-30) scale(1,1)"><path fill="none" stroke="#000000" d="M 226 388 L 330 388" stroke-miterlimit="10"></path></g><g transform="translate(-154,-30) scale(1,1)"><path fill="none" stroke="#000000" d="M 226 398 L 330 398" stroke-miterlimit="10"></path></g><g transform="translate(-154,-30) scale(1,1)"><g><path fill="none" stroke="none"></path><text fill="#000000" stroke="none" font-family="Arial" font-size="13px" font-style="normal" font-weight="bold" text-decoration="none" x="241.5" y="367.5">PolicyProfile</text></g></g><g transform="translate(-154,-30) scale(1,1)"><g><path fill="none" stroke="none"></path><text fill="#000000" stroke="none" font-family="Arial" font-size="13px" font-style="normal" font-weight="normal" text-decoration="none" x="230.5" y="382.5">(from document)</text></g></g><g transform="translate(-154,-30) scale(1,1)"><rect fill="#C0C0C0" stroke="none" x="495" y="355" width="104" height="59" opacity="0.2"></rect></g><g transform="translate(-154,-30) scale(1,1)"><rect fill="#ffffff" stroke="none" x="488" y="348" width="104" height="59"></rect></g><g transform="translate(-154,-30) scale(1,1)"><path fill="none" stroke="#000000" d="M 488 348 L 592 348 L 592 407 L 488 407 L 488 348 Z Z" stroke-miterlimit="10"></path></g><g transform="translate(-154,-30) scale(1,1)"><path fill="none" stroke="#000000" d="M 488 388 L 592 388" stroke-miterlimit="10"></path></g><g transform="translate(-154,-30) scale(1,1)"><path fill="none" stroke="#000000" d="M 488 398 L 592 398" stroke-miterlimit="10"></path></g><g transform="translate(-154,-30) scale(1,1)"><g><path fill="none" stroke="none"></path><text fill="#000000" stroke="none" font-family="Arial" font-size="13px" font-style="normal" font-weight="bold" text-decoration="none" x="503" y="367.5">PolicyReport</text></g></g><g transform="translate(-154,-30) scale(1,1)"><g><path fill="none" stroke="none"></path><text fill="#000000" stroke="none" font-family="Arial" font-size="13px" font-style="normal" font-weight="normal" text-decoration="none" x="492.5" y="382.5">(from document)</text></g></g><g transform="translate(-154,-30) scale(1,1)"><path fill="#C0C0C0" stroke="none" d="M 748.5 138.5 C 748.5 132.1487248 753.6487248 127 760 127 C 766.3512752 127 771.5 132.1487248 771.5 138.5 C 771.5 144.8512752 766.3512752 150 760 150 C 753.6487248 150 748.5 144.8512752 748.5 138.5 Z" opacity="0.2"></path></g><g transform="translate(-154,-30) scale(1,1)"><path fill="#ffffff" stroke="none" d="M 741.5 131.5 C 741.5 125.1487248 746.6487248 120 753 120 C 759.3512752 120 764.5 125.1487248 764.5 131.5 C 764.5 137.8512752 759.3512752 143 753 143 C 746.6487248 143 741.5 137.8512752 741.5 131.5 Z"></path></g><g transform="translate(-154,-30) scale(1,1)"><path fill="none" stroke="#000000" d="M 741.5 131.5 C 741.5 125.1487248 746.6487248 120 753 120 C 759.3512752 120 764.5 125.1487248 764.5 131.5 C 764.5 137.8512752 759.3512752 143 753 143 C 746.6487248 143 741.5 137.8512752 741.5 131.5 Z" stroke-miterlimit="10"></path></g><g transform="translate(-154,-30) scale(1,1)"><g><path fill="none" stroke="none"></path><text fill="#000000" stroke="none" font-family="Arial" font-size="13px" font-style="normal" font-weight="bold" text-decoration="none" x="711" y="162.5">PolicyChecker</text></g></g><g transform="translate(-154,-30) scale(1,1)"><g><path fill="none" stroke="none"></path><text fill="#000000" stroke="none" font-family="Arial" font-size="13px" font-style="normal" font-weight="normal" text-decoration="none" x="725.5" y="177.5">(from api)</text></g></g><g transform="translate(-154,-30) scale(1,1)"><path fill="none" stroke="#000000" d="M 644 134 L 741.5 133.76" stroke-miterlimit="10"></path></g><g transform="translate(-154,-30) scale(1,1)"><g><path fill="none" stroke="none"></path><text fill="#000000" stroke="none" font-family="Arial" font-size="13px" font-style="normal" font-weight="normal" text-decoration="none" x="655" y="125">+implements</text></g></g><g transform="translate(-154,-30) scale(1,1)"><path fill="none" stroke="#000000" d="M 309 347 L 365 293" stroke-miterlimit="10"></path></g><g transform="translate(-154,-30) scale(1,1)"><g><path fill="none" stroke="none"></path><text fill="#000000" stroke="none" font-family="Arial" font-size="13px" font-style="normal" font-weight="normal" text-decoration="none" x="262" y="321">+consumes</text></g></g><g transform="translate(-154,-30) scale(1,1)"><path fill="none" stroke="#000000" d="M 506 347 L 445 293" stroke-miterlimit="10"></path></g><g transform="translate(-154,-30) scale(1,1)"><g><path fill="none" stroke="none"></path><text fill="#000000" stroke="none" font-family="Arial" font-size="13px" font-style="normal" font-weight="normal" text-decoration="none" x="484" y="321">+produces</text></g></g></g></svg>