<svg version="1.1" xmlns="http://www.w3.org/2000/svg" xmlns:xlink="http://www.w3.org/1999/xlink" width="594" height="167"><defs></defs><g><g transform="translate(2,2) scale(1,1)"><path fill="#C0C0C0" stroke="none" d="M 518.5 110.5 C 518.5 104.1487248 523.6487248 99 530 99 C 536.3512752 99 541.5 104.1487248 541.5 110.5 C 541.5 116.8512752 536.3512752 122 530 122 C 523.6487248 122 518.5 116.8512752 518.5 110.5 Z" opacity="0.2"></path></g><g transform="translate(2,2) scale(1,1)"><path fill="#ffffff" stroke="none" d="M 511.5 103.5 C 511.5 97.1487248 516.6487248 92 523 92 C 529.3512752 92 534.5 97.1487248 534.5 103.5 C 534.5 109.8512752 529.3512752 115 523 115 C 516.6487248 115 511.5 109.8512752 511.5 103.5 Z"></path></g><g transform="translate(2,2) scale(1,1)"><path fill="none" stroke="#000000" d="M 511.5 103.5 C 511.5 97.1487248 516.6487248 92 523 92 C 529.3512752 92 534.5 97.1487248 534.5 103.5 C 534.5 109.8512752 529.3512752 115 523 115 C 516.6487248 115 511.5 109.8512752 511.5 103.5 Z" stroke-miterlimit="10"></path></g><g transform="translate(2,2) scale(1,1)"><g><path fill="none" stroke="none"></path><text fill="#000000" stroke="none" font-family="Arial" font-size="13px" font-style="normal" font-weight="bold" text-decoration="none" x="472" y="134.5">SchedulerService</text></g></g><g transform="translate(2,2) scale(1,1)"><g><path fill="none" stroke="none"></path><text fill="#000000" stroke="none" font-family="Arial" font-size="13px" font-style="normal" font-weight="normal" text-decoration="none" x="479.5" y="149.5">(from services)</text></g></g><g transform="translate(2,2) scale(1,1)"><rect fill="#C0C0C0" stroke="none" x="15" y="15" width="379" height="147" opacity="0.2"></rect></g><g transform="translate(2,2) scale(1,1)"><rect fill="#ffffff" stroke="none" x="8" y="8" width="379" height="147"></rect></g><g transform="translate(2,2) scale(1,1)"><path fill="none" stroke="#000000" d="M 8 8 L 387 8 L 387 155 L 8 155 L 8 8 Z Z" stroke-miterlimit="10"></path></g><g transform="translate(2,2) scale(1,1)"><path fill="none" stroke="#000000" d="M 8 48 L 387 48" stroke-miterlimit="10"></path></g><g transform="translate(2,2) scale(1,1)"><path fill="none" stroke="#000000" d="M 8 58 L 387 58" stroke-miterlimit="10"></path></g><g transform="translate(2,2) scale(1,1)"><g><path fill="none" stroke="none"></path><text fill="#000000" stroke="none" font-family="Arial" font-size="13px" font-style="normal" font-weight="bold" text-decoration="none" x="136.5" y="27.5">SchedulerServiceRef</text></g></g><g transform="translate(2,2) scale(1,1)"><g><path fill="none" stroke="none"></path><text fill="#000000" stroke="none" font-family="Arial" font-size="13px" font-style="normal" font-weight="normal" text-decoration="none" x="154" y="42.5">(from services)</text></g></g><g transform="translate(2,2) scale(1,1)"><g><path fill="none" stroke="none"></path><text fill="#000000" stroke="none" font-family="Arial" font-size="13px" font-style="normal" font-weight="normal" text-decoration="none" x="13" y="75.5">+scheduleTask(toProcess: Resource[*]): HexSHA1</text></g></g><g transform="translate(2,2) scale(1,1)"><g><path fill="none" stroke="none"></path><text fill="#000000" stroke="none" font-family="Arial" font-size="13px" font-style="normal" font-weight="normal" text-decoration="none" x="13" y="90.5">+scheduleTask(toProcess: Resource[*], option: URI): HexSHA1</text></g></g><g transform="translate(2,2) scale(1,1)"><g><path fill="none" stroke="none"></path><text fill="#000000" stroke="none" font-family="Arial" font-size="13px" font-style="normal" font-weight="normal" text-decoration="none" x="13" y="105.5">+getOptions(): URI[*]</text></g></g><g transform="translate(2,2) scale(1,1)"><g><path fill="none" stroke="none"></path><text fill="#000000" stroke="none" font-family="Arial" font-size="13px" font-style="normal" font-weight="normal" text-decoration="none" x="13" y="120.5">+getPeriodicOptions(): URI[*]</text></g></g><g transform="translate(2,2) scale(1,1)"><g><path fill="none" stroke="none"></path><text fill="#000000" stroke="none" font-family="Arial" font-size="13px" font-style="normal" font-weight="normal" text-decoration="none" x="13" y="135.5">+repeatTask(taskId: HexSHA1, periodicOption: URI): HexSHA1</text></g></g><g transform="translate(2,2) scale(1,1)"><g><path fill="none" stroke="none"></path><text fill="#000000" stroke="none" font-family="Arial" font-size="13px" font-style="normal" font-weight="normal" text-decoration="none" x="13" y="150.5">+removeTask(taskId: HexSHA1): HexSHA1</text></g></g><g transform="translate(2,2) scale(1,1)"><path fill="none" stroke="#000000" d="M 388 106 L 511.5 105.3" stroke-miterlimit="10"></path></g></g></svg>