<svg version="1.1" xmlns="http://www.w3.org/2000/svg" xmlns:xlink="http://www.w3.org/1999/xlink" width="1039" height="297"><defs></defs><g><g transform="translate(10,-14) scale(1,1)"><rect fill="#C0C0C0" stroke="none" x="323" y="31" width="374" height="100" opacity="0.2"></rect></g><g transform="translate(10,-14) scale(1,1)"><rect fill="#ffffff" stroke="none" x="316" y="24" width="374" height="100"></rect></g><g transform="translate(10,-14) scale(1,1)"><path fill="none" stroke="#000000" d="M 316 24 L 690 24 L 690 124 L 316 124 L 316 24 Z Z" stroke-miterlimit="10"></path></g><g transform="translate(10,-14) scale(1,1)"><path fill="none" stroke="#000000" d="M 316 62 L 690 62" stroke-miterlimit="10"></path></g><g transform="translate(10,-14) scale(1,1)"><path fill="none" stroke="#000000" d="M 316 72 L 690 72" stroke-miterlimit="10"></path></g><g transform="translate(10,-14) scale(1,1)"><g><path fill="none" stroke="none"></path><text fill="#000000" stroke="none" font-family="Arial" font-size="13px" font-style="normal" font-weight="normal" text-decoration="none" x="470.5" y="41.5">«Interface»</text></g></g><g transform="translate(10,-14) scale(1,1)"><g><path fill="none" stroke="none"></path><text fill="#000000" stroke="none" font-family="Arial" font-size="13px" font-style="normal" font-weight="bold" text-decoration="none" x="447.5" y="56.5">SingleStateService</text></g></g><g transform="translate(10,-14) scale(1,1)"><g><path fill="none" stroke="none"></path><text fill="#000000" stroke="none" font-family="Arial" font-size="13px" font-style="normal" font-weight="normal" text-decoration="none" x="321" y="89.5">+getServiceId(): URI {unique}</text></g></g><g transform="translate(10,-14) scale(1,1)"><g><path fill="none" stroke="none"></path><text fill="#000000" stroke="none" font-family="Arial" font-size="13px" font-style="normal" font-weight="normal" text-decoration="none" x="321" y="104.5">+getDescription(): Resource {unique}</text></g></g><g transform="translate(10,-14) scale(1,1)"><g><path fill="none" stroke="none"></path><text fill="#000000" stroke="none" font-family="Arial" font-size="13px" font-style="normal" font-weight="normal" text-decoration="none" x="321" y="119.5">+processResources(toProcess: Resource[1..*]): Resource[1..*]</text></g></g><g transform="translate(10,-14) scale(1,1)"><rect fill="#C0C0C0" stroke="none" x="7" y="208" width="462" height="100" opacity="0.2"></rect></g><g transform="translate(10,-14) scale(1,1)"><rect fill="#ffffff" stroke="none" x="0" y="201" width="462" height="100"></rect></g><g transform="translate(10,-14) scale(1,1)"><path fill="none" stroke="#000000" d="M 0 201 L 462 201 L 462 301 L 0 301 L 0 201 Z Z" stroke-miterlimit="10"></path></g><g transform="translate(10,-14) scale(1,1)"><path fill="none" stroke="#000000" d="M 0 239 L 462 239" stroke-miterlimit="10"></path></g><g transform="translate(10,-14) scale(1,1)"><path fill="none" stroke="#000000" d="M 0 249 L 462 249" stroke-miterlimit="10"></path></g><g transform="translate(10,-14) scale(1,1)"><g><path fill="none" stroke="none"></path><text fill="#000000" stroke="none" font-family="Arial" font-size="13px" font-style="normal" font-weight="normal" text-decoration="none" x="198.5" y="218.5">«Interface»</text></g></g><g transform="translate(10,-14) scale(1,1)"><g><path fill="none" stroke="none"></path><text fill="#000000" stroke="none" font-family="Arial" font-size="13px" font-style="normal" font-weight="bold" text-decoration="none" x="158.5" y="233.5">EnumeratedStateService</text></g></g><g transform="translate(10,-14) scale(1,1)"><g><path fill="none" stroke="none"></path><text fill="#000000" stroke="none" font-family="Arial" font-size="13px" font-style="normal" font-weight="normal" text-decoration="none" x="5" y="266.5">+getServiceOptions(): URI[1..*]</text></g></g><g transform="translate(10,-14) scale(1,1)"><g><path fill="none" stroke="none"></path><text fill="#000000" stroke="none" font-family="Arial" font-size="13px" font-style="normal" font-weight="normal" text-decoration="none" x="5" y="281.5">+getDefaultOption(): URI[1]</text></g></g><g transform="translate(10,-14) scale(1,1)"><g><path fill="none" stroke="none"></path><text fill="#000000" stroke="none" font-family="Arial" font-size="13px" font-style="normal" font-weight="normal" text-decoration="none" x="5" y="296.5">+processResources(toProcess: Resource[1..*], option: URI[1]): Resource[1..*]</text></g></g><g transform="translate(10,-14) scale(1,1)"><path fill="none" stroke="#000000" d="M 309 200 L 425 125" stroke-miterlimit="10"></path></g><g transform="translate(10,-14) scale(1,1)"><path fill="#FFFFFF" stroke="none" d="M 412.5026207012837 143.10567620013177 L 425 125 L 403.36037193173627 128.9656647698984"></path></g><g transform="translate(10,-14) scale(1,1)"><path fill="none" stroke="#000000" d="M 412.5026207012837 143.10567620013177 L 425 125 L 403.36037193173627 128.9656647698984 L 412.5026207012837 143.10567620013177" stroke-miterlimit="10"></path></g><g transform="translate(10,-14) scale(1,1)"><rect fill="#C0C0C0" stroke="none" x="515" y="207" width="511" height="99" opacity="0.2"></rect></g><g transform="translate(10,-14) scale(1,1)"><rect fill="#ffffff" stroke="none" x="508" y="200" width="511" height="99"></rect></g><g transform="translate(10,-14) scale(1,1)"><path fill="none" stroke="#000000" d="M 508 200 L 1019 200 L 1019 299 L 508 299 L 508 200 Z Z" stroke-miterlimit="10"></path></g><g transform="translate(10,-14) scale(1,1)"><path fill="none" stroke="#000000" d="M 508 238 L 1019 238" stroke-miterlimit="10"></path></g><g transform="translate(10,-14) scale(1,1)"><path fill="none" stroke="#000000" d="M 508 248 L 1019 248" stroke-miterlimit="10"></path></g><g transform="translate(10,-14) scale(1,1)"><g><path fill="none" stroke="none"></path><text fill="#000000" stroke="none" font-family="Arial" font-size="13px" font-style="normal" font-weight="normal" text-decoration="none" x="731" y="217.5">«Interface»</text></g></g><g transform="translate(10,-14) scale(1,1)"><g><path fill="none" stroke="none"></path><text fill="#000000" stroke="none" font-family="Arial" font-size="13px" font-style="normal" font-weight="bold" text-decoration="none" x="702.5" y="232.5">VariableStateService</text></g></g><g transform="translate(10,-14) scale(1,1)"><g><path fill="none" stroke="none"></path><text fill="#000000" stroke="none" font-family="Arial" font-size="13px" font-style="normal" font-weight="normal" text-decoration="none" x="513" y="265.5">+processResources(toProcess: Resources[1..*], toApply: Resource[1]): Resource[1..*]</text></g></g><g transform="translate(10,-14) scale(1,1)"><path fill="none" stroke="#000000" d="M 689 199 L 579 125" stroke-miterlimit="10"></path></g><g transform="translate(10,-14) scale(1,1)"><path fill="#FFFFFF" stroke="none" d="M 600.5637014508891 129.35967656333878 L 579 125 L 591.1650826616889 143.33059638512276"></path></g><g transform="translate(10,-14) scale(1,1)"><path fill="none" stroke="#000000" d="M 600.5637014508891 129.35967656333878 L 579 125 L 591.1650826616889 143.33059638512276 L 600.5637014508891 129.35967656333878" stroke-miterlimit="10"></path></g></g></svg>