<svg version="1.1" xmlns="http://www.w3.org/2000/svg" xmlns:xlink="http://www.w3.org/1999/xlink" width="593" height="1069"><defs></defs><g><g transform="translate(-10,-8) scale(1,1)"><rect fill="#C0C0C0" stroke="none" x="600" y="381.25" width="118" height="54" opacity="0.2"></rect></g><g transform="translate(-10,-8) scale(1,1)"><rect fill="#ffffff" stroke="none" x="593" y="374.25" width="118" height="54"></rect></g><g transform="translate(-10,-8) scale(1,1)"><path fill="none" stroke="#000000" d="M 593 374.25 L 711 374.25 L 711 428.25 L 593 428.25 L 593 374.25 Z Z" stroke-miterlimit="10"></path></g><g transform="translate(-10,-8) scale(1,1)"><g><path fill="none" stroke="none"></path><text fill="#000000" stroke="none" font-family="Arial" font-size="13px" font-style="normal" font-weight="bold" text-decoration="none" x="606" y="393.75">XsltReporterRef</text></g></g><g transform="translate(-10,-8) scale(1,1)"><g><path fill="none" stroke="none"></path><text fill="#000000" stroke="none" font-family="Arial" font-size="13px" font-style="normal" font-weight="normal" text-decoration="none" x="597.5" y="408.75">(from components)</text></g></g><g transform="translate(-10,-8) scale(1,1)"><g><path fill="none" stroke="none"></path><text fill="#000000" stroke="none" font-family="Arial" font-size="13px" font-style="normal" font-weight="normal" text-decoration="none" x="677" y="423.75">{leaf}</text></g></g><g transform="translate(-10,-8) scale(1,1)"><rect fill="#C0C0C0" stroke="none" x="314.5" y="314.75" width="146" height="39" opacity="0.2"></rect></g><g transform="translate(-10,-8) scale(1,1)"><rect fill="#ffffff" stroke="none" x="307.5" y="307.75" width="146" height="39"></rect></g><g transform="translate(-10,-8) scale(1,1)"><path fill="none" stroke="#000000" d="M 307.5 307.75 L 453.5 307.75 L 453.5 346.75 L 307.5 346.75 L 307.5 307.75 Z Z" stroke-miterlimit="10"></path></g><g transform="translate(-10,-8) scale(1,1)"><g><path fill="none" stroke="none"></path><text fill="#000000" stroke="none" font-family="Arial" font-size="13px" font-style="italic" font-weight="bold" text-decoration="none" x="314.5" y="327.25">AbstractMetadataFixer</text></g></g><g transform="translate(-10,-8) scale(1,1)"><g><path fill="none" stroke="none"></path><text fill="#000000" stroke="none" font-family="Arial" font-size="13px" font-style="normal" font-weight="normal" text-decoration="none" x="326" y="342.25">(from components)</text></g></g><g transform="translate(-10,-8) scale(1,1)"><rect fill="#C0C0C0" stroke="none" x="328.5" y="388.75" width="118" height="39" opacity="0.2"></rect></g><g transform="translate(-10,-8) scale(1,1)"><rect fill="#ffffff" stroke="none" x="321.5" y="381.75" width="118" height="39"></rect></g><g transform="translate(-10,-8) scale(1,1)"><path fill="none" stroke="#000000" d="M 321.5 381.75 L 439.5 381.75 L 439.5 420.75 L 321.5 420.75 L 321.5 381.75 Z Z" stroke-miterlimit="10"></path></g><g transform="translate(-10,-8) scale(1,1)"><g><path fill="none" stroke="none"></path><text fill="#000000" stroke="none" font-family="Arial" font-size="13px" font-style="italic" font-weight="bold" text-decoration="none" x="331.5" y="401.25">AbstractReporter</text></g></g><g transform="translate(-10,-8) scale(1,1)"><g><path fill="none" stroke="none"></path><text fill="#000000" stroke="none" font-family="Arial" font-size="13px" font-style="normal" font-weight="normal" text-decoration="none" x="326" y="416.25">(from components)</text></g></g><g transform="translate(-10,-8) scale(1,1)"><path fill="none" stroke="#000000" d="M 592 402 L 535 402 L 441 401" stroke-miterlimit="10"></path></g><g transform="translate(-10,-8) scale(1,1)"><path fill="#FFFFFF" stroke="none" d="M 461.4137588084463 392.7976557429853 L 441 401 L 461.2346405287206 409.63477403719736"></path></g><g transform="translate(-10,-8) scale(1,1)"><path fill="none" stroke="#000000" d="M 461.4137588084463 392.7976557429853 L 441 401 L 461.2346405287206 409.63477403719736 L 461.4137588084463 392.7976557429853" stroke-miterlimit="10"></path></g><g transform="translate(-10,-8) scale(1,1)"><rect fill="#C0C0C0" stroke="none" x="284" y="462.75" width="207" height="39" opacity="0.2"></rect></g><g transform="translate(-10,-8) scale(1,1)"><rect fill="#ffffff" stroke="none" x="277" y="455.75" width="207" height="39"></rect></g><g transform="translate(-10,-8) scale(1,1)"><path fill="none" stroke="#000000" d="M 277 455.75 L 484 455.75 L 484 494.75 L 277 494.75 L 277 455.75 Z Z" stroke-miterlimit="10"></path></g><g transform="translate(-10,-8) scale(1,1)"><g><path fill="none" stroke="none"></path><text fill="#000000" stroke="none" font-family="Arial" font-size="13px" font-style="italic" font-weight="bold" text-decoration="none" x="287.5" y="475.25">AbstractImplementationChecker</text></g></g><g transform="translate(-10,-8) scale(1,1)"><g><path fill="none" stroke="none"></path><text fill="#000000" stroke="none" font-family="Arial" font-size="13px" font-style="normal" font-weight="normal" text-decoration="none" x="326" y="490.25">(from components)</text></g></g><g transform="translate(-10,-8) scale(1,1)"><rect fill="#C0C0C0" stroke="none" x="313" y="536.75" width="149" height="39" opacity="0.2"></rect></g><g transform="translate(-10,-8) scale(1,1)"><rect fill="#ffffff" stroke="none" x="306" y="529.75" width="149" height="39"></rect></g><g transform="translate(-10,-8) scale(1,1)"><path fill="none" stroke="#000000" d="M 306 529.75 L 455 529.75 L 455 568.75 L 306 568.75 L 306 529.75 Z Z" stroke-miterlimit="10"></path></g><g transform="translate(-10,-8) scale(1,1)"><g><path fill="none" stroke="none"></path><text fill="#000000" stroke="none" font-family="Arial" font-size="13px" font-style="italic" font-weight="bold" text-decoration="none" x="314" y="549.25">AbstractPolicyChecker</text></g></g><g transform="translate(-10,-8) scale(1,1)"><g><path fill="none" stroke="none"></path><text fill="#000000" stroke="none" font-family="Arial" font-size="13px" font-style="normal" font-weight="normal" text-decoration="none" x="326" y="564.25">(from components)</text></g></g><g transform="translate(-10,-8) scale(1,1)"><rect fill="#C0C0C0" stroke="none" x="592" y="536.75" width="134" height="39" opacity="0.2"></rect></g><g transform="translate(-10,-8) scale(1,1)"><rect fill="#ffffff" stroke="none" x="585" y="529.75" width="134" height="39"></rect></g><g transform="translate(-10,-8) scale(1,1)"><path fill="none" stroke="#000000" d="M 585 529.75 L 719 529.75 L 719 568.75 L 585 568.75 L 585 529.75 Z Z" stroke-miterlimit="10"></path></g><g transform="translate(-10,-8) scale(1,1)"><g><path fill="none" stroke="none"></path><text fill="#000000" stroke="none" font-family="Arial" font-size="13px" font-style="normal" font-weight="bold" text-decoration="none" x="593" y="549.25">SchematronChecker</text></g></g><g transform="translate(-10,-8) scale(1,1)"><g><path fill="none" stroke="none"></path><text fill="#000000" stroke="none" font-family="Arial" font-size="13px" font-style="normal" font-weight="normal" text-decoration="none" x="597.5" y="564.25">(from components)</text></g></g><g transform="translate(-10,-8) scale(1,1)"><path fill="none" stroke="#000000" d="M 584 550 L 535 550 L 456 549" stroke-miterlimit="10"></path></g><g transform="translate(-10,-8) scale(1,1)"><path fill="#FFFFFF" stroke="none" d="M 476.4302830709729 540.8389011989856 L 456 549 L 476.2171600051763 557.675623396915"></path></g><g transform="translate(-10,-8) scale(1,1)"><path fill="none" stroke="#000000" d="M 476.4302830709729 540.8389011989856 L 456 549 L 476.2171600051763 557.675623396915 L 476.4302830709729 540.8389011989856" stroke-miterlimit="10"></path></g><g transform="translate(-10,-8) scale(1,1)"><path fill="#C0C0C0" stroke="none" d="M 93.5 57.5 C 93.5 51.1487248 98.6487248 46 105 46 C 111.3512752 46 116.5 51.1487248 116.5 57.5 C 116.5 63.8512752 111.3512752 69 105 69 C 98.6487248 69 93.5 63.8512752 93.5 57.5 Z" opacity="0.2"></path></g><g transform="translate(-10,-8) scale(1,1)"><path fill="#ffffff" stroke="none" d="M 86.5 50.5 C 86.5 44.1487248 91.6487248 39 98 39 C 104.3512752 39 109.5 44.1487248 109.5 50.5 C 109.5 56.8512752 104.3512752 62 98 62 C 91.6487248 62 86.5 56.8512752 86.5 50.5 Z"></path></g><g transform="translate(-10,-8) scale(1,1)"><path fill="none" stroke="#000000" d="M 86.5 50.5 C 86.5 44.1487248 91.6487248 39 98 39 C 104.3512752 39 109.5 44.1487248 109.5 50.5 C 109.5 56.8512752 104.3512752 62 98 62 C 91.6487248 62 86.5 56.8512752 86.5 50.5 Z" stroke-miterlimit="10"></path></g><g transform="translate(-10,-8) scale(1,1)"><g><path fill="none" stroke="none"></path><text fill="#000000" stroke="none" font-family="Arial" font-size="13px" font-style="normal" font-weight="bold" text-decoration="none" x="79.5" y="81.5">Cache</text></g></g><g transform="translate(-10,-8) scale(1,1)"><g><path fill="none" stroke="none"></path><text fill="#000000" stroke="none" font-family="Arial" font-size="13px" font-style="normal" font-weight="normal" text-decoration="none" x="54.5" y="96.5">(from services)</text></g></g><g transform="translate(-10,-8) scale(1,1)"><rect fill="#C0C0C0" stroke="none" x="324.5" y="240.75" width="126" height="39" opacity="0.2"></rect></g><g transform="translate(-10,-8) scale(1,1)"><rect fill="#ffffff" stroke="none" x="317.5" y="233.75" width="126" height="39"></rect></g><g transform="translate(-10,-8) scale(1,1)"><path fill="none" stroke="#000000" d="M 317.5 233.75 L 443.5 233.75 L 443.5 272.75 L 317.5 272.75 L 317.5 233.75 Z Z" stroke-miterlimit="10"></path></g><g transform="translate(-10,-8) scale(1,1)"><g><path fill="none" stroke="none"></path><text fill="#000000" stroke="none" font-family="Arial" font-size="13px" font-style="normal" font-weight="bold" text-decoration="none" x="325" y="253.25">IdentiferServiceRef</text></g></g><g transform="translate(-10,-8) scale(1,1)"><g><path fill="none" stroke="none"></path><text fill="#000000" stroke="none" font-family="Arial" font-size="13px" font-style="normal" font-weight="normal" text-decoration="none" x="337" y="268.25">(from services)</text></g></g><g transform="translate(-10,-8) scale(1,1)"><rect fill="#C0C0C0" stroke="none" x="318.5" y="166.75" width="138" height="39" opacity="0.2"></rect></g><g transform="translate(-10,-8) scale(1,1)"><rect fill="#ffffff" stroke="none" x="311.5" y="159.75" width="138" height="39"></rect></g><g transform="translate(-10,-8) scale(1,1)"><path fill="none" stroke="#000000" d="M 311.5 159.75 L 449.5 159.75 L 449.5 198.75 L 311.5 198.75 L 311.5 159.75 Z Z" stroke-miterlimit="10"></path></g><g transform="translate(-10,-8) scale(1,1)"><g><path fill="none" stroke="none"></path><text fill="#000000" stroke="none" font-family="Arial" font-size="13px" font-style="normal" font-weight="bold" text-decoration="none" x="319.5" y="179.25">SchedulerServiceRef</text></g></g><g transform="translate(-10,-8) scale(1,1)"><g><path fill="none" stroke="none"></path><text fill="#000000" stroke="none" font-family="Arial" font-size="13px" font-style="normal" font-weight="normal" text-decoration="none" x="337" y="194.25">(from services)</text></g></g><g transform="translate(-10,-8) scale(1,1)"><path fill="#C0C0C0" stroke="none" d="M 93.5 166.25 C 93.5 159.8987248 98.6487248 154.75 105 154.75 C 111.3512752 154.75 116.5 159.8987248 116.5 166.25 C 116.5 172.6012752 111.3512752 177.75 105 177.75 C 98.6487248 177.75 93.5 172.6012752 93.5 166.25 Z" opacity="0.2"></path></g><g transform="translate(-10,-8) scale(1,1)"><path fill="#ffffff" stroke="none" d="M 86.5 159.25 C 86.5 152.8987248 91.6487248 147.75 98 147.75 C 104.3512752 147.75 109.5 152.8987248 109.5 159.25 C 109.5 165.6012752 104.3512752 170.75 98 170.75 C 91.6487248 170.75 86.5 165.6012752 86.5 159.25 Z"></path></g><g transform="translate(-10,-8) scale(1,1)"><path fill="none" stroke="#000000" d="M 86.5 159.25 C 86.5 152.8987248 91.6487248 147.75 98 147.75 C 104.3512752 147.75 109.5 152.8987248 109.5 159.25 C 109.5 165.6012752 104.3512752 170.75 98 170.75 C 91.6487248 170.75 86.5 165.6012752 86.5 159.25 Z" stroke-miterlimit="10"></path></g><g transform="translate(-10,-8) scale(1,1)"><g><path fill="none" stroke="none"></path><text fill="#000000" stroke="none" font-family="Arial" font-size="13px" font-style="normal" font-weight="bold" text-decoration="none" x="47" y="190.25">SchedulerService</text></g></g><g transform="translate(-10,-8) scale(1,1)"><g><path fill="none" stroke="none"></path><text fill="#000000" stroke="none" font-family="Arial" font-size="13px" font-style="normal" font-weight="normal" text-decoration="none" x="54.5" y="205.25">(from services)</text></g></g><g transform="translate(-10,-8) scale(1,1)"><path fill="none" stroke="#000000" d="M 311 179 L 227 180 L 109.5 162.83333333333334" stroke-miterlimit="10"></path></g><g transform="translate(-10,-8) scale(1,1)"><rect fill="#C0C0C0" stroke="none" x="295" y="45" width="175" height="39" opacity="0.2"></rect></g><g transform="translate(-10,-8) scale(1,1)"><rect fill="#C0C0C0" stroke="none" x="369" y="27" width="110" height="22" opacity="0.2"></rect></g><g transform="translate(-10,-8) scale(1,1)"><rect fill="#ffffff" stroke="none" x="288" y="38" width="175" height="39"></rect></g><g transform="translate(-10,-8) scale(1,1)"><path fill="none" stroke="#000000" d="M 288 38 L 463 38 L 463 77 L 288 77 L 288 38 Z Z" stroke-miterlimit="10"></path></g><g transform="translate(-10,-8) scale(1,1)"><g><path fill="none" stroke="none"></path><text fill="#000000" stroke="none" font-family="Arial" font-size="13px" font-style="normal" font-weight="bold" text-decoration="none" x="304.5" y="57.5">ByteSequenceCacheRef</text></g></g><g transform="translate(-10,-8) scale(1,1)"><g><path fill="none" stroke="none"></path><text fill="#000000" stroke="none" font-family="Arial" font-size="13px" font-style="normal" font-weight="normal" text-decoration="none" x="332" y="72.5">(from services)</text></g></g><g transform="translate(-10,-8) scale(1,1)"><rect fill="#ffffff" stroke="none" x="362" y="20" width="110" height="22"></rect></g><g transform="translate(-10,-8) scale(1,1)"><path fill="none" stroke="#000000" d="M 362 20 L 472 20 L 472 42 L 362 42 L 362 20 Z Z" stroke-miterlimit="10" stroke-dasharray="3"></path></g><g transform="translate(-10,-8) scale(1,1)"><g><path fill="none" stroke="none"></path><text fill="#000000" stroke="none" font-family="Arial" font-size="13px" font-style="normal" font-weight="normal" text-decoration="none" x="367" y="37.5">T: ByteSequence</text></g></g><g transform="translate(-10,-8) scale(1,1)"><path fill="none" stroke="#000000" d="M 287 49 L 227 49 L 109.5 52.816326530612244" stroke-miterlimit="10"></path></g><g transform="translate(-10,-8) scale(1,1)"><path fill="#C0C0C0" stroke="none" d="M 93.5 240.25 C 93.5 233.8987248 98.6487248 228.75 105 228.75 C 111.3512752 228.75 116.5 233.8987248 116.5 240.25 C 116.5 246.6012752 111.3512752 251.75 105 251.75 C 98.6487248 251.75 93.5 246.6012752 93.5 240.25 Z" opacity="0.2"></path></g><g transform="translate(-10,-8) scale(1,1)"><path fill="#ffffff" stroke="none" d="M 86.5 233.25 C 86.5 226.8987248 91.6487248 221.75 98 221.75 C 104.3512752 221.75 109.5 226.8987248 109.5 233.25 C 109.5 239.6012752 104.3512752 244.75 98 244.75 C 91.6487248 244.75 86.5 239.6012752 86.5 233.25 Z"></path></g><g transform="translate(-10,-8) scale(1,1)"><path fill="none" stroke="#000000" d="M 86.5 233.25 C 86.5 226.8987248 91.6487248 221.75 98 221.75 C 104.3512752 221.75 109.5 226.8987248 109.5 233.25 C 109.5 239.6012752 104.3512752 244.75 98 244.75 C 91.6487248 244.75 86.5 239.6012752 86.5 233.25 Z" stroke-miterlimit="10"></path></g><g transform="translate(-10,-8) scale(1,1)"><g><path fill="none" stroke="none"></path><text fill="#000000" stroke="none" font-family="Arial" font-size="13px" font-style="normal" font-weight="bold" text-decoration="none" x="52.5" y="264.25">IdentiferService</text></g></g><g transform="translate(-10,-8) scale(1,1)"><g><path fill="none" stroke="none"></path><text fill="#000000" stroke="none" font-family="Arial" font-size="13px" font-style="normal" font-weight="normal" text-decoration="none" x="54.5" y="279.25">(from services)</text></g></g><g transform="translate(-10,-8) scale(1,1)"><path fill="none" stroke="#000000" d="M 317 253 L 227 254 L 109.5 237.25925925925927" stroke-miterlimit="10"></path></g><g transform="translate(-10,-8) scale(1,1)"><rect fill="#C0C0C0" stroke="none" x="310" y="113" width="145" height="39" opacity="0.2"></rect></g><g transform="translate(-10,-8) scale(1,1)"><rect fill="#C0C0C0" stroke="none" x="384" y="95" width="80" height="22" opacity="0.2"></rect></g><g transform="translate(-10,-8) scale(1,1)"><rect fill="#ffffff" stroke="none" x="303" y="106" width="145" height="39"></rect></g><g transform="translate(-10,-8) scale(1,1)"><path fill="none" stroke="#000000" d="M 303 106 L 448 106 L 448 145 L 303 145 L 303 106 Z Z" stroke-miterlimit="10"></path></g><g transform="translate(-10,-8) scale(1,1)"><g><path fill="none" stroke="none"></path><text fill="#000000" stroke="none" font-family="Arial" font-size="13px" font-style="normal" font-weight="bold" text-decoration="none" x="319.5" y="125.5">ResourceCacheRef</text></g></g><g transform="translate(-10,-8) scale(1,1)"><g><path fill="none" stroke="none"></path><text fill="#000000" stroke="none" font-family="Arial" font-size="13px" font-style="normal" font-weight="normal" text-decoration="none" x="332" y="140.5">(from services)</text></g></g><g transform="translate(-10,-8) scale(1,1)"><rect fill="#ffffff" stroke="none" x="377" y="88" width="80" height="22"></rect></g><g transform="translate(-10,-8) scale(1,1)"><path fill="none" stroke="#000000" d="M 377 88 L 457 88 L 457 110 L 377 110 L 377 88 Z Z" stroke-miterlimit="10" stroke-dasharray="3"></path></g><g transform="translate(-10,-8) scale(1,1)"><g><path fill="none" stroke="none"></path><text fill="#000000" stroke="none" font-family="Arial" font-size="13px" font-style="normal" font-weight="normal" text-decoration="none" x="382" y="105.5">T: Resource</text></g></g><g transform="translate(-10,-8) scale(1,1)"><path fill="none" stroke="#000000" d="M 302 117 L 227 117 L 109.5 58.91836734693877" stroke-miterlimit="10"></path></g><g transform="translate(-10,-8) scale(1,1)"><rect fill="#C0C0C0" stroke="none" x="319.5" y="610.75" width="136" height="39" opacity="0.2"></rect></g><g transform="translate(-10,-8) scale(1,1)"><rect fill="#ffffff" stroke="none" x="312.5" y="603.75" width="136" height="39"></rect></g><g transform="translate(-10,-8) scale(1,1)"><path fill="none" stroke="#000000" d="M 312.5 603.75 L 448.5 603.75 L 448.5 642.75 L 312.5 642.75 L 312.5 603.75 Z Z" stroke-miterlimit="10"></path></g><g transform="translate(-10,-8) scale(1,1)"><g><path fill="none" stroke="none"></path><text fill="#000000" stroke="none" font-family="Arial" font-size="13px" font-style="italic" font-weight="bold" text-decoration="none" x="319" y="623.25">AbstractBaseService</text></g></g><g transform="translate(-10,-8) scale(1,1)"><g><path fill="none" stroke="none"></path><text fill="#000000" stroke="none" font-family="Arial" font-size="13px" font-style="normal" font-weight="normal" text-decoration="none" x="337" y="638.25">(from services)</text></g></g><g transform="translate(-10,-8) scale(1,1)"><rect fill="#C0C0C0" stroke="none" x="335.5" y="676.5" width="104" height="39" opacity="0.2"></rect></g><g transform="translate(-10,-8) scale(1,1)"><rect fill="#ffffff" stroke="none" x="328.5" y="669.5" width="104" height="39"></rect></g><g transform="translate(-10,-8) scale(1,1)"><path fill="none" stroke="#000000" d="M 328.5 669.5 L 432.5 669.5 L 432.5 708.5 L 328.5 708.5 L 328.5 669.5 Z Z" stroke-miterlimit="10"></path></g><g transform="translate(-10,-8) scale(1,1)"><g><path fill="none" stroke="none"></path><text fill="#000000" stroke="none" font-family="Arial" font-size="13px" font-style="normal" font-weight="bold" text-decoration="none" x="335" y="689">CacheWriterRef</text></g></g><g transform="translate(-10,-8) scale(1,1)"><g><path fill="none" stroke="none"></path><text fill="#000000" stroke="none" font-family="Arial" font-size="13px" font-style="normal" font-weight="normal" text-decoration="none" x="333" y="704">(from resources)</text></g></g><g transform="translate(-10,-8) scale(1,1)"><rect fill="#C0C0C0" stroke="none" x="335.5" y="784.75" width="104" height="54" opacity="0.2"></rect></g><g transform="translate(-10,-8) scale(1,1)"><rect fill="#ffffff" stroke="none" x="328.5" y="777.75" width="104" height="54"></rect></g><g transform="translate(-10,-8) scale(1,1)"><path fill="none" stroke="#000000" d="M 328.5 777.75 L 432.5 777.75 L 432.5 831.75 L 328.5 831.75 L 328.5 777.75 Z Z" stroke-miterlimit="10"></path></g><g transform="translate(-10,-8) scale(1,1)"><g><path fill="none" stroke="none"></path><text fill="#000000" stroke="none" font-family="Arial" font-size="13px" font-style="normal" font-weight="bold" text-decoration="none" x="343" y="797.25">ResourceRef</text></g></g><g transform="translate(-10,-8) scale(1,1)"><g><path fill="none" stroke="none"></path><text fill="#000000" stroke="none" font-family="Arial" font-size="13px" font-style="normal" font-weight="normal" text-decoration="none" x="333" y="812.25">(from resources)</text></g></g><g transform="translate(-10,-8) scale(1,1)"><g><path fill="none" stroke="none"></path><text fill="#000000" stroke="none" font-family="Arial" font-size="13px" font-style="normal" font-weight="normal" text-decoration="none" x="398.5" y="827.25">{leaf}</text></g></g><g transform="translate(-10,-8) scale(1,1)"><rect fill="#C0C0C0" stroke="none" x="335.5" y="858.75" width="104" height="54" opacity="0.2"></rect></g><g transform="translate(-10,-8) scale(1,1)"><rect fill="#ffffff" stroke="none" x="328.5" y="851.75" width="104" height="54"></rect></g><g transform="translate(-10,-8) scale(1,1)"><path fill="none" stroke="#000000" d="M 328.5 851.75 L 432.5 851.75 L 432.5 905.75 L 328.5 905.75 L 328.5 851.75 Z Z" stroke-miterlimit="10"></path></g><g transform="translate(-10,-8) scale(1,1)"><g><path fill="none" stroke="none"></path><text fill="#000000" stroke="none" font-family="Arial" font-size="13px" font-style="normal" font-weight="bold" text-decoration="none" x="342" y="871.25">HexSHA1Ref</text></g></g><g transform="translate(-10,-8) scale(1,1)"><g><path fill="none" stroke="none"></path><text fill="#000000" stroke="none" font-family="Arial" font-size="13px" font-style="normal" font-weight="normal" text-decoration="none" x="333" y="886.25">(from resources)</text></g></g><g transform="translate(-10,-8) scale(1,1)"><g><path fill="none" stroke="none"></path><text fill="#000000" stroke="none" font-family="Arial" font-size="13px" font-style="normal" font-weight="normal" text-decoration="none" x="398.5" y="901.25">{leaf}</text></g></g><g transform="translate(-10,-8) scale(1,1)"><rect fill="#C0C0C0" stroke="none" x="335.5" y="726.5" width="104" height="39" opacity="0.2"></rect></g><g transform="translate(-10,-8) scale(1,1)"><rect fill="#ffffff" stroke="none" x="328.5" y="719.5" width="104" height="39"></rect></g><g transform="translate(-10,-8) scale(1,1)"><path fill="none" stroke="#000000" d="M 328.5 719.5 L 432.5 719.5 L 432.5 758.5 L 328.5 758.5 L 328.5 719.5 Z Z" stroke-miterlimit="10"></path></g><g transform="translate(-10,-8) scale(1,1)"><g><path fill="none" stroke="none"></path><text fill="#000000" stroke="none" font-family="Arial" font-size="13px" font-style="normal" font-weight="bold" text-decoration="none" x="343" y="739">FileWriterRef</text></g></g><g transform="translate(-10,-8) scale(1,1)"><g><path fill="none" stroke="none"></path><text fill="#000000" stroke="none" font-family="Arial" font-size="13px" font-style="normal" font-weight="normal" text-decoration="none" x="333" y="754">(from resources)</text></g></g><g transform="translate(-10,-8) scale(1,1)"><rect fill="#C0C0C0" stroke="none" x="335.5" y="923.75" width="104" height="39" opacity="0.2"></rect></g><g transform="translate(-10,-8) scale(1,1)"><rect fill="#ffffff" stroke="none" x="328.5" y="916.75" width="104" height="39"></rect></g><g transform="translate(-10,-8) scale(1,1)"><path fill="none" stroke="#000000" d="M 328.5 916.75 L 432.5 916.75 L 432.5 955.75 L 328.5 955.75 L 328.5 916.75 Z Z" stroke-miterlimit="10"></path></g><g transform="translate(-10,-8) scale(1,1)"><g><path fill="none" stroke="none"></path><text fill="#000000" stroke="none" font-family="Arial" font-size="13px" font-style="normal" font-weight="bold" text-decoration="none" x="339.5" y="936.25">FileReaderRef</text></g></g><g transform="translate(-10,-8) scale(1,1)"><g><path fill="none" stroke="none"></path><text fill="#000000" stroke="none" font-family="Arial" font-size="13px" font-style="normal" font-weight="normal" text-decoration="none" x="333" y="951.25">(from resources)</text></g></g><g transform="translate(-10,-8) scale(1,1)"><rect fill="#C0C0C0" stroke="none" x="332.5" y="973.75" width="110" height="39" opacity="0.2"></rect></g><g transform="translate(-10,-8) scale(1,1)"><rect fill="#ffffff" stroke="none" x="325.5" y="966.75" width="110" height="39"></rect></g><g transform="translate(-10,-8) scale(1,1)"><path fill="none" stroke="#000000" d="M 325.5 966.75 L 435.5 966.75 L 435.5 1005.75 L 325.5 1005.75 L 325.5 966.75 Z Z" stroke-miterlimit="10"></path></g><g transform="translate(-10,-8) scale(1,1)"><g><path fill="none" stroke="none"></path><text fill="#000000" stroke="none" font-family="Arial" font-size="13px" font-style="normal" font-weight="bold" text-decoration="none" x="331.5" y="986.25">CacheReaderRef</text></g></g><g transform="translate(-10,-8) scale(1,1)"><g><path fill="none" stroke="none"></path><text fill="#000000" stroke="none" font-family="Arial" font-size="13px" font-style="normal" font-weight="normal" text-decoration="none" x="333" y="1001.25">(from resources)</text></g></g><g transform="translate(-10,-8) scale(1,1)"><rect fill="#C0C0C0" stroke="none" x="335.5" y="1023.75" width="104" height="39" opacity="0.2"></rect></g><g transform="translate(-10,-8) scale(1,1)"><rect fill="#ffffff" stroke="none" x="328.5" y="1016.75" width="104" height="39"></rect></g><g transform="translate(-10,-8) scale(1,1)"><path fill="none" stroke="#000000" d="M 328.5 1016.75 L 432.5 1016.75 L 432.5 1055.75 L 328.5 1055.75 L 328.5 1016.75 Z Z" stroke-miterlimit="10"></path></g><g transform="translate(-10,-8) scale(1,1)"><g><path fill="none" stroke="none"></path><text fill="#000000" stroke="none" font-family="Arial" font-size="13px" font-style="normal" font-weight="bold" text-decoration="none" x="342" y="1036.25">UriReaderRef</text></g></g><g transform="translate(-10,-8) scale(1,1)"><g><path fill="none" stroke="none"></path><text fill="#000000" stroke="none" font-family="Arial" font-size="13px" font-style="normal" font-weight="normal" text-decoration="none" x="333" y="1051.25">(from resources)</text></g></g><g transform="translate(-10,-8) scale(1,1)"><rect fill="#C0C0C0" stroke="none" x="329" y="1073.75" width="117" height="39" opacity="0.2"></rect></g><g transform="translate(-10,-8) scale(1,1)"><rect fill="#ffffff" stroke="none" x="322" y="1066.75" width="117" height="39"></rect></g><g transform="translate(-10,-8) scale(1,1)"><path fill="none" stroke="#000000" d="M 322 1066.75 L 439 1066.75 L 439 1105.75 L 322 1105.75 L 322 1066.75 Z Z" stroke-miterlimit="10"></path></g><g transform="translate(-10,-8) scale(1,1)"><g><path fill="none" stroke="none"></path><text fill="#000000" stroke="none" font-family="Arial" font-size="13px" font-style="normal" font-weight="bold" text-decoration="none" x="328" y="1086.25">ByteSequenceRef</text></g></g><g transform="translate(-10,-8) scale(1,1)"><g><path fill="none" stroke="none"></path><text fill="#000000" stroke="none" font-family="Arial" font-size="13px" font-style="normal" font-weight="normal" text-decoration="none" x="333" y="1101.25">(from resources)</text></g></g><g transform="translate(-10,-8) scale(1,1)"><path fill="#C0C0C0" stroke="none" d="M 79.5 314.25 C 79.5 307.8987248 84.6487248 302.75 91 302.75 C 97.3512752 302.75 102.5 307.8987248 102.5 314.25 C 102.5 320.6012752 97.3512752 325.75 91 325.75 C 84.6487248 325.75 79.5 320.6012752 79.5 314.25 Z" opacity="0.2"></path></g><g transform="translate(-10,-8) scale(1,1)"><path fill="#ffffff" stroke="none" d="M 72.5 307.25 C 72.5 300.8987248 77.6487248 295.75 84 295.75 C 90.3512752 295.75 95.5 300.8987248 95.5 307.25 C 95.5 313.6012752 90.3512752 318.75 84 318.75 C 77.6487248 318.75 72.5 313.6012752 72.5 307.25 Z"></path></g><g transform="translate(-10,-8) scale(1,1)"><path fill="none" stroke="#000000" d="M 72.5 307.25 C 72.5 300.8987248 77.6487248 295.75 84 295.75 C 90.3512752 295.75 95.5 300.8987248 95.5 307.25 C 95.5 313.6012752 90.3512752 318.75 84 318.75 C 77.6487248 318.75 72.5 313.6012752 72.5 307.25 Z" stroke-miterlimit="10"></path></g><g transform="translate(-10,-8) scale(1,1)"><g><path fill="none" stroke="none"></path><text fill="#000000" stroke="none" font-family="Arial" font-size="13px" font-style="normal" font-weight="bold" text-decoration="none" x="42.5" y="338.25">MetadataFixer</text></g></g><g transform="translate(-10,-8) scale(1,1)"><g><path fill="none" stroke="none"></path><text fill="#000000" stroke="none" font-family="Arial" font-size="13px" font-style="normal" font-weight="normal" text-decoration="none" x="56.5" y="353.25">(from api)</text></g></g><g transform="translate(-10,-8) scale(1,1)"><path fill="none" stroke="#000000" d="M 307 327 L 95.5 311.6938775510204" stroke-miterlimit="10"></path></g><g transform="translate(-10,-8) scale(1,1)"><g><path fill="none" stroke="none"></path><text fill="#000000" stroke="none" font-family="Arial" font-size="13px" font-style="normal" font-weight="normal" text-decoration="none" x="133" y="312">+implements</text></g></g><g transform="translate(-10,-8) scale(1,1)"><path fill="#C0C0C0" stroke="none" d="M 64 388.25 C 64 381.8987248 69.1487248 376.75 75.5 376.75 C 81.8512752 376.75 87 381.8987248 87 388.25 C 87 394.6012752 81.8512752 399.75 75.5 399.75 C 69.1487248 399.75 64 394.6012752 64 388.25 Z" opacity="0.2"></path></g><g transform="translate(-10,-8) scale(1,1)"><path fill="#ffffff" stroke="none" d="M 57 381.25 C 57 374.8987248 62.1487248 369.75 68.5 369.75 C 74.8512752 369.75 80 374.8987248 80 381.25 C 80 387.6012752 74.8512752 392.75 68.5 392.75 C 62.1487248 392.75 57 387.6012752 57 381.25 Z"></path></g><g transform="translate(-10,-8) scale(1,1)"><path fill="none" stroke="#000000" d="M 57 381.25 C 57 374.8987248 62.1487248 369.75 68.5 369.75 C 74.8512752 369.75 80 374.8987248 80 381.25 C 80 387.6012752 74.8512752 392.75 68.5 392.75 C 62.1487248 392.75 57 387.6012752 57 381.25 Z" stroke-miterlimit="10"></path></g><g transform="translate(-10,-8) scale(1,1)"><g><path fill="none" stroke="none"></path><text fill="#000000" stroke="none" font-family="Arial" font-size="13px" font-style="normal" font-weight="bold" text-decoration="none" x="44" y="412.25">Reporter</text></g></g><g transform="translate(-10,-8) scale(1,1)"><g><path fill="none" stroke="none"></path><text fill="#000000" stroke="none" font-family="Arial" font-size="13px" font-style="normal" font-weight="normal" text-decoration="none" x="41" y="427.25">(from api)</text></g></g><g transform="translate(-10,-8) scale(1,1)"><path fill="none" stroke="#000000" d="M 321 401 L 80 388.05882352941177" stroke-miterlimit="10"></path></g><g transform="translate(-10,-8) scale(1,1)"><g><path fill="none" stroke="none"></path><text fill="#000000" stroke="none" font-family="Arial" font-size="13px" font-style="normal" font-weight="normal" text-decoration="none" x="140" y="386">+implements</text></g></g><g transform="translate(-10,-8) scale(1,1)"><path fill="#C0C0C0" stroke="none" d="M 93.5 462.25 C 93.5 455.8987248 98.6487248 450.75 105 450.75 C 111.3512752 450.75 116.5 455.8987248 116.5 462.25 C 116.5 468.6012752 111.3512752 473.75 105 473.75 C 98.6487248 473.75 93.5 468.6012752 93.5 462.25 Z" opacity="0.2"></path></g><g transform="translate(-10,-8) scale(1,1)"><path fill="#ffffff" stroke="none" d="M 86.5 455.25 C 86.5 448.8987248 91.6487248 443.75 98 443.75 C 104.3512752 443.75 109.5 448.8987248 109.5 455.25 C 109.5 461.6012752 104.3512752 466.75 98 466.75 C 91.6487248 466.75 86.5 461.6012752 86.5 455.25 Z"></path></g><g transform="translate(-10,-8) scale(1,1)"><path fill="none" stroke="#000000" d="M 86.5 455.25 C 86.5 448.8987248 91.6487248 443.75 98 443.75 C 104.3512752 443.75 109.5 448.8987248 109.5 455.25 C 109.5 461.6012752 104.3512752 466.75 98 466.75 C 91.6487248 466.75 86.5 461.6012752 86.5 455.25 Z" stroke-miterlimit="10"></path></g><g transform="translate(-10,-8) scale(1,1)"><g><path fill="none" stroke="none"></path><text fill="#000000" stroke="none" font-family="Arial" font-size="13px" font-style="normal" font-weight="bold" text-decoration="none" x="29.5" y="486.25">ImplementationChecker</text></g></g><g transform="translate(-10,-8) scale(1,1)"><g><path fill="none" stroke="none"></path><text fill="#000000" stroke="none" font-family="Arial" font-size="13px" font-style="normal" font-weight="normal" text-decoration="none" x="70.5" y="501.25">(from api)</text></g></g><g transform="translate(-10,-8) scale(1,1)"><path fill="none" stroke="#000000" d="M 276 475 L 109.5 457.9113924050633" stroke-miterlimit="10"></path></g><g transform="translate(-10,-8) scale(1,1)"><g><path fill="none" stroke="none"></path><text fill="#000000" stroke="none" font-family="Arial" font-size="13px" font-style="normal" font-weight="normal" text-decoration="none" x="109" y="460">+implements</text></g></g><g transform="translate(-10,-8) scale(1,1)"><path fill="#C0C0C0" stroke="none" d="M 81 536.25 C 81 529.8987248 86.1487248 524.75 92.5 524.75 C 98.8512752 524.75 104 529.8987248 104 536.25 C 104 542.6012752 98.8512752 547.75 92.5 547.75 C 86.1487248 547.75 81 542.6012752 81 536.25 Z" opacity="0.2"></path></g><g transform="translate(-10,-8) scale(1,1)"><path fill="#ffffff" stroke="none" d="M 74 529.25 C 74 522.8987248 79.1487248 517.75 85.5 517.75 C 91.8512752 517.75 97 522.8987248 97 529.25 C 97 535.6012752 91.8512752 540.75 85.5 540.75 C 79.1487248 540.75 74 535.6012752 74 529.25 Z"></path></g><g transform="translate(-10,-8) scale(1,1)"><path fill="none" stroke="#000000" d="M 74 529.25 C 74 522.8987248 79.1487248 517.75 85.5 517.75 C 91.8512752 517.75 97 522.8987248 97 529.25 C 97 535.6012752 91.8512752 540.75 85.5 540.75 C 79.1487248 540.75 74 535.6012752 74 529.25 Z" stroke-miterlimit="10"></path></g><g transform="translate(-10,-8) scale(1,1)"><g><path fill="none" stroke="none"></path><text fill="#000000" stroke="none" font-family="Arial" font-size="13px" font-style="normal" font-weight="bold" text-decoration="none" x="43.5" y="560.25">PolicyChecker</text></g></g><g transform="translate(-10,-8) scale(1,1)"><g><path fill="none" stroke="none"></path><text fill="#000000" stroke="none" font-family="Arial" font-size="13px" font-style="normal" font-weight="normal" text-decoration="none" x="58" y="575.25">(from api)</text></g></g><g transform="translate(-10,-8) scale(1,1)"><path fill="none" stroke="#000000" d="M 305 549 L 97 533.7058823529412" stroke-miterlimit="10"></path></g><g transform="translate(-10,-8) scale(1,1)"><g><path fill="none" stroke="none"></path><text fill="#000000" stroke="none" font-family="Arial" font-size="13px" font-style="normal" font-weight="normal" text-decoration="none" x="132" y="534">+implements</text></g></g><g transform="translate(-10,-8) scale(1,1)"><path fill="#C0C0C0" stroke="none" d="M 74.5 610.25 C 74.5 603.8987248 79.6487248 598.75 86 598.75 C 92.3512752 598.75 97.5 603.8987248 97.5 610.25 C 97.5 616.6012752 92.3512752 621.75 86 621.75 C 79.6487248 621.75 74.5 616.6012752 74.5 610.25 Z" opacity="0.2"></path></g><g transform="translate(-10,-8) scale(1,1)"><path fill="#ffffff" stroke="none" d="M 67.5 603.25 C 67.5 596.8987248 72.6487248 591.75 79 591.75 C 85.3512752 591.75 90.5 596.8987248 90.5 603.25 C 90.5 609.6012752 85.3512752 614.75 79 614.75 C 72.6487248 614.75 67.5 609.6012752 67.5 603.25 Z"></path></g><g transform="translate(-10,-8) scale(1,1)"><path fill="none" stroke="#000000" d="M 67.5 603.25 C 67.5 596.8987248 72.6487248 591.75 79 591.75 C 85.3512752 591.75 90.5 596.8987248 90.5 603.25 C 90.5 609.6012752 85.3512752 614.75 79 614.75 C 72.6487248 614.75 67.5 609.6012752 67.5 603.25 Z" stroke-miterlimit="10"></path></g><g transform="translate(-10,-8) scale(1,1)"><g><path fill="none" stroke="none"></path><text fill="#000000" stroke="none" font-family="Arial" font-size="13px" font-style="normal" font-weight="bold" text-decoration="none" x="42" y="634.25">ServiceBase</text></g></g><g transform="translate(-10,-8) scale(1,1)"><g><path fill="none" stroke="none"></path><text fill="#000000" stroke="none" font-family="Arial" font-size="13px" font-style="normal" font-weight="normal" text-decoration="none" x="51.5" y="649.25">(from api)</text></g></g><g transform="translate(-10,-8) scale(1,1)"><path fill="none" stroke="#000000" d="M 312 623 L 90.5 608.2272727272727" stroke-miterlimit="10"></path></g><g transform="translate(-10,-8) scale(1,1)"><path fill="#C0C0C0" stroke="none" d="M 93.5 689 C 93.5 682.6487248 98.6487248 677.5 105 677.5 C 111.3512752 677.5 116.5 682.6487248 116.5 689 C 116.5 695.3512752 111.3512752 700.5 105 700.5 C 98.6487248 700.5 93.5 695.3512752 93.5 689 Z" opacity="0.2"></path></g><g transform="translate(-10,-8) scale(1,1)"><path fill="#ffffff" stroke="none" d="M 86.5 682 C 86.5 675.6487248 91.6487248 670.5 98 670.5 C 104.3512752 670.5 109.5 675.6487248 109.5 682 C 109.5 688.3512752 104.3512752 693.5 98 693.5 C 91.6487248 693.5 86.5 688.3512752 86.5 682 Z"></path></g><g transform="translate(-10,-8) scale(1,1)"><path fill="none" stroke="#000000" d="M 86.5 682 C 86.5 675.6487248 91.6487248 670.5 98 670.5 C 104.3512752 670.5 109.5 675.6487248 109.5 682 C 109.5 688.3512752 104.3512752 693.5 98 693.5 C 91.6487248 693.5 86.5 688.3512752 86.5 682 Z" stroke-miterlimit="10"></path></g><g transform="translate(-10,-8) scale(1,1)"><g><path fill="none" stroke="none"></path><text fill="#000000" stroke="none" font-family="Arial" font-size="13px" font-style="normal" font-weight="bold" text-decoration="none" x="38.5" y="713">ByteSequenceWriter</text></g></g><g transform="translate(-10,-8) scale(1,1)"><g><path fill="none" stroke="none"></path><text fill="#000000" stroke="none" font-family="Arial" font-size="13px" font-style="normal" font-weight="normal" text-decoration="none" x="70.5" y="728">(from api)</text></g></g><g transform="translate(-10,-8) scale(1,1)"><path fill="none" stroke="#000000" d="M 328 691 L 109.5 684.875" stroke-miterlimit="10"></path></g><g transform="translate(-10,-8) scale(1,1)"><path fill="none" stroke="#000000" d="M 328 739 L 227 740 L 109.5 688.7647058823529" stroke-miterlimit="10"></path></g><g transform="translate(-10,-8) scale(1,1)"><path fill="#C0C0C0" stroke="none" d="M 65.5 791.75 C 65.5 785.3987248 70.6487248 780.25 77 780.25 C 83.3512752 780.25 88.5 785.3987248 88.5 791.75 C 88.5 798.1012752 83.3512752 803.25 77 803.25 C 70.6487248 803.25 65.5 798.1012752 65.5 791.75 Z" opacity="0.2"></path></g><g transform="translate(-10,-8) scale(1,1)"><path fill="#ffffff" stroke="none" d="M 58.5 784.75 C 58.5 778.3987248 63.6487248 773.25 70 773.25 C 76.3512752 773.25 81.5 778.3987248 81.5 784.75 C 81.5 791.1012752 76.3512752 796.25 70 796.25 C 63.6487248 796.25 58.5 791.1012752 58.5 784.75 Z"></path></g><g transform="translate(-10,-8) scale(1,1)"><path fill="none" stroke="#000000" d="M 58.5 784.75 C 58.5 778.3987248 63.6487248 773.25 70 773.25 C 76.3512752 773.25 81.5 778.3987248 81.5 784.75 C 81.5 791.1012752 76.3512752 796.25 70 796.25 C 63.6487248 796.25 58.5 791.1012752 58.5 784.75 Z" stroke-miterlimit="10"></path></g><g transform="translate(-10,-8) scale(1,1)"><g><path fill="none" stroke="none"></path><text fill="#000000" stroke="none" font-family="Arial" font-size="13px" font-style="normal" font-weight="bold" text-decoration="none" x="42.5" y="815.75">Resource</text></g></g><g transform="translate(-10,-8) scale(1,1)"><g><path fill="none" stroke="none"></path><text fill="#000000" stroke="none" font-family="Arial" font-size="13px" font-style="normal" font-weight="normal" text-decoration="none" x="42.5" y="830.75">(from api)</text></g></g><g transform="translate(-10,-8) scale(1,1)"><path fill="none" stroke="#000000" d="M 328 804 L 81.5 790.5714285714286" stroke-miterlimit="10"></path></g><g transform="translate(-10,-8) scale(1,1)"><path fill="#C0C0C0" stroke="none" d="M 65 865.75 C 65 859.3987248 70.1487248 854.25 76.5 854.25 C 82.8512752 854.25 88 859.3987248 88 865.75 C 88 872.1012752 82.8512752 877.25 76.5 877.25 C 70.1487248 877.25 65 872.1012752 65 865.75 Z" opacity="0.2"></path></g><g transform="translate(-10,-8) scale(1,1)"><path fill="#ffffff" stroke="none" d="M 58 858.75 C 58 852.3987248 63.1487248 847.25 69.5 847.25 C 75.8512752 847.25 81 852.3987248 81 858.75 C 81 865.1012752 75.8512752 870.25 69.5 870.25 C 63.1487248 870.25 58 865.1012752 58 858.75 Z"></path></g><g transform="translate(-10,-8) scale(1,1)"><path fill="none" stroke="#000000" d="M 58 858.75 C 58 852.3987248 63.1487248 847.25 69.5 847.25 C 75.8512752 847.25 81 852.3987248 81 858.75 C 81 865.1012752 75.8512752 870.25 69.5 870.25 C 63.1487248 870.25 58 865.1012752 58 858.75 Z" stroke-miterlimit="10"></path></g><g transform="translate(-10,-8) scale(1,1)"><g><path fill="none" stroke="none"></path><text fill="#000000" stroke="none" font-family="Arial" font-size="13px" font-style="normal" font-weight="bold" text-decoration="none" x="41" y="889.75">HexSHA1</text></g></g><g transform="translate(-10,-8) scale(1,1)"><g><path fill="none" stroke="none"></path><text fill="#000000" stroke="none" font-family="Arial" font-size="13px" font-style="normal" font-weight="normal" text-decoration="none" x="42" y="904.75">(from api)</text></g></g><g transform="translate(-10,-8) scale(1,1)"><path fill="none" stroke="#000000" d="M 328 878 L 81 864.8571428571429" stroke-miterlimit="10"></path></g><g transform="translate(-10,-8) scale(1,1)"><path fill="#C0C0C0" stroke="none" d="M 93.5 973.25 C 93.5 966.8987248 98.6487248 961.75 105 961.75 C 111.3512752 961.75 116.5 966.8987248 116.5 973.25 C 116.5 979.6012752 111.3512752 984.75 105 984.75 C 98.6487248 984.75 93.5 979.6012752 93.5 973.25 Z" opacity="0.2"></path></g><g transform="translate(-10,-8) scale(1,1)"><path fill="#ffffff" stroke="none" d="M 86.5 966.25 C 86.5 959.8987248 91.6487248 954.75 98 954.75 C 104.3512752 954.75 109.5 959.8987248 109.5 966.25 C 109.5 972.6012752 104.3512752 977.75 98 977.75 C 91.6487248 977.75 86.5 972.6012752 86.5 966.25 Z"></path></g><g transform="translate(-10,-8) scale(1,1)"><path fill="none" stroke="#000000" d="M 86.5 966.25 C 86.5 959.8987248 91.6487248 954.75 98 954.75 C 104.3512752 954.75 109.5 959.8987248 109.5 966.25 C 109.5 972.6012752 104.3512752 977.75 98 977.75 C 91.6487248 977.75 86.5 972.6012752 86.5 966.25 Z" stroke-miterlimit="10"></path></g><g transform="translate(-10,-8) scale(1,1)"><g><path fill="none" stroke="none"></path><text fill="#000000" stroke="none" font-family="Arial" font-size="13px" font-style="normal" font-weight="bold" text-decoration="none" x="35" y="997.25">ByteSequenceReader</text></g></g><g transform="translate(-10,-8) scale(1,1)"><g><path fill="none" stroke="none"></path><text fill="#000000" stroke="none" font-family="Arial" font-size="13px" font-style="normal" font-weight="normal" text-decoration="none" x="70.5" y="1012.25">(from api)</text></g></g><g transform="translate(-10,-8) scale(1,1)"><path fill="none" stroke="#000000" d="M 328 936 L 227 937 L 109.5 964.8661971830986" stroke-miterlimit="10"></path></g><g transform="translate(-10,-8) scale(1,1)"><path fill="none" stroke="#000000" d="M 325 986 L 109.5 969.2394366197183" stroke-miterlimit="10"></path></g><g transform="translate(-10,-8) scale(1,1)"><path fill="none" stroke="#000000" d="M 328 1036 L 227 1037 L 109.5 973.7746478873239" stroke-miterlimit="10"></path></g><g transform="translate(-10,-8) scale(1,1)"><path fill="#C0C0C0" stroke="none" d="M 80.5 1073.25 C 80.5 1066.8987248 85.6487248 1061.75 92 1061.75 C 98.3512752 1061.75 103.5 1066.8987248 103.5 1073.25 C 103.5 1079.6012752 98.3512752 1084.75 92 1084.75 C 85.6487248 1084.75 80.5 1079.6012752 80.5 1073.25 Z" opacity="0.2"></path></g><g transform="translate(-10,-8) scale(1,1)"><path fill="#ffffff" stroke="none" d="M 73.5 1066.25 C 73.5 1059.8987248 78.6487248 1054.75 85 1054.75 C 91.3512752 1054.75 96.5 1059.8987248 96.5 1066.25 C 96.5 1072.6012752 91.3512752 1077.75 85 1077.75 C 78.6487248 1077.75 73.5 1072.6012752 73.5 1066.25 Z"></path></g><g transform="translate(-10,-8) scale(1,1)"><path fill="none" stroke="#000000" d="M 73.5 1066.25 C 73.5 1059.8987248 78.6487248 1054.75 85 1054.75 C 91.3512752 1054.75 96.5 1059.8987248 96.5 1066.25 C 96.5 1072.6012752 91.3512752 1077.75 85 1077.75 C 78.6487248 1077.75 73.5 1072.6012752 73.5 1066.25 Z" stroke-miterlimit="10"></path></g><g transform="translate(-10,-8) scale(1,1)"><g><path fill="none" stroke="none"></path><text fill="#000000" stroke="none" font-family="Arial" font-size="13px" font-style="normal" font-weight="bold" text-decoration="none" x="42.5" y="1097.25">ByteSequence</text></g></g><g transform="translate(-10,-8) scale(1,1)"><g><path fill="none" stroke="none"></path><text fill="#000000" stroke="none" font-family="Arial" font-size="13px" font-style="normal" font-weight="normal" text-decoration="none" x="57.5" y="1112.25">(from api)</text></g></g><g transform="translate(-10,-8) scale(1,1)"><path fill="none" stroke="#000000" d="M 321 1086 L 96.5 1070.6" stroke-miterlimit="10"></path></g></g></svg>