<svg version="1.1" xmlns="http://www.w3.org/2000/svg" xmlns:xlink="http://www.w3.org/1999/xlink" width="291" height="189"><defs></defs><g><g transform="translate(-34,7) scale(1,1)"><rect fill="#C0C0C0" stroke="none" x="127" y="11" width="80.80000000000001" height="15" opacity="0.2"></rect></g><g transform="translate(-34,7) scale(1,1)"><rect fill="#C0C0C0" stroke="none" x="127" y="25" width="202" height="38" opacity="0.2"></rect></g><g transform="translate(-34,7) scale(1,1)"><rect fill="#ffffff" stroke="none" x="120" y="19" width="202" height="37"></rect></g><g transform="translate(-34,7) scale(1,1)"><path fill="none" stroke="#000000" d="M 120 19 L 322 19 L 322 56 L 120 56 L 120 19 Z Z" stroke-miterlimit="10"></path></g><g transform="translate(-34,7) scale(1,1)"><rect fill="#ffffff" stroke="none" x="120" y="4" width="80.80000000000001" height="15"></rect></g><g transform="translate(-34,7) scale(1,1)"><path fill="none" stroke="#000000" d="M 120 4 L 200.8 4 L 200.8 19 L 120 19 L 120 4 Z Z" stroke-miterlimit="10"></path></g><g transform="translate(-34,7) scale(1,1)"><rect fill="#ffffff" stroke="none" x="120" y="18" width="202" height="38"></rect></g><g transform="translate(-34,7) scale(1,1)"><path fill="none" stroke="#000000" d="M 120 18 L 322 18 L 322 56 L 120 56 L 120 18 Z Z" stroke-miterlimit="10"></path></g><g transform="translate(-34,7) scale(1,1)"><g><path fill="none" stroke="none"></path><text fill="#000000" stroke="none" font-family="Arial" font-size="13px" font-style="normal" font-weight="normal" text-decoration="none" x="193" y="36.5">«module»</text></g></g><g transform="translate(-34,7) scale(1,1)"><g><path fill="none" stroke="none"></path><text fill="#000000" stroke="none" font-family="Arial" font-size="13px" font-style="normal" font-weight="bold" text-decoration="none" x="129" y="51.5">veraPDF Conformance Checker</text></g></g><g transform="translate(-34,7) scale(1,1)"><rect fill="#C0C0C0" stroke="none" x="267" y="126" width="43.60000000000002" height="15" opacity="0.2"></rect></g><g transform="translate(-34,7) scale(1,1)"><rect fill="#C0C0C0" stroke="none" x="267" y="140" width="109" height="38" opacity="0.2"></rect></g><g transform="translate(-34,7) scale(1,1)"><rect fill="#ffffff" stroke="none" x="260" y="134" width="109" height="37"></rect></g><g transform="translate(-34,7) scale(1,1)"><path fill="none" stroke="#000000" d="M 260 134 L 369 134 L 369 171 L 260 171 L 260 134 Z Z" stroke-miterlimit="10"></path></g><g transform="translate(-34,7) scale(1,1)"><rect fill="#ffffff" stroke="none" x="260" y="119" width="43.60000000000002" height="15"></rect></g><g transform="translate(-34,7) scale(1,1)"><path fill="none" stroke="#000000" d="M 260 119 L 303.6 119 L 303.6 134 L 260 134 L 260 119 Z Z" stroke-miterlimit="10"></path></g><g transform="translate(-34,7) scale(1,1)"><rect fill="#ffffff" stroke="none" x="260" y="133" width="109" height="38"></rect></g><g transform="translate(-34,7) scale(1,1)"><path fill="none" stroke="#000000" d="M 260 133 L 369 133 L 369 171 L 260 171 L 260 133 Z Z" stroke-miterlimit="10"></path></g><g transform="translate(-34,7) scale(1,1)"><g><path fill="none" stroke="none"></path><text fill="#000000" stroke="none" font-family="Arial" font-size="13px" font-style="normal" font-weight="normal" text-decoration="none" x="286.5" y="151.5">«Module»</text></g></g><g transform="translate(-34,7) scale(1,1)"><g><path fill="none" stroke="none"></path><text fill="#000000" stroke="none" font-family="Arial" font-size="13px" font-style="normal" font-weight="bold" text-decoration="none" x="267.5" y="166.5">veraPDF Library</text></g></g><g transform="translate(-34,7) scale(1,1)"><path fill="none" stroke="#000000" d="M 243 57 L 292 118" stroke-miterlimit="10" stroke-dasharray="3"></path></g><g transform="translate(-34,7) scale(1,1)"><path fill="none" stroke="#000000" d="M 282.3537745235556 112.71319245124285 L 292 118 L 288.91742602130614 107.44075108419734" stroke-miterlimit="10"></path></g><g transform="translate(-34,7) scale(1,1)"><g><path fill="none" stroke="none"></path><text fill="#000000" stroke="none" font-family="Arial" font-size="13px" font-style="normal" font-weight="normal" text-decoration="none" x="199" y="49">+uses</text></g></g><g transform="translate(-34,7) scale(1,1)"><rect fill="#C0C0C0" stroke="none" x="51" y="127" width="53.599999999999994" height="15" opacity="0.2"></rect></g><g transform="translate(-34,7) scale(1,1)"><rect fill="#C0C0C0" stroke="none" x="51" y="141" width="134" height="38" opacity="0.2"></rect></g><g transform="translate(-34,7) scale(1,1)"><rect fill="#ffffff" stroke="none" x="44" y="135" width="134" height="37"></rect></g><g transform="translate(-34,7) scale(1,1)"><path fill="none" stroke="#000000" d="M 44 135 L 178 135 L 178 172 L 44 172 L 44 135 Z Z" stroke-miterlimit="10"></path></g><g transform="translate(-34,7) scale(1,1)"><rect fill="#ffffff" stroke="none" x="44" y="120" width="53.599999999999994" height="15"></rect></g><g transform="translate(-34,7) scale(1,1)"><path fill="none" stroke="#000000" d="M 44 120 L 97.6 120 L 97.6 135 L 44 135 L 44 120 Z Z" stroke-miterlimit="10"></path></g><g transform="translate(-34,7) scale(1,1)"><rect fill="#ffffff" stroke="none" x="44" y="134" width="134" height="38"></rect></g><g transform="translate(-34,7) scale(1,1)"><path fill="none" stroke="#000000" d="M 44 134 L 178 134 L 178 172 L 44 172 L 44 134 Z Z" stroke-miterlimit="10"></path></g><g transform="translate(-34,7) scale(1,1)"><path fill="none" stroke="#000000" d="M 88.6 123 L 82.6 130 L 94.6 130 L 88.6 123" stroke-miterlimit="10"></path></g><g transform="translate(-34,7) scale(1,1)"><g><path fill="none" stroke="none"></path><text fill="#000000" stroke="none" font-family="Arial" font-size="13px" font-style="normal" font-weight="normal" text-decoration="none" x="83" y="152.5">«module»</text></g></g><g transform="translate(-34,7) scale(1,1)"><g><path fill="none" stroke="none"></path><text fill="#000000" stroke="none" font-family="Arial" font-size="13px" font-style="normal" font-weight="bold" text-decoration="none" x="51.5" y="167.5">veraPDF Framework</text></g></g><g transform="translate(-34,7) scale(1,1)"><path fill="none" stroke="#000000" d="M 195 57 L 137 119" stroke-miterlimit="10" stroke-dasharray="3"></path></g><g transform="translate(-34,7) scale(1,1)"><path fill="none" stroke="#000000" d="M 140.86861329449724 108.70272700285949 L 137 119 L 147.0167942583346 114.45425113032024" stroke-miterlimit="10"></path></g><g transform="translate(-34,7) scale(1,1)"><g><path fill="none" stroke="none"></path><text fill="#000000" stroke="none" font-family="Arial" font-size="13px" font-style="normal" font-weight="normal" text-decoration="none" x="40" y="92">+implements</text></g></g></g></svg>