<svg version="1.1" xmlns="http://www.w3.org/2000/svg" xmlns:xlink="http://www.w3.org/1999/xlink" width="748" height="395"><defs></defs><g><g transform="translate(-70,-10) scale(1,1)"><rect fill="#C0C0C0" stroke="none" x="91" y="27" width="608" height="117" opacity="0.2"></rect></g><g transform="translate(-70,-10) scale(1,1)"><rect fill="#ffffff" stroke="none" x="84" y="20" width="608" height="117"></rect></g><g transform="translate(-70,-10) scale(1,1)"><path fill="none" stroke="#000000" d="M 84 20 L 692 20 L 692 137 L 84 137 L 84 20 Z Z" stroke-miterlimit="10"></path></g><g transform="translate(-70,-10) scale(1,1)"><path fill="none" stroke="#000000" d="M 84 45 L 692 45" stroke-miterlimit="10"></path></g><g transform="translate(-70,-10) scale(1,1)"><path fill="none" stroke="#000000" d="M 84 55 L 692 55" stroke-miterlimit="10"></path></g><g transform="translate(-70,-10) scale(1,1)"><g><path fill="none" stroke="none"></path><text fill="#000000" stroke="none" font-family="Arial" font-size="13px" font-style="italic" font-weight="bold" text-decoration="none" x="339" y="39.5">AbstractReporter</text></g></g><g transform="translate(-70,-10) scale(1,1)"><g><path fill="none" stroke="none"></path><text fill="#000000" stroke="none" font-family="Arial" font-size="13px" font-style="normal" font-weight="normal" text-decoration="none" x="89" y="72.5">+getComponentDetails(): ComponentDetails</text></g></g><g transform="translate(-70,-10) scale(1,1)"><g><path fill="none" stroke="none"></path><text fill="#000000" stroke="none" font-family="Arial" font-size="13px" font-style="normal" font-weight="normal" text-decoration="none" x="89" y="87.5">+getServiceId(): URI</text></g></g><g transform="translate(-70,-10) scale(1,1)"><g><path fill="none" stroke="none"></path><text fill="#000000" stroke="none" font-family="Arial" font-size="13px" font-style="normal" font-weight="normal" text-decoration="none" x="89" y="102.5">+getDescription(): Resource</text></g></g><g transform="translate(-70,-10) scale(1,1)"><g><path fill="none" stroke="none"></path><text fill="#000000" stroke="none" font-family="Arial" font-size="13px" font-style="italic" font-weight="normal" text-decoration="none" x="89" y="117.5">+formatReport(toFormat: MachineReadableReport, template: ReportTemplate): MachineReadableReport</text></g></g><g transform="translate(-70,-10) scale(1,1)"><g><path fill="none" stroke="none"></path><text fill="#000000" stroke="none" font-family="Arial" font-size="13px" font-style="italic" font-weight="normal" text-decoration="none" x="89" y="132.5">+formatReports(toCheck: MachineReadableReport[*], template: ReportTemplate): PolicyReport[*]</text></g></g><g transform="translate(-70,-10) scale(1,1)"><path fill="#C0C0C0" stroke="none" d="M 771.5 134.5 C 771.5 128.1487248 776.6487248 123 783 123 C 789.3512752 123 794.5 128.1487248 794.5 134.5 C 794.5 140.8512752 789.3512752 146 783 146 C 776.6487248 146 771.5 140.8512752 771.5 134.5 Z" opacity="0.2"></path></g><g transform="translate(-70,-10) scale(1,1)"><path fill="#ffffff" stroke="none" d="M 764.5 127.5 C 764.5 121.1487248 769.6487248 116 776 116 C 782.3512752 116 787.5 121.1487248 787.5 127.5 C 787.5 133.8512752 782.3512752 139 776 139 C 769.6487248 139 764.5 133.8512752 764.5 127.5 Z"></path></g><g transform="translate(-70,-10) scale(1,1)"><path fill="none" stroke="#000000" d="M 764.5 127.5 C 764.5 121.1487248 769.6487248 116 776 116 C 782.3512752 116 787.5 121.1487248 787.5 127.5 C 787.5 133.8512752 782.3512752 139 776 139 C 769.6487248 139 764.5 133.8512752 764.5 127.5 Z" stroke-miterlimit="10"></path></g><g transform="translate(-70,-10) scale(1,1)"><g><path fill="none" stroke="none"></path><text fill="#000000" stroke="none" font-family="Arial" font-size="13px" font-style="normal" font-weight="bold" text-decoration="none" x="751.5" y="158.5">Reporter</text></g></g><g transform="translate(-70,-10) scale(1,1)"><g><path fill="none" stroke="none"></path><text fill="#000000" stroke="none" font-family="Arial" font-size="13px" font-style="normal" font-weight="normal" text-decoration="none" x="748.5" y="173.5">(from api)</text></g></g><g transform="translate(-70,-10) scale(1,1)"><path fill="none" stroke="#000000" d="M 693 132 L 764.5 131.87878787878788" stroke-miterlimit="10"></path></g><g transform="translate(-70,-10) scale(1,1)"><g><path fill="none" stroke="none"></path><text fill="#000000" stroke="none" font-family="Arial" font-size="13px" font-style="normal" font-weight="normal" text-decoration="none" x="691" y="123">+implements</text></g></g><g transform="translate(-70,-10) scale(1,1)"><rect fill="#C0C0C0" stroke="none" x="87" y="203" width="608" height="87" opacity="0.2"></rect></g><g transform="translate(-70,-10) scale(1,1)"><rect fill="#ffffff" stroke="none" x="80" y="196" width="608" height="87"></rect></g><g transform="translate(-70,-10) scale(1,1)"><path fill="none" stroke="#000000" d="M 80 196 L 688 196 L 688 283 L 80 283 L 80 196 Z Z" stroke-miterlimit="10"></path></g><g transform="translate(-70,-10) scale(1,1)"><path fill="none" stroke="#000000" d="M 80 236 L 688 236" stroke-miterlimit="10"></path></g><g transform="translate(-70,-10) scale(1,1)"><path fill="none" stroke="#000000" d="M 80 246 L 688 246" stroke-miterlimit="10"></path></g><g transform="translate(-70,-10) scale(1,1)"><g><path fill="none" stroke="none"></path><text fill="#000000" stroke="none" font-family="Arial" font-size="13px" font-style="normal" font-weight="bold" text-decoration="none" x="338" y="215.5">XsltReporterRef</text></g></g><g transform="translate(-70,-10) scale(1,1)"><g><path fill="none" stroke="none"></path><text fill="#000000" stroke="none" font-family="Arial" font-size="13px" font-style="normal" font-weight="normal" text-decoration="none" x="654" y="230.5">{leaf}</text></g></g><g transform="translate(-70,-10) scale(1,1)"><g><path fill="none" stroke="none"></path><text fill="#000000" stroke="none" font-family="Arial" font-size="13px" font-style="normal" font-weight="normal" text-decoration="none" x="85" y="263.5">+formatReport(toFormat: MachineReadableReport, template: ReportTemplate): MachineReadableReport</text></g></g><g transform="translate(-70,-10) scale(1,1)"><g><path fill="none" stroke="none"></path><text fill="#000000" stroke="none" font-family="Arial" font-size="13px" font-style="normal" font-weight="normal" text-decoration="none" x="85" y="278.5">+formatReports(toCheck: MachineReadableReport[*], template: ReportTemplate): PolicyReport[*]</text></g></g><g transform="translate(-70,-10) scale(1,1)"><path fill="none" stroke="#000000" d="M 385 195 L 387 138" stroke-miterlimit="10"></path></g><g transform="translate(-70,-10) scale(1,1)"><path fill="#FFFFFF" stroke="none" d="M 394.7011261915567 158.6080725780389 L 387 138 L 377.87341068570726 158.01762641993892"></path></g><g transform="translate(-70,-10) scale(1,1)"><path fill="none" stroke="#000000" d="M 394.7011261915567 158.6080725780389 L 387 138 L 377.87341068570726 158.01762641993892 L 394.7011261915567 158.6080725780389" stroke-miterlimit="10"></path></g><g transform="translate(-70,-10) scale(1,1)"><rect fill="#C0C0C0" stroke="none" x="167" y="343" width="107" height="59" opacity="0.2"></rect></g><g transform="translate(-70,-10) scale(1,1)"><rect fill="#ffffff" stroke="none" x="160" y="336" width="107" height="59"></rect></g><g transform="translate(-70,-10) scale(1,1)"><path fill="none" stroke="#000000" d="M 160 336 L 267 336 L 267 395 L 160 395 L 160 336 Z Z" stroke-miterlimit="10"></path></g><g transform="translate(-70,-10) scale(1,1)"><path fill="none" stroke="#000000" d="M 160 376 L 267 376" stroke-miterlimit="10"></path></g><g transform="translate(-70,-10) scale(1,1)"><path fill="none" stroke="#000000" d="M 160 386 L 267 386" stroke-miterlimit="10"></path></g><g transform="translate(-70,-10) scale(1,1)"><g><path fill="none" stroke="none"></path><text fill="#000000" stroke="none" font-family="Arial" font-size="13px" font-style="normal" font-weight="bold" text-decoration="none" x="167.5" y="355.5">ReportTemplate</text></g></g><g transform="translate(-70,-10) scale(1,1)"><g><path fill="none" stroke="none"></path><text fill="#000000" stroke="none" font-family="Arial" font-size="13px" font-style="normal" font-weight="normal" text-decoration="none" x="166" y="370.5">(from document)</text></g></g><g transform="translate(-70,-10) scale(1,1)"><rect fill="#C0C0C0" stroke="none" x="459" y="343" width="159" height="59" opacity="0.2"></rect></g><g transform="translate(-70,-10) scale(1,1)"><rect fill="#ffffff" stroke="none" x="452" y="336" width="159" height="59"></rect></g><g transform="translate(-70,-10) scale(1,1)"><path fill="none" stroke="#000000" d="M 452 336 L 611 336 L 611 395 L 452 395 L 452 336 Z Z" stroke-miterlimit="10"></path></g><g transform="translate(-70,-10) scale(1,1)"><path fill="none" stroke="#000000" d="M 452 376 L 611 376" stroke-miterlimit="10"></path></g><g transform="translate(-70,-10) scale(1,1)"><path fill="none" stroke="#000000" d="M 452 386 L 611 386" stroke-miterlimit="10"></path></g><g transform="translate(-70,-10) scale(1,1)"><g><path fill="none" stroke="none"></path><text fill="#000000" stroke="none" font-family="Arial" font-size="13px" font-style="normal" font-weight="bold" text-decoration="none" x="461" y="355.5">MachineReadableReport</text></g></g><g transform="translate(-70,-10) scale(1,1)"><g><path fill="none" stroke="none"></path><text fill="#000000" stroke="none" font-family="Arial" font-size="13px" font-style="normal" font-weight="normal" text-decoration="none" x="484" y="370.5">(from document)</text></g></g><g transform="translate(-70,-10) scale(1,1)"><path fill="none" stroke="#000000" d="M 254 335 L 323 284" stroke-miterlimit="10"></path></g><g transform="translate(-70,-10) scale(1,1)"><g><path fill="none" stroke="none"></path><text fill="#000000" stroke="none" font-family="Arial" font-size="13px" font-style="normal" font-weight="normal" text-decoration="none" x="203" y="317">+consumes</text></g></g><g transform="translate(-70,-10) scale(1,1)"><path fill="none" stroke="#000000" d="M 496 335 L 437 284" stroke-miterlimit="10"></path></g><g transform="translate(-70,-10) scale(1,1)"><g><path fill="none" stroke="none"></path><text fill="#000000" stroke="none" font-family="Arial" font-size="13px" font-style="normal" font-weight="normal" text-decoration="none" x="475" y="317">+consumes</text></g></g></g></svg>